<svg width="601" height="458" viewBox="0 0 601 458" fill="none" xmlns="http://www.w3.org/2000/svg">
<g clip-path="url(#clip0_13409_20028)">
<mask id="mask0_13409_20028" style="mask-type:alpha" maskUnits="userSpaceOnUse" x="0" y="0" width="467" height="458">
<path d="M0 40.0004C0 17.909 17.9086 0.000421141 39.9999 0.000391847L311.615 3.16729e-05C326.327 1.21643e-05 339.851 8.07582 346.829 21.0274L461.366 233.614C468.763 247.345 467.506 264.123 458.144 276.597L334 442.011C326.446 452.077 314.594 458 302.008 458L40 458C17.9086 458 0 440.092 0 418V40.0004Z" fill="url(#paint0_linear_13409_20028)"/>
</mask>
<g mask="url(#mask0_13409_20028)">
<path d="M0 24C0 10.7452 10.7452 0 24 0H521C534.255 0 545 10.7452 545 24V434C545 447.255 534.255 458 521 458H24C10.7452 458 0 447.255 0 434V24Z" fill="url(#paint1_linear_13409_20028)"/>
</g>
<g style="mix-blend-mode:luminosity" opacity="0.2">
<path d="M330.98 193.246C330.98 198.168 330.732 203.032 330.217 207.82C329.34 216.195 327.718 224.359 325.429 232.219C325.258 232.829 325.067 233.459 324.876 234.069C324.342 235.786 323.789 237.484 323.197 239.162C315.662 260.68 302.977 279.757 286.628 294.96C261.848 318.004 228.637 332.082 192.125 332.082C142.794 332.082 99.4911 306.368 74.8637 267.605C61.2052 246.106 53.2886 220.601 53.2886 193.246C53.2886 190.175 53.384 187.142 53.5747 184.109C55.9402 147.673 72.3647 115.072 97.4499 91.6845C104.527 85.0842 112.291 79.2087 120.627 74.1917C141.516 61.6205 165.972 54.3906 192.106 54.3906C205.02 54.3906 217.515 56.1456 229.381 59.4458C235.027 61.0101 240.521 62.9368 245.843 65.1687C255.782 69.3463 265.129 74.6495 273.733 80.9065C276.117 82.6424 278.426 84.4547 280.696 86.3241C282.737 88.0219 284.74 89.7769 286.686 91.5892C291.34 95.9194 295.709 100.574 299.734 105.515C315.815 125.22 326.593 149.447 329.874 175.982C330.58 181.629 330.942 187.39 330.942 193.227L330.98 193.246Z" fill="url(#paint2_linear_13409_20028)"/>
<path d="M273.79 80.9446C271.863 82.032 269.326 82.1083 267.132 82.299C263.45 82.6233 263.279 89.0329 262.649 92.8672C262 96.7206 258.796 98.2848 258.796 98.2848C255.267 97.8842 254.98 104.675 251.852 103.76C248.723 102.844 247.808 106.774 244.794 106.373C241.761 105.973 239.357 110.818 235.008 111.619C230.677 112.42 230.239 108.662 229.704 106.316C229.17 103.97 231.593 102.463 232.967 100.65C234.321 98.8381 237.354 96.7969 238.861 95.8813C240.368 94.9656 239.395 94.2216 238.861 90.6544C238.327 87.1062 238.632 86.4195 237.583 83.8442C236.515 81.2689 230.544 81.2689 227.74 79.533C224.935 77.7971 224.42 79.533 222.15 81.8793C219.88 84.2257 219.728 88.3843 217.687 87.1062C215.645 85.8281 212.231 86.1906 211.105 84.5309C209.98 82.8713 208.225 80.8302 210.876 79.533C213.528 78.2549 213.299 77.1103 211.639 75.9085C209.98 74.7067 208.396 73.4858 205.745 72.7228C203.093 71.9597 199.469 69.2509 196.054 69.9186C192.659 70.6053 193.345 72.1696 193.86 74.3824C194.356 76.5952 201.624 74.5923 201.434 75.9848C201.224 77.3965 196.398 79.1133 192.048 80.6203C187.718 82.1273 187.718 80.4105 184.284 83.539C180.85 86.6675 178.542 85.3512 175.719 86.2669C172.896 87.1825 169.977 90.9024 170.378 93.4204C170.778 95.9385 175.929 96.0529 178.847 97.8652C181.766 99.6774 184.303 99.067 184.704 102.405C185.104 105.744 186.726 106.24 187.832 105.839C188.939 105.438 187.737 103.817 189.854 100.994C191.972 98.1704 199.03 96.3582 201.147 91.5128C203.265 86.6675 207.5 85.6564 209.217 85.8663C210.934 86.0761 211.334 89.7006 211.735 92.2186C212.135 94.7367 213.757 94.6413 214.959 92.7146C216.179 90.7879 218.793 91.303 219.804 92.314C220.815 93.325 220.91 94.8321 220.72 98.4756C220.51 102.1 224.344 102.1 223.333 104.256C222.322 106.411 216.065 106.545 211.43 106.736C206.794 106.926 207.805 109.349 208.396 113.183C209.007 117.018 211.43 117.018 207.176 121.043C202.941 125.087 199.507 118.219 195.673 121.043C191.838 123.866 181.747 132.336 176.52 136.17C171.274 140.004 166.944 151.946 167.097 156.791C167.249 161.637 163.319 163.602 158.932 160.111C154.544 156.639 153.19 151.946 150.615 151.03C148.039 150.115 139.57 151.794 137.3 154.216C135.029 156.639 131.405 161.026 130.032 162.533C128.677 164.04 130.184 171.919 134.572 173.273C138.959 174.628 142.431 175.238 145.464 172.071C148.497 168.886 153.324 172.071 150.92 175.696C148.497 179.32 153.552 179.931 155.365 181.152C157.177 182.354 156.776 184.585 156.967 188.42C157.177 192.254 161.812 194.276 165.246 190.842C168.68 187.409 174.326 190.442 178.752 191.033C183.197 191.644 183.597 188.21 189.854 189.622C196.111 191.033 195.31 192.235 199.736 197.691C204.181 203.147 208.206 196.89 213.051 200.438C217.896 204.005 212.841 210.396 221.12 212.208C229.399 214.02 232.413 212.208 235.046 214.23C237.678 216.252 239.071 220.887 246.148 222.7C253.206 224.512 249.773 231.971 244.737 238.037C239.7 244.084 241.112 250.341 238.48 258.01C235.847 265.678 223.562 271.325 219.918 273.347C216.275 275.369 214.272 281.626 214.463 286.452C214.672 291.298 209.007 291.298 205.592 293.72C202.159 296.143 202.159 307.226 202.159 314.895C202.159 322.563 201.968 323.765 197.313 321.762C192.678 319.74 191.266 306.826 191.266 306.826V298.756C191.266 290.687 183.597 284.03 180.984 275.159C178.351 266.289 186.02 256.808 179.763 251.161C173.506 245.515 166.257 245.305 166.314 239.468C166.391 233.611 165.628 232.81 162.213 228.174C158.779 223.539 160 222.127 160.401 218.484C160.801 214.859 159.79 214.859 160.191 212.646C160.592 210.434 163.815 207.191 165.437 205.188C167.058 203.166 166.448 200.342 163.625 198.53C160.801 196.718 155.346 200.342 151.721 197.519C148.097 194.696 147.982 186.131 145.769 185.73C143.557 185.329 140.829 184.814 139.627 183.212C138.406 181.59 135.297 180.179 132.664 180.293C130.051 180.389 121.867 182.01 118.242 177.775C114.618 173.54 116.03 170.412 113.206 166.578C110.383 162.743 109.773 155.895 107.865 155.78C105.957 155.685 107.464 158.298 107.159 161.637C106.854 164.975 109.067 170.507 106.549 169.096C104.031 167.684 101.303 158.413 101.303 158.413L100.902 153.777C100.502 149.142 99.7004 147.33 97.6783 144.297C95.6563 141.283 93.2336 133.805 95.0458 129.379C96.8581 124.934 97.6783 121.52 100.692 115.263C103.725 109.006 106.148 109.406 107.56 107.804C108.971 106.182 108.971 102.157 105.938 100.536C102.905 98.9144 104.927 95.2899 101.703 92.6765C100.711 91.8753 99.1663 91.7036 97.4876 91.7036C104.565 85.1032 112.329 79.2278 120.665 74.2107C121.562 74.3824 122.325 74.5159 122.916 74.5732C126.846 74.8784 133.351 76.3854 140.466 74.4969C142.736 73.8864 144.625 71.2539 147.276 71.1013C149.928 70.9487 155.136 75.2408 155.651 73.2188C156.147 71.1967 151.321 70.1857 153.037 67.8774C154.754 65.5501 159.18 65.1495 165.952 65.8554C172.705 66.5612 203.189 63.2992 204.925 63.757C206.66 64.2148 204.238 65.7981 206.355 66.6375C208.473 67.4768 210.59 64.9016 212.631 65.5692C214.672 66.256 212.326 66.7138 213.986 68.3353C214.768 69.1174 217.286 60.8193 223.696 60.9337C225.508 60.9719 227.358 60.2851 229.418 59.4648C235.065 61.0291 240.559 62.9558 245.881 65.1877C255.82 69.3654 265.167 74.6686 273.77 80.9255L273.79 80.9446Z" fill="url(#paint3_linear_13409_20028)"/>
<path d="M184.647 168.504C184.647 168.504 176.482 164.117 171.026 164.575C165.571 165.032 162.862 167.302 164.369 168.504C165.876 169.706 167.841 168.962 170.721 171.976C173.602 175.009 176.024 168.943 179.649 170.164C183.273 171.366 184.342 170.164 184.647 168.504Z" fill="url(#paint4_linear_13409_20028)"/>
<path d="M192.659 171.231C192.659 171.231 184.685 172.299 183.598 175.618C182.511 178.937 187.051 175.008 190.694 176.82C194.319 178.632 197.047 177.888 197.505 175.618C197.962 173.348 196.36 170.41 192.659 171.231Z" fill="url(#paint5_linear_13409_20028)"/>
<path d="M202.788 174.477C202.788 174.477 200.518 175.183 200.518 176.995C200.518 178.808 203.398 180.467 205.668 178.502C207.938 176.538 205.21 174.229 202.788 174.477Z" fill="url(#paint6_linear_13409_20028)"/>
<path d="M329.912 176.02C328.481 181.19 328.405 184.795 324.704 184.032C318.676 182.773 316.673 184.223 303.434 179.282C290.176 174.341 299.6 164.689 295.689 156.658C291.778 148.627 284.949 150.725 286.342 138.516C287.734 126.308 298.894 127.357 296.109 117.933C294.716 113.221 297.062 108.796 299.771 105.553C315.852 125.258 326.63 149.485 329.912 176.02Z" fill="url(#paint7_linear_13409_20028)"/>
<path d="M330.217 207.838C326.631 242.137 310.569 272.735 286.647 294.978C288.689 287.252 295.041 276.226 289.127 263.731C280.047 244.598 300.764 248.375 300.287 236.757C299.829 225.121 297.025 221.401 311.923 216.766C319.325 214.457 325.715 210.871 330.237 207.857L330.217 207.838Z" fill="url(#paint8_linear_13409_20028)"/>
<path d="M304.006 191.929C304.006 191.929 297.806 190.842 294.849 195.039C291.911 199.217 291.911 199.693 291.282 204.348C290.652 209.003 295.784 203.89 298.722 203.566C301.659 203.261 303.987 206.98 306.009 202.173C308.031 197.366 309.118 193.341 303.987 191.948L304.006 191.929Z" fill="url(#paint9_linear_13409_20028)"/>
<path opacity="0.1" d="M323.197 239.163C315.662 260.681 302.977 279.758 286.628 294.961C261.848 318.005 228.637 332.083 192.125 332.083C142.794 332.083 99.4911 306.369 74.8637 267.606C61.2052 246.107 53.2886 220.602 53.2886 193.247C53.2886 190.176 53.384 187.143 53.5747 184.11C55.9402 147.674 72.3647 115.073 97.4499 91.6855C97.4499 91.6855 84.2111 204.636 144.625 251.391C206.489 299.272 306.124 282.142 323.178 239.163H323.197Z" fill="black"/>
<path d="M322.224 157.918C241.589 91.6666 145.045 89.8353 107.579 92.0672C151.435 53.3426 217.458 47.429 268.258 81.6135C296.071 100.327 314.46 127.816 322.224 157.918Z" fill="url(#paint10_linear_13409_20028)"/>
<path d="M293.247 84.4751L268.906 118.679C266.445 122.131 261.829 123.238 258.071 121.273L189.473 85.3908C186.688 83.941 187.718 79.7251 190.866 79.7251H207.347L183.445 54.5827C183.445 54.5827 161.851 57.5586 137.662 65.5134C137.662 65.5134 151.34 45.7123 161.298 39.7415C186.039 33.5227 209.885 32.9885 232.623 39.7415C232.623 39.7415 253.664 52.7896 271.157 79.7251H290.825C293.266 79.7251 294.697 82.4912 293.266 84.4751H293.247Z" fill="#C9E0FF"/>
<path d="M183.426 54.5815C183.426 54.5815 162.424 57.462 137.644 65.5121C137.644 65.5121 151.321 45.7111 161.279 39.7402C173.545 44.0514 183.426 54.5815 183.426 54.5815Z" fill="#79B1FF"/>
<path d="M39.9732 171.157L81.9408 170.585C86.1757 170.528 89.8192 173.599 90.4487 177.796L102.028 254.348C102.505 257.458 98.4798 259.098 96.6294 256.58L86.9006 243.284L80.8343 276.896C80.8343 276.896 93.5581 294.523 115.877 309.307C115.877 309.307 92.5471 308.563 81.8645 304.061C62.2351 287.77 47.699 268.846 39.7252 246.527C39.7252 246.527 37.8176 221.842 49.206 191.817L37.5887 175.945C36.1389 173.98 37.5314 171.195 39.9732 171.157Z" fill="#C9E0FF"/>
<path d="M80.9298 276.381C80.9298 276.381 94.9317 296.048 115.877 309.287C115.877 309.287 92.5472 308.543 81.8645 304.041C78.0875 291.585 80.9298 276.381 80.9298 276.381Z" fill="#3F8DF8"/>
<path d="M332.22 281.878C332.22 281.878 318.485 302.48 291.016 319.095L290.367 338.744C290.291 341.185 287.487 342.521 285.541 341.033L254.466 317.359C266.255 311.426 277.09 303.872 286.666 294.964C303.015 279.76 315.7 260.665 323.235 239.166C323.827 237.487 324.38 235.789 324.914 234.073C325.105 233.462 325.296 232.833 325.467 232.222C326.841 227.529 327.966 222.722 328.844 217.839L331.934 213.375C340.137 235.732 339.755 259.368 332.258 281.878H332.22Z" fill="url(#paint11_linear_13409_20028)"/>
<path d="M320.87 295.344C320.87 295.344 307.917 263.277 269.803 225.239C269.803 225.239 287.2 191.798 305.609 171.959C316.139 186.094 333.46 211.924 337.867 231.553C338.172 232.888 338.362 234.262 338.458 235.616C339.145 244.639 340.652 281.895 320.851 295.325L320.87 295.344Z" fill="url(#paint12_linear_13409_20028)"/>
</g>
<path d="M423 417.875L436.449 426.598C439.556 428.614 443.524 428.747 446.759 426.944L472 412.875" stroke="#D5DCFF" stroke-width="4"/>
<path d="M270 373L380.86 437.509C384.028 439.352 387.95 439.315 391.082 437.412L425.5 416.5" stroke="#D5DCFF" stroke-width="4"/>
<path d="M302 358L384.625 404.27C387.655 405.967 391.347 405.97 394.38 404.28L420 390" stroke="#D5DCFF" stroke-width="4"/>
<path d="M39 461.875L433.367 227.734C441.867 222.589 455.648 222.589 464.148 227.734L567.525 295.831C572.668 299.219 572.965 306.657 568.108 310.444L538.965 333.167C535.919 335.542 531.698 335.709 528.474 333.582L513.104 323.441C510.287 321.582 506.668 321.456 503.729 323.112L455.934 350.045" stroke="#D5DCFF" stroke-width="4" stroke-miterlimit="10"/>
<path d="M400.237 318.39C401.692 319.23 404.051 319.23 405.506 318.39C406.962 317.55 406.962 316.189 405.506 315.349C404.051 314.509 401.692 314.509 400.237 315.349C398.782 316.189 398.782 317.55 400.237 318.39Z" fill="#E6EAFD"/>
<path d="M392.503 322.855C393.958 323.695 396.317 323.695 397.772 322.855C399.227 322.015 399.227 320.653 397.772 319.814C396.317 318.974 393.958 318.974 392.503 319.814C391.047 320.653 391.047 322.015 392.503 322.855Z" fill="#E6EAFD"/>
<path d="M384.768 327.318C386.223 328.158 388.583 328.158 390.038 327.318C391.493 326.478 391.493 325.116 390.038 324.276C388.583 323.437 386.223 323.437 384.768 324.276C383.313 325.116 383.313 326.478 384.768 327.318Z" fill="#E6EAFD"/>
<g opacity="0.4" style="mix-blend-mode:multiply">
<path d="M420.482 388.633L405.513 379.988H400.427L346.486 411.008L361.419 419.592L369.155 418.276L420.482 388.633Z" fill="#5574FF"/>
</g>
<path d="M400.427 359.875L349.1 389.516V409.632L364.07 418.276L415.396 388.635V368.519L400.427 359.875Z" fill="#5574FF"/>
<g opacity="0.8" style="mix-blend-mode:multiply">
<path d="M415.395 368.52V388.635L364.069 418.276V398.163L415.395 368.52Z" fill="#95A8FF"/>
</g>
<g opacity="0.5" style="mix-blend-mode:multiply">
<path d="M349.1 389.516L364.07 398.162V418.275L349.1 409.631V389.516Z" fill="#B9C4F5"/>
</g>
<g opacity="0.4" style="mix-blend-mode:multiply">
<path d="M369.872 442.467L421.198 412.823L406.229 404.18H401.142L350.423 433.47H349.559L341 435.549L341.257 435.9H344.919L350.9 434.447L364.784 442.467L369.191 447.198H372.854L373.433 447.02L369.195 442.467H369.872Z" fill="#F4D7E7"/>
</g>
<path d="M401.142 384.064L349.815 413.706V433.821L364.786 442.466L416.112 412.825V392.709L401.142 384.064Z" fill="#D1579C"/>
<g opacity="0.8" style="mix-blend-mode:multiply">
<path d="M416.111 392.709V412.825L364.786 442.466L364.784 422.352L416.111 392.709Z" fill="#BD0F72"/>
</g>
<g opacity="0.5" style="mix-blend-mode:multiply">
<path d="M349.815 413.707L364.784 422.353L364.786 442.467L349.815 433.822V413.707Z" fill="#DE87B8"/>
</g>
<path d="M350.426 433.469L364.175 441.408L364.174 422.705L350.426 414.764V433.469Z" fill="white"/>
<g opacity="0.5" style="mix-blend-mode:multiply">
<path d="M364.174 422.705L350.426 414.764V433.469L364.174 425.53V422.705Z" fill="#EBB7D5"/>
</g>
<mask id="mask1_13409_20028" style="mask-type:luminance" maskUnits="userSpaceOnUse" x="349" y="414" width="16" height="28">
<path d="M349.959 433.375L364.145 441.543V422.881L349.959 414.67V433.375Z" fill="white"/>
</mask>
<g mask="url(#mask1_13409_20028)">
<g opacity="0.4" style="mix-blend-mode:multiply">
<path d="M371.38 434.031L363.371 429.406H361.541L353.532 434.031L361.542 438.656H363.371L371.38 434.031Z" fill="#E39AC4"/>
</g>
<path d="M353.532 433.768L354.491 433.215L362.499 437.84V438.103L361.541 438.657L353.532 434.032V433.768Z" fill="#B5276F"/>
<g opacity="0.5" style="mix-blend-mode:multiply">
<path d="M361.541 438.392V438.656L353.532 434.031V433.768L361.541 438.392Z" fill="#B5276F"/>
</g>
<path d="M362.499 437.84V438.103L361.541 438.657V438.393L362.499 437.84Z" fill="#B5276F"/>
<path d="M361.543 435.949L360.582 436.504V437.84L361.542 438.392L362.501 437.838V436.503L361.543 435.949Z" fill="#BD0F72"/>
<g opacity="0.5" style="mix-blend-mode:multiply">
<path d="M360.582 436.504V437.84L361.542 438.392V437.057L360.582 436.504Z" fill="#DE87B8"/>
</g>
<path d="M361.542 437.056V438.392L362.501 437.838V436.502L361.542 437.056Z" fill="#DE87B8"/>
<path d="M354.493 431.877L353.532 432.431V433.767L354.491 434.322L355.453 433.766V432.43L354.493 431.877Z" fill="#BD0F72"/>
<path d="M354.491 432.984V434.319L355.453 433.764V432.428L354.491 432.984Z" fill="#DE87B8"/>
<g opacity="0.5" style="mix-blend-mode:multiply">
<path d="M353.532 432.432V433.767L354.491 434.322V432.986L353.532 432.432Z" fill="#DE87B8"/>
</g>
<path d="M353.532 432.167L354.491 431.613L362.499 436.239V436.502L361.541 437.055L353.532 432.43V432.167Z" fill="#CA3F8E"/>
<g opacity="0.2" style="mix-blend-mode:multiply">
<path d="M362.499 436.239L354.491 431.613L353.532 432.167L361.541 436.792L362.499 436.239Z" fill="#CA3F8E"/>
</g>
<g opacity="0.5" style="mix-blend-mode:multiply">
<path d="M361.541 436.793V437.056L353.532 432.431V432.168L361.541 436.793Z" fill="#CA3F8E"/>
</g>
<path d="M362.499 436.24V436.504L361.541 437.057V436.794L362.499 436.24Z" fill="#CA3F8E"/>
<path d="M360.582 429.696L361.542 429.143L369.55 433.767V434.031L368.59 434.585L360.582 429.959V429.696Z" fill="#5574FF"/>
<g opacity="0.5" style="mix-blend-mode:multiply">
<path d="M368.59 434.322V434.584L360.582 429.959V429.695L368.59 434.322Z" fill="#5574FF"/>
</g>
<path d="M361.543 427.805L360.582 428.359V429.695L361.542 430.249L362.501 429.694V428.358L361.543 427.805Z" fill="#BD0F72"/>
<path d="M361.542 428.913V430.249L362.501 429.694V428.357L361.542 428.913Z" fill="#5574FF"/>
<g opacity="0.5" style="mix-blend-mode:multiply">
<path d="M360.582 428.359V429.695L361.542 430.25V428.914L360.582 428.359Z" fill="#5574FF"/>
</g>
<path d="M360.582 428.098L361.542 427.543L369.55 432.168V432.432L368.59 432.986L360.582 428.36V428.098Z" fill="#5574FF"/>
<g opacity="0.2" style="mix-blend-mode:multiply">
<path d="M369.55 432.168L361.542 427.543L360.582 428.098L368.59 432.723L369.55 432.168Z" fill="#5574FF"/>
</g>
<g opacity="0.5" style="mix-blend-mode:multiply">
<path d="M368.59 432.723V432.986L360.582 428.36V428.098L368.59 432.723Z" fill="#5574FF"/>
</g>
<path d="M362.499 427.834L361.541 427.281L353.532 431.906V432.169L354.491 432.723L362.499 428.098V427.834Z" fill="#CA3F8E"/>
<path d="M354.491 432.459V432.723L362.499 428.098V427.834L354.491 432.459Z" fill="#CA3F8E"/>
<g opacity="0.5" style="mix-blend-mode:multiply">
<path d="M353.532 431.906V432.169L354.491 432.723V432.46L353.532 431.906Z" fill="#CA3F8E"/>
</g>
<path d="M363.925 428.657L362.965 428.104L354.957 432.728V432.992L355.917 433.545L363.925 428.92V428.657Z" fill="#CA3F8E"/>
<path d="M355.917 433.281V433.545L363.925 428.92V428.656L355.917 433.281Z" fill="#CA3F8E"/>
<g opacity="0.5" style="mix-blend-mode:multiply">
<path d="M354.957 432.729V432.992L355.917 433.546V433.282L354.957 432.729Z" fill="#CA3F8E"/>
</g>
<path d="M365.331 429.47L364.373 428.916L356.364 433.541V433.805L357.323 434.358L365.331 429.733V429.47Z" fill="#CA3F8E"/>
<path d="M357.323 434.095V434.359L365.331 429.734V429.471L357.323 434.095Z" fill="#CA3F8E"/>
<g opacity="0.5" style="mix-blend-mode:multiply">
<path d="M356.364 433.543V433.806L357.323 434.36V434.096L356.364 433.543Z" fill="#CA3F8E"/>
</g>
<path d="M366.738 430.281L365.778 429.727L357.77 434.352V434.616L358.729 435.169L366.738 430.545V430.281Z" fill="#CA3F8E"/>
<path d="M358.729 434.907V435.17L366.738 430.545V430.281L358.729 434.907Z" fill="#CA3F8E"/>
<g opacity="0.5" style="mix-blend-mode:multiply">
<path d="M357.77 434.352V434.615L358.729 435.169V434.905L357.77 434.352Z" fill="#CA3F8E"/>
</g>
<path d="M368.143 431.093L367.183 430.539L359.175 435.164V435.426L360.135 435.981L368.143 431.356V431.093Z" fill="#CA3F8E"/>
<path d="M360.135 435.717V435.98L368.143 431.355V431.092L360.135 435.717Z" fill="#CA3F8E"/>
<g opacity="0.5" style="mix-blend-mode:multiply">
<path d="M359.175 435.164V435.426L360.135 435.981V435.718L359.175 435.164Z" fill="#CA3F8E"/>
</g>
<path d="M369.55 431.906L368.59 431.352L360.582 435.977V436.24L361.542 436.794L369.55 432.169V431.906Z" fill="#CA3F8E"/>
<path d="M361.542 436.531V436.794L369.55 432.169V431.906L361.542 436.531Z" fill="#CA3F8E"/>
<g opacity="0.5" style="mix-blend-mode:multiply">
<path d="M360.582 435.977V436.24L361.542 436.793V436.531L360.582 435.977Z" fill="#CA3F8E"/>
</g>
<path d="M368.085 431.494L361.542 427.715L354.996 431.494V431.904L361.542 435.684L368.085 431.904V431.494Z" fill="white"/>
<g opacity="0.6" style="mix-blend-mode:multiply">
<path d="M368.085 431.494L361.542 427.715L354.996 431.494L361.542 435.273L368.085 431.494Z" fill="#D1579C"/>
</g>
<g opacity="0.2" style="mix-blend-mode:multiply">
<path d="M354.996 431.494V431.904L361.542 435.684V435.273L354.996 431.494Z" fill="#5574FF"/>
</g>
<g opacity="0.4" style="mix-blend-mode:multiply">
<path d="M361.542 435.273V435.684L368.085 431.904V431.494L361.542 435.273Z" fill="#5574FF"/>
</g>
<path d="M368.085 430.947L361.542 427.168L354.996 430.947V431.356L361.542 435.136L368.085 431.356V430.947Z" fill="white"/>
<g opacity="0.6" style="mix-blend-mode:multiply">
<path d="M368.085 430.947L361.542 427.168L354.996 430.947L361.542 434.727L368.085 430.947Z" fill="#D1579C"/>
</g>
<g opacity="0.2" style="mix-blend-mode:multiply">
<path d="M354.996 430.947V431.356L361.542 435.136V434.727L354.996 430.947Z" fill="#5574FF"/>
</g>
<g opacity="0.4" style="mix-blend-mode:multiply">
<path d="M361.542 434.727V435.136L368.085 431.356V430.947L361.542 434.727Z" fill="#5574FF"/>
</g>
<path d="M368.085 430.396L361.542 426.617L354.996 430.396V430.807L361.542 434.586L368.085 430.807V430.396Z" fill="white"/>
<g opacity="0.6" style="mix-blend-mode:multiply">
<path d="M368.085 430.396L361.542 426.617L354.996 430.396L361.542 434.176L368.085 430.396Z" fill="#D1579C"/>
</g>
<g opacity="0.2" style="mix-blend-mode:multiply">
<path d="M354.996 430.395V430.805L361.542 434.584V434.174L354.996 430.395Z" fill="#5574FF"/>
</g>
<g opacity="0.4" style="mix-blend-mode:multiply">
<path d="M361.542 434.174V434.584L368.085 430.805V430.395L361.542 434.174Z" fill="#5574FF"/>
</g>
<path d="M368.085 429.848L361.542 426.068L354.996 429.848V430.257L361.542 434.037L368.085 430.257V429.848Z" fill="white"/>
<g opacity="0.6" style="mix-blend-mode:multiply">
<path d="M368.085 429.848L361.542 426.068L354.996 429.848L361.542 433.627L368.085 429.848Z" fill="#D1579C"/>
</g>
<g opacity="0.2" style="mix-blend-mode:multiply">
<path d="M354.996 429.848V430.257L361.542 434.036V433.627L354.996 429.848Z" fill="#5574FF"/>
</g>
<g opacity="0.4" style="mix-blend-mode:multiply">
<path d="M361.542 433.627V434.036L368.085 430.257V429.848L361.542 433.627Z" fill="#5574FF"/>
</g>
<path d="M368.085 429.299L361.542 425.52L354.996 429.299V429.71L361.542 433.487L368.085 429.71V429.299Z" fill="white"/>
<g opacity="0.6" style="mix-blend-mode:multiply">
<path d="M368.085 429.299L361.542 425.52L354.996 429.299L361.542 433.079L368.085 429.299Z" fill="#D1579C"/>
</g>
<g opacity="0.2" style="mix-blend-mode:multiply">
<path d="M354.996 429.299V429.71L361.542 433.487V433.079L354.996 429.299Z" fill="#5574FF"/>
</g>
<g opacity="0.4" style="mix-blend-mode:multiply">
<path d="M361.542 433.079V433.487L368.085 429.71V429.299L361.542 433.079Z" fill="#5574FF"/>
</g>
<path d="M368.085 428.747L361.542 424.969L354.996 428.749V429.157L361.542 432.937L368.085 429.157V428.747Z" fill="white"/>
<g opacity="0.6" style="mix-blend-mode:multiply">
<path d="M368.085 428.747L361.542 424.969L354.996 428.749L361.542 432.526L368.085 428.747Z" fill="#D1579C"/>
</g>
<g opacity="0.2" style="mix-blend-mode:multiply">
<path d="M354.996 428.748V429.157L361.542 432.936V432.526L354.996 428.748Z" fill="#5574FF"/>
</g>
<g opacity="0.4" style="mix-blend-mode:multiply">
<path d="M361.542 432.527V432.938L368.085 429.158V428.748L361.542 432.527Z" fill="#5574FF"/>
</g>
<path d="M368.085 428.2L361.542 424.42L354.996 428.2V428.61L361.542 432.388L368.085 428.61V428.2Z" fill="white"/>
<g opacity="0.6" style="mix-blend-mode:multiply">
<path d="M368.085 428.2L361.542 424.42L354.996 428.2L361.542 431.979L368.085 428.2Z" fill="#D1579C"/>
</g>
<g opacity="0.2" style="mix-blend-mode:multiply">
<path d="M354.996 428.199V428.609L361.542 432.388V431.978L354.996 428.199Z" fill="#5574FF"/>
</g>
<g opacity="0.4" style="mix-blend-mode:multiply">
<path d="M361.542 431.978V432.388L368.085 428.609V428.199L361.542 431.978Z" fill="#5574FF"/>
</g>
<path d="M368.085 427.649L361.542 423.871L354.996 427.65V428.06L361.542 431.838L368.085 428.06V427.649Z" fill="white"/>
<g opacity="0.6" style="mix-blend-mode:multiply">
<path d="M368.085 427.649L361.542 423.871L354.996 427.65L361.542 431.429L368.085 427.649Z" fill="#D1579C"/>
</g>
<g opacity="0.2" style="mix-blend-mode:multiply">
<path d="M354.996 427.65V428.06L361.542 431.839V431.429L354.996 427.65Z" fill="#5574FF"/>
</g>
<g opacity="0.4" style="mix-blend-mode:multiply">
<path d="M361.542 431.428V431.837L368.085 428.059V427.648L361.542 431.428Z" fill="#5574FF"/>
</g>
<path d="M368.085 427.102L361.542 423.322L354.996 427.102V427.51L361.542 431.291L368.085 427.51V427.102Z" fill="white"/>
<g opacity="0.2" style="mix-blend-mode:multiply">
<path d="M354.996 427.102V427.51L361.542 431.291V430.881L354.996 427.102Z" fill="#5574FF"/>
</g>
<g opacity="0.4" style="mix-blend-mode:multiply">
<path d="M361.542 430.881V431.291L368.085 427.51V427.102L361.542 430.881Z" fill="#5574FF"/>
</g>
<path d="M367.138 427.648L366.187 427.1L367.136 426.551L366.858 426.391L365.91 426.939L361.822 424.579L362.771 424.031L362.495 423.87L361.545 424.419L360.594 423.869L360.318 424.029L361.269 424.579L357.19 426.933L356.24 426.384L355.964 426.544L356.913 427.092L355.964 427.641L355.235 432.887V433.414L355.512 433.574V433.047L356.242 427.801L357.191 427.254L361.278 429.614L360.33 430.163L359.6 435.407V435.934L359.876 436.094V435.568L360.607 430.322L361.556 429.774L362.506 430.323L363.24 435.549V435.812L363.516 435.652V435.39L362.783 430.164L361.832 429.614L365.91 427.26L366.862 427.808L367.594 433.034V433.298L367.87 433.138V432.874L367.138 427.648ZM361.555 429.454L357.468 427.094L361.545 424.738L365.634 427.1L361.555 429.454Z" fill="#CA3F8E"/>
<path d="M367.87 432.874V433.138L367.594 433.298V433.034L366.862 427.808L367.139 427.648L367.87 432.874ZM363.517 435.39L362.783 430.164L362.506 430.323L363.24 435.549V435.812L363.517 435.652V435.39Z" fill="#DE87B8"/>
<g opacity="0.5" style="mix-blend-mode:multiply">
<path d="M360.607 430.322L359.876 435.568V436.094L359.6 435.934V435.407L360.33 430.162L360.607 430.322ZM355.964 427.641L355.235 432.887V433.413L355.512 433.574V433.047L356.242 427.8L355.964 427.641Z" fill="#DE87B8"/>
</g>
</g>
<path d="M349.559 413.355L341 415.434V435.549L341.257 435.899L349.815 433.819V413.706L349.559 413.355Z" fill="#D1579C"/>
<g opacity="0.8" style="mix-blend-mode:multiply">
<path d="M349.815 413.707V433.82L341.257 435.9V415.785L349.815 413.707Z" fill="#D1579C"/>
</g>
<g opacity="0.4" style="mix-blend-mode:multiply">
<path d="M341 415.436V435.55L341.258 435.901V415.786L341 415.436Z" fill="#D1579C"/>
</g>
<path d="M347.866 432.464V431.548L350.063 431.016V431.93L347.866 432.464ZM350.063 416.393V415.479L347.866 416.011V416.926L350.063 416.393Z" fill="#D1579C"/>
<path d="M365.365 422.174L364.785 422.353V442.466L369.191 447.197L369.771 447.017V426.905L365.365 422.174Z" fill="#D1579C"/>
<g opacity="0.8" style="mix-blend-mode:multiply">
<path d="M369.771 426.904L369.191 427.084V447.197L369.771 447.017V426.904Z" fill="#D1579C"/>
</g>
<g opacity="0.5" style="mix-blend-mode:multiply">
<path d="M364.785 422.352L369.191 427.083V447.196L364.785 442.465V422.352Z" fill="#D1579C"/>
</g>
<path d="M365.74 441.642L364.673 440.516V439.601L365.74 440.747V441.642ZM365.74 425.212L364.673 424.064V424.979L365.74 426.128V425.212Z" fill="#D1579C"/>
<g opacity="0.4" style="mix-blend-mode:multiply">
<path d="M456.05 375.616L505.916 346.816L491.373 338.418H486.431L437.155 366.875H436.315L428 368.895L428.25 369.235H431.808L437.618 367.824L451.108 375.616L455.389 380.213H458.948L459.51 380.039L455.393 375.616H456.05Z" fill="#5574FF"/>
</g>
<path d="M486.431 318.875L436.564 347.673V367.216L451.109 375.615L500.975 346.817V327.273L486.431 318.875Z" fill="#5574FF"/>
<g opacity="0.8" style="mix-blend-mode:multiply">
<path d="M500.975 327.273V346.817L451.109 375.615L451.108 356.073L500.975 327.273Z" fill="#95A8FF"/>
</g>
<g opacity="0.5" style="mix-blend-mode:multiply">
<path d="M436.564 347.674L451.108 356.074L451.109 375.615L436.564 367.217V347.674Z" fill="#5574FF"/>
</g>
<path d="M437.158 366.874L450.516 374.588L450.515 356.416L437.158 348.701V366.874Z" fill="white"/>
<g opacity="0.5" style="mix-blend-mode:multiply">
<path d="M450.515 356.416L437.158 348.701V366.874L450.515 359.161V356.416Z" fill="#5574FF"/>
</g>
<mask id="mask2_13409_20028" style="mask-type:luminance" maskUnits="userSpaceOnUse" x="437" y="348" width="14" height="27">
<path d="M437.158 366.874L450.516 374.588L450.515 356.416L437.158 348.701V366.874Z" fill="white"/>
</mask>
<g mask="url(#mask2_13409_20028)">
<g opacity="0.4" style="mix-blend-mode:multiply">
<path d="M457.515 367.419L449.734 362.926H447.956L440.175 367.419L447.957 371.912H449.734L457.515 367.419Z" fill="#5574FF"/>
</g>
<path d="M440.175 367.163L441.107 366.625L448.887 371.119V371.374L447.956 371.912L440.175 367.418V367.163Z" fill="#5574FF"/>
<g opacity="0.5" style="mix-blend-mode:multiply">
<path d="M447.956 371.655V371.912L440.175 367.418V367.162L447.956 371.655Z" fill="#5574FF"/>
</g>
<path d="M448.887 371.117V371.373L447.956 371.911V371.654L448.887 371.117Z" fill="#5574FF"/>
<path d="M447.958 369.281L447.024 369.82V371.118L447.957 371.655L448.89 371.116V369.819L447.958 369.281Z" fill="#2B51FF"/>
<g opacity="0.5" style="mix-blend-mode:multiply">
<path d="M447.024 369.82V371.118L447.957 371.655V370.357L447.024 369.82Z" fill="#5574FF"/>
</g>
<path d="M447.957 370.357V371.654L448.89 371.116V369.818L447.957 370.357Z" fill="#5574FF"/>
<path d="M441.109 365.326L440.175 365.865V367.162L441.107 367.701L442.042 367.161V365.863L441.109 365.326Z" fill="#2B51FF"/>
<path d="M441.107 366.402V367.699L442.042 367.159V365.861L441.107 366.402Z" fill="#5574FF"/>
<g opacity="0.5" style="mix-blend-mode:multiply">
<path d="M440.175 365.865V367.163L441.107 367.702V366.404L440.175 365.865Z" fill="#5574FF"/>
</g>
<path d="M440.175 365.608L441.107 365.07L448.887 369.564V369.82L447.956 370.357L440.175 365.864V365.608Z" fill="#5574FF"/>
<g opacity="0.2" style="mix-blend-mode:multiply">
<path d="M448.887 369.564L441.107 365.07L440.175 365.608L447.956 370.102L448.887 369.564Z" fill="#5574FF"/>
</g>
<g opacity="0.5" style="mix-blend-mode:multiply">
<path d="M447.956 370.103V370.359L440.175 365.865V365.609L447.956 370.103Z" fill="#5574FF"/>
</g>
<path d="M448.887 369.564V369.821L447.956 370.358V370.102L448.887 369.564Z" fill="#5574FF"/>
<path d="M447.024 363.207L447.957 362.67L455.737 367.163V367.419L454.805 367.957L447.024 363.463V363.207Z" fill="#5574FF"/>
<g opacity="0.5" style="mix-blend-mode:multiply">
<path d="M454.805 367.7V367.955L447.024 363.461V363.205L454.805 367.7Z" fill="#5574FF"/>
</g>
<path d="M447.958 361.371L447.024 361.91V363.207L447.957 363.746L448.89 363.206V361.908L447.958 361.371Z" fill="#2B51FF"/>
<path d="M447.957 362.448V363.746L448.89 363.206V361.908L447.957 362.448Z" fill="#5574FF"/>
<g opacity="0.5" style="mix-blend-mode:multiply">
<path d="M447.024 361.91V363.208L447.957 363.747V362.449L447.024 361.91Z" fill="#5574FF"/>
</g>
<path d="M447.024 361.654L447.957 361.115L455.737 365.609V365.865L454.805 366.404L447.024 361.909V361.654Z" fill="#5574FF"/>
<g opacity="0.2" style="mix-blend-mode:multiply">
<path d="M455.737 365.609L447.957 361.115L447.024 361.654L454.805 366.148L455.737 365.609Z" fill="#5574FF"/>
</g>
<g opacity="0.5" style="mix-blend-mode:multiply">
<path d="M454.805 366.148V366.404L447.024 361.909V361.654L454.805 366.148Z" fill="#5574FF"/>
</g>
<path d="M448.887 361.398L447.956 360.861L440.175 365.355V365.61L441.107 366.148L448.887 361.655V361.398Z" fill="#5574FF"/>
<path d="M441.107 365.892V366.148L448.888 361.655V361.398L441.107 365.892Z" fill="#5574FF"/>
<g opacity="0.5" style="mix-blend-mode:multiply">
<path d="M440.175 365.354V365.608L441.107 366.147V365.891L440.175 365.354Z" fill="#5574FF"/>
</g>
<path d="M450.272 362.198L449.34 361.66L441.56 366.153V366.409L442.492 366.947L450.272 362.454V362.198Z" fill="#5574FF"/>
<path d="M442.492 366.692V366.949L450.272 362.455V362.199L442.492 366.692Z" fill="#5574FF"/>
<g opacity="0.5" style="mix-blend-mode:multiply">
<path d="M441.56 366.152V366.408L442.492 366.946V366.69L441.56 366.152Z" fill="#5574FF"/>
</g>
<path d="M451.638 362.987L450.707 362.449L442.926 366.943V367.199L443.858 367.736L451.638 363.243V362.987Z" fill="#5574FF"/>
<path d="M443.858 367.48V367.735L451.638 363.242V362.986L443.858 367.48Z" fill="#5574FF"/>
<g opacity="0.5" style="mix-blend-mode:multiply">
<path d="M442.926 366.943V367.199L443.858 367.737V367.481L442.926 366.943Z" fill="#5574FF"/>
</g>
<path d="M453.005 363.777L452.073 363.238L444.292 367.732V367.989L445.225 368.526L453.005 364.033V363.777Z" fill="#5574FF"/>
<path d="M445.225 368.269V368.525L453.005 364.032V363.775L445.225 368.269Z" fill="#5574FF"/>
<g opacity="0.5" style="mix-blend-mode:multiply">
<path d="M444.292 367.732V367.989L445.225 368.526V368.27L444.292 367.732Z" fill="#5574FF"/>
</g>
<path d="M454.371 364.563L453.438 364.025L445.658 368.519V368.774L446.59 369.313L454.371 364.819V364.563Z" fill="#5574FF"/>
<path d="M446.59 369.058V369.314L454.371 364.82V364.564L446.59 369.058Z" fill="#5574FF"/>
<g opacity="0.5" style="mix-blend-mode:multiply">
<path d="M445.658 368.52V368.774L446.59 369.313V369.058L445.658 368.52Z" fill="#5574FF"/>
</g>
<path d="M455.737 365.353L454.805 364.814L447.024 369.308V369.564L447.957 370.102L455.737 365.608V365.353Z" fill="#5574FF"/>
<path d="M447.957 369.847V370.102L455.737 365.608V365.354L447.957 369.847Z" fill="#5574FF"/>
<g opacity="0.5" style="mix-blend-mode:multiply">
<path d="M447.024 369.307V369.563L447.957 370.1V369.845L447.024 369.307Z" fill="#5574FF"/>
</g>
<path d="M454.314 364.955L447.957 361.283L441.598 364.955V365.354L447.957 369.026L454.314 365.354V364.955Z" fill="white"/>
<g opacity="0.6" style="mix-blend-mode:multiply">
<path d="M454.314 364.955L447.957 361.283L441.598 364.955L447.957 368.627L454.314 364.955Z" fill="#5574FF"/>
</g>
<g opacity="0.2" style="mix-blend-mode:multiply">
<path d="M441.598 364.955V365.354L447.957 369.026V368.627L441.598 364.955Z" fill="#5574FF"/>
</g>
<g opacity="0.4" style="mix-blend-mode:multiply">
<path d="M447.957 368.627V369.026L454.314 365.354V364.955L447.957 368.627Z" fill="#5574FF"/>
</g>
<path d="M454.314 364.424L447.957 360.752L441.598 364.424V364.821L447.957 368.493L454.314 364.821V364.424Z" fill="white"/>
<g opacity="0.6" style="mix-blend-mode:multiply">
<path d="M454.314 364.424L447.957 360.752L441.598 364.424L447.957 368.096L454.314 364.424Z" fill="#5574FF"/>
</g>
<g opacity="0.2" style="mix-blend-mode:multiply">
<path d="M441.598 364.424V364.821L447.957 368.493V368.096L441.598 364.424Z" fill="#5574FF"/>
</g>
<g opacity="0.4" style="mix-blend-mode:multiply">
<path d="M447.957 368.096V368.493L454.314 364.821V364.424L447.957 368.096Z" fill="#5574FF"/>
</g>
<path d="M454.314 363.89L447.957 360.219L441.598 363.89V364.289L447.957 367.961L454.314 364.289V363.89Z" fill="white"/>
<g opacity="0.6" style="mix-blend-mode:multiply">
<path d="M454.314 363.89L447.957 360.219L441.598 363.89L447.957 367.562L454.314 363.89Z" fill="#5574FF"/>
</g>
<g opacity="0.2" style="mix-blend-mode:multiply">
<path d="M441.598 363.891V364.29L447.957 367.961V367.563L441.598 363.891Z" fill="#5574FF"/>
</g>
<g opacity="0.4" style="mix-blend-mode:multiply">
<path d="M447.957 367.563V367.961L454.314 364.29V363.891L447.957 367.563Z" fill="#5574FF"/>
</g>
<path d="M454.314 363.356L447.957 359.684L441.598 363.356V363.753L447.957 367.425L454.314 363.753V363.356Z" fill="white"/>
<g opacity="0.6" style="mix-blend-mode:multiply">
<path d="M454.314 363.356L447.957 359.684L441.598 363.356L447.957 367.028L454.314 363.356Z" fill="#5574FF"/>
</g>
<g opacity="0.2" style="mix-blend-mode:multiply">
<path d="M441.598 363.355V363.753L447.957 367.425V367.027L441.598 363.355Z" fill="#5574FF"/>
</g>
<g opacity="0.4" style="mix-blend-mode:multiply">
<path d="M447.957 367.027V367.425L454.314 363.753V363.355L447.957 367.027Z" fill="#5574FF"/>
</g>
<path d="M454.314 362.822L447.957 359.15L441.598 362.822V363.221L447.957 366.892L454.314 363.221V362.822Z" fill="white"/>
<g opacity="0.6" style="mix-blend-mode:multiply">
<path d="M454.314 362.822L447.957 359.15L441.598 362.822L447.957 366.494L454.314 362.822Z" fill="#5574FF"/>
</g>
<g opacity="0.2" style="mix-blend-mode:multiply">
<path d="M441.598 362.822V363.221L447.957 366.892V366.494L441.598 362.822Z" fill="#5574FF"/>
</g>
<g opacity="0.4" style="mix-blend-mode:multiply">
<path d="M447.957 366.494V366.892L454.314 363.221V362.822L447.957 366.494Z" fill="#5574FF"/>
</g>
<path d="M454.314 362.288L447.957 358.617L441.598 362.289V362.687L447.957 366.358L454.314 362.687V362.288Z" fill="white"/>
<g opacity="0.6" style="mix-blend-mode:multiply">
<path d="M454.314 362.288L447.957 358.617L441.598 362.289L447.957 365.96L454.314 362.288Z" fill="#5574FF"/>
</g>
<g opacity="0.2" style="mix-blend-mode:multiply">
<path d="M441.598 362.289V362.686L447.957 366.358V365.959L441.598 362.289Z" fill="#5574FF"/>
</g>
<g opacity="0.4" style="mix-blend-mode:multiply">
<path d="M447.957 365.961V366.359L454.314 362.688V362.289L447.957 365.961Z" fill="#5574FF"/>
</g>
<path d="M454.314 361.754L447.957 358.082L441.598 361.754V362.153L447.957 365.824L454.314 362.153V361.754Z" fill="white"/>
<g opacity="0.6" style="mix-blend-mode:multiply">
<path d="M454.314 361.754L447.957 358.082L441.598 361.754L447.957 365.426L454.314 361.754Z" fill="#5574FF"/>
</g>
<g opacity="0.2" style="mix-blend-mode:multiply">
<path d="M441.598 361.754V362.152L447.957 365.823V365.426L441.598 361.754Z" fill="#5574FF"/>
</g>
<g opacity="0.4" style="mix-blend-mode:multiply">
<path d="M447.957 365.426V365.823L454.314 362.152V361.754L447.957 365.426Z" fill="#5574FF"/>
</g>
<path d="M454.314 361.222L447.957 357.551L441.598 361.223V361.62L447.957 365.292L454.314 361.62V361.222Z" fill="white"/>
<g opacity="0.6" style="mix-blend-mode:multiply">
<path d="M454.314 361.222L447.957 357.551L441.598 361.223L447.957 364.893L454.314 361.222Z" fill="#5574FF"/>
</g>
<g opacity="0.2" style="mix-blend-mode:multiply">
<path d="M441.598 361.223V361.62L447.957 365.292V364.894L441.598 361.223Z" fill="#5574FF"/>
</g>
<g opacity="0.4" style="mix-blend-mode:multiply">
<path d="M447.957 364.893V365.291L454.314 361.619V361.221L447.957 364.893Z" fill="#5574FF"/>
</g>
<path d="M454.314 360.687L447.957 357.016L441.598 360.687V361.085L447.957 364.758L454.314 361.085V360.687Z" fill="white"/>
<g opacity="0.2" style="mix-blend-mode:multiply">
<path d="M441.598 360.688V361.085L447.957 364.758V364.359L441.598 360.688Z" fill="#5574FF"/>
</g>
<g opacity="0.4" style="mix-blend-mode:multiply">
<path d="M447.957 364.359V364.758L454.314 361.085V360.688L447.957 364.359Z" fill="#5574FF"/>
</g>
<path d="M453.395 361.221L452.47 360.688L453.392 360.154L453.122 359.999L452.201 360.531L448.23 358.238L449.151 357.706L448.883 357.55L447.961 358.083L447.036 357.549L446.768 357.704L447.692 358.238L443.729 360.525L442.806 359.992L442.538 360.148L443.46 360.68L442.538 361.213L441.83 366.31V366.822L442.098 366.978V366.466L442.808 361.369L443.73 360.837L447.701 363.13L446.779 363.663L446.071 368.759V369.271L446.339 369.426V368.915L447.049 363.819L447.971 363.286L448.894 363.819L449.607 368.897V369.152L449.876 368.996V368.741L449.163 363.664L448.239 363.13L452.201 360.843L453.126 361.376L453.837 366.453V366.71L454.105 366.554V366.298L453.395 361.221ZM447.97 362.975L443.999 360.682L447.961 358.393L451.933 360.688L447.97 362.975Z" fill="#5574FF"/>
<path d="M454.105 366.298V366.554L453.837 366.71V366.453L453.126 361.376L453.394 361.221L454.105 366.298ZM449.875 368.742L449.163 363.664L448.894 363.82L449.607 368.897V369.152L449.875 368.997V368.742Z" fill="#5574FF"/>
<g opacity="0.5" style="mix-blend-mode:multiply">
<path d="M447.049 363.818L446.339 368.915V369.426L446.071 369.27V368.758L446.779 363.663L447.049 363.818ZM442.538 361.213L441.83 366.31V366.821L442.098 366.978V366.465L442.808 361.368L442.538 361.213Z" fill="#5574FF"/>
</g>
</g>
<path d="M436.315 347.332L428 349.351V368.894L428.25 369.234L436.564 367.214V347.673L436.315 347.332Z" fill="#5574FF"/>
<g opacity="0.8" style="mix-blend-mode:multiply">
<path d="M436.564 347.674V367.215L428.25 369.235V349.693L436.564 347.674Z" fill="#95A8FF"/>
</g>
<g opacity="0.4" style="mix-blend-mode:multiply">
<path d="M428 349.352V368.894L428.25 369.235V349.692L428 349.352Z" fill="#5574FF"/>
</g>
<path d="M434.671 365.897V365.006L436.805 364.49V365.378L434.671 365.897ZM436.805 350.283V349.395L434.671 349.912V350.801L436.805 350.283Z" fill="#5574FF"/>
<path d="M451.672 355.9L451.108 356.074V375.616L455.389 380.212L455.952 380.037V360.497L451.672 355.9Z" fill="#5574FF"/>
<g opacity="0.8" style="mix-blend-mode:multiply">
<path d="M455.953 360.496L455.389 360.67V380.211L455.953 380.036V360.496Z" fill="#95A8FF"/>
</g>
<g opacity="0.5" style="mix-blend-mode:multiply">
<path d="M451.108 356.074L455.389 360.671V380.212L451.108 375.616V356.074Z" fill="#5574FF"/>
</g>
<path d="M452.036 374.816L451 373.722V372.833L452.036 373.946V374.816ZM452.036 358.853L451 357.738V358.627L452.036 359.743V358.853Z" fill="#5574FF"/>
<path opacity="0.4" d="M117.054 428.846C137.09 440.375 185.545 431.185 205.533 419.679L418.771 296.932C425.435 293.095 434.039 286.051 436.251 281.152L373.629 245.1C365.112 246.377 352.88 251.326 346.212 255.167L132.977 377.91C112.987 389.42 97.0171 417.312 117.054 428.846Z" fill="#95A8FF"/>
<path d="M436.057 237.352L374.592 201.971C366.234 203.221 354.23 208.082 347.686 211.855L294.378 242.536L280.543 265.869L126.251 354.691L112.417 347.283L102.683 352.885C94.2611 357.733 86.9473 367.341 82.4679 375.571C77.3553 384.963 76.0488 393.11 82.9837 399.823L82.9608 399.832C88.5556 406.275 118.948 418.281 131.821 419.053C131.821 419.053 131.825 419.053 131.829 419.044C149.841 421.672 188.408 417.422 203.553 408.7L410.508 289.57C425.734 280.798 435.43 245.32 436.057 237.352Z" fill="#5574FF"/>
<path d="M436.057 237.352L374.592 201.971C366.234 203.221 354.23 208.082 347.686 211.855L294.378 242.536L280.543 265.869L126.251 354.691L112.417 347.283L102.683 352.885C94.3255 357.696 87.8835 365.673 83.3904 373.829C78.1846 383.276 76.0017 393.059 82.9837 399.823L82.9609 399.832C88.5556 406.275 118.948 418.281 131.821 419.053C131.821 419.053 131.825 419.053 131.829 419.044C149.841 421.672 188.408 417.422 203.553 408.7L410.508 289.57C425.734 280.798 435.431 245.32 436.057 237.352Z" fill="#5574FF"/>
<path d="M347.399 223.07L300.253 250.208L286.42 272.361L125.963 364.73L174.577 392.714L183.345 387.673L197.177 395.085L351.469 306.263L365.304 282.925L418.612 252.235C418.612 252.235 353.942 219.302 347.399 223.07Z" fill="#2B51FF"/>
<path d="M82.4678 393.3C85.3928 383.126 94.6896 372.268 105.25 366.189L105.249 354.361C90.3414 362.945 77.9766 381.035 82.4678 393.3Z" fill="#2B51FF"/>
<path d="M82.4678 393.3C85.3928 383.126 94.6896 372.268 105.25 366.189L105.249 354.361C90.3414 362.945 77.9766 381.035 82.4678 393.3Z" fill="#95A8FF"/>
<path d="M156.839 398.637C161.336 397.13 165.418 395.467 168.849 393.726L102.944 355.789V367.616L156.839 398.637Z" fill="#2B51FF"/>
<path opacity="0.5" d="M156.839 398.637C161.336 397.13 165.418 395.467 168.849 393.726L102.944 355.789V367.616L156.839 398.637Z" fill="#95A8FF"/>
<path d="M102.944 367.618V367.613C93.359 373.867 85.179 383.875 82.4678 393.3C83.6357 396.479 85.9216 399.273 89.6145 401.401C103.843 409.593 135.137 405.908 156.832 398.634L102.944 367.618Z" fill="#2B51FF"/>
<path d="M168.848 393.727C169.715 393.29 170.552 392.849 171.327 392.399L105.249 354.361C104.472 354.812 103.704 355.294 102.944 355.79L168.848 393.727Z" fill="#2B51FF"/>
<path d="M436.057 237.354C434.117 246.966 412.904 288.183 381.851 306.068L410.507 289.571C425.734 280.799 435.431 245.321 436.057 237.354Z" fill="#4062FF"/>
<path opacity="0.5" d="M348.677 308.641L351.756 306.867L363.499 287.058L300.54 250.812L286.707 272.965L348.677 308.641Z" fill="#95A8FF"/>
<path d="M436.057 237.352L374.592 201.971C366.234 203.221 354.231 208.082 347.686 211.855L294.378 242.536L280.543 265.869L126.251 354.691L112.417 347.283L102.683 352.885C83.0624 364.179 67.3886 391.561 87.0516 402.879C106.717 414.196 154.277 405.171 173.894 393.877L183.632 388.276L197.464 395.688L351.756 306.866L365.591 283.528L418.899 252.838C425.442 249.079 433.887 242.168 436.057 237.352ZM171.327 392.397C152.551 403.205 107.535 411.715 89.6146 401.399C71.6969 391.083 86.473 365.172 105.249 354.36L114.983 348.758L128.82 356.17L283.11 267.348L296.946 244.015L350.254 213.329C353.913 211.22 359.324 208.785 364.697 206.892L427.508 243.05C424.222 246.142 419.987 249.258 416.332 251.367L363.021 282.048L349.189 305.391L194.898 394.208L181.064 386.796L171.327 392.397Z" fill="#95A8FF"/>
<path d="M413.512 235.267L359.736 204.311L333.095 219.649V242.114L382.749 270.7L413.507 252.99L413.512 235.267Z" fill="white"/>
<path opacity="0.2" d="M333.095 219.648V242.113L382.749 270.699L386.867 268.328V250.601L333.095 219.648Z" fill="#95A8FF"/>
<path opacity="0.2" d="M333.095 219.648V242.113L382.749 270.699L386.867 268.328V250.601L333.095 219.648Z" fill="#95A8FF"/>
<path d="M376.159 252.706L370.932 249.696V246.162L376.157 249.168L376.159 252.706ZM362.969 245.11L368.193 248.115V244.577L362.969 241.572V245.11ZM378.901 254.282L384.128 257.292V253.754L378.901 250.748V254.282Z" fill="#2B51FF"/>
<path d="M376.159 259.8L370.934 256.79L370.932 253.252L376.157 256.262L376.159 259.8ZM362.969 252.204L368.193 255.214V251.676L362.969 248.666V252.204ZM378.901 261.376L384.125 264.381L384.123 260.842L378.901 257.842L378.901 261.376Z" fill="#2B51FF"/>
<path opacity="0.4" d="M413.512 235.268L386.867 250.601V268.329L413.507 252.991L413.512 235.268Z" fill="#95A8FF"/>
<path d="M413.51 219.892L359.735 188.939L340.856 199.807V215.177L394.633 246.129L413.512 235.267L413.51 219.892Z" fill="white"/>
<path opacity="0.2" d="M340.856 199.807V215.177L394.633 246.129V230.759L340.856 199.807Z" fill="#95A8FF"/>
<path opacity="0.4" d="M394.633 230.76V246.13L413.512 235.267L413.51 219.893L394.633 230.76Z" fill="#95A8FF"/>
<path opacity="0.3" d="M403.965 216.745L382.136 204.178L369.771 211.295V213.662L391.602 226.225L403.965 219.107V216.745Z" fill="#95A8FF"/>
<path opacity="0.4" d="M391.6 223.862L391.602 226.224L403.965 219.106V216.744L391.6 223.862Z" fill="#95A8FF"/>
<path opacity="0.3" d="M369.771 211.295V213.661L391.602 226.224L391.6 223.862L369.771 211.295Z" fill="#95A8FF"/>
<path opacity="0.4" d="M348.279 228.389L348.281 250.854L370.725 263.78V241.31L348.279 228.389Z" fill="#95A8FF"/>
<path d="M343.631 203.234L331.847 210.017V260.865L354.291 273.786L366.077 266.999L366.075 216.156L343.631 203.234Z" fill="white"/>
<path opacity="0.4" d="M354.291 222.939V273.787L366.077 267L366.075 216.156L354.291 222.939Z" fill="#BBD9F9"/>
<path opacity="0.2" d="M331.847 210.018L354.291 222.939V273.787L331.847 260.866V210.018Z" fill="#DDECFC"/>
<path d="M388.153 214.981L325.136 178.703L309.767 187.548V199.376L372.786 235.649L388.155 226.804L388.153 214.981Z" fill="white"/>
<path opacity="0.2" d="M309.767 187.549V199.376L372.783 235.649L372.786 223.826L309.767 187.549Z" fill="#95A8FF"/>
<path opacity="0.4" d="M372.786 223.826L372.783 235.649H372.786L388.155 226.803L388.153 214.98L372.786 223.826Z" fill="#95A8FF"/>
<path d="M388.153 203.148L325.136 166.875L305.658 178.087L309.766 187.548L372.786 223.826L388.153 214.98V203.148Z" fill="white"/>
<path opacity="0.3" d="M305.658 178.086L309.766 187.547L372.786 223.825L368.674 214.364L305.658 178.086Z" fill="#95A8FF"/>
<path opacity="0.4" d="M368.674 214.365L372.786 223.826L388.153 214.981V203.148L368.674 214.365Z" fill="#95A8FF"/>
<path d="M131.829 419.146C149.841 421.765 184.832 420.662 213.822 403.968L410.507 290.752C417.305 286.837 422.996 276.415 427.276 266.674C424.315 272.73 420.752 277.808 415.924 280.587L203.553 402.838C189.378 410.995 147.265 419.523 127.153 418.438C127.669 418.59 131.018 419.073 131.82 419.146C131.82 419.146 131.829 419.237 131.829 419.146Z" fill="white"/>
<path opacity="0.4" d="M427.276 266.674C424.314 272.73 420.752 277.808 415.924 280.588L407.714 285.316C401.446 292.544 394.307 299.312 386.466 304.597L410.507 290.752C417.305 286.837 422.996 276.415 427.276 266.674Z" fill="#4062FF"/>
<path d="M329.572 193.902L347.133 204.011L348.869 208.008L331.31 197.895L329.572 193.902ZM350.58 205.996L352.313 209.989L369.015 219.606L367.278 215.604L350.58 205.996ZM326.127 191.921L309.428 182.309L311.168 186.306L327.865 195.919L326.127 191.921Z" fill="#2B51FF"/>
<path d="M405.544 251.676L410.77 248.666L410.767 252.204L405.544 255.214L405.544 251.676ZM397.575 259.8L402.802 256.79V253.252L397.575 256.261V259.8ZM394.833 257.842L389.609 260.847V264.381L394.833 261.376V257.842Z" fill="#2B51FF"/>
<path d="M405.544 244.581L410.767 241.576V245.109L405.544 248.115L405.544 244.581ZM397.575 252.701L402.802 249.691V246.162L397.575 249.167V252.701ZM394.833 250.748L389.609 253.753V257.291L394.833 254.281V250.748Z" fill="#2B51FF"/>
<path d="M314.806 199.044L311.545 197.169V194.164L314.806 196.043V199.044ZM367.743 226.518L367.745 229.514L371.004 231.388V228.392L367.743 226.518Z" fill="#2B51FF"/>
<path opacity="0.3" d="M350.599 183.255L328.768 170.697L316.403 177.815V180.181L338.234 192.744L350.599 185.627V183.255Z" fill="#95A8FF"/>
<path opacity="0.4" d="M338.234 190.383V192.745L350.599 185.627V183.256L338.234 190.383Z" fill="#95A8FF"/>
<path opacity="0.3" d="M316.403 177.814V180.181L338.234 192.744V190.382L316.403 177.814Z" fill="#95A8FF"/>
<path opacity="0.3" d="M381.037 200.786L370.702 194.836L358.337 201.954V204.315L368.674 210.266L381.037 203.148V200.786Z" fill="#95A8FF"/>
<path opacity="0.4" d="M368.674 207.9V210.266L381.037 203.149V200.787L368.674 207.9Z" fill="#95A8FF"/>
<path opacity="0.3" d="M358.337 201.953V204.315L368.674 210.265V207.899L358.337 201.953Z" fill="#95A8FF"/>
<path d="M394.529 205.932L392.821 206.915V214.281L396.075 216.156L397.782 215.172V207.802L394.529 205.932Z" fill="white"/>
<path opacity="0.4" d="M396.075 208.791V216.156L397.783 215.173V207.803L396.075 208.791Z" fill="#95A8FF"/>
<path opacity="0.2" d="M392.821 206.916L396.075 208.791V216.157L392.821 214.282V206.916Z" fill="#95A8FF"/>
<path d="M400.428 242.399L410.767 236.453V229.312L408.712 228.127L398.375 234.082V241.223L400.428 242.399Z" fill="white"/>
<path opacity="0.3" d="M400.428 235.263L398.375 234.082V241.222L400.428 242.399V235.263Z" fill="#95A8FF"/>
<path opacity="0.4" d="M400.428 235.263V242.399L410.767 236.453V229.312L400.428 235.263Z" fill="#95A8FF"/>
<path opacity="0.3" d="M141.414 391.53L131.075 385.584L118.711 392.697V395.063L129.052 401.009L141.414 393.896V391.53Z" fill="#95A8FF"/>
<path d="M129.052 398.647V401.009L141.413 393.896V391.529L129.052 398.647Z" fill="#95A8FF"/>
<path opacity="0.5" d="M118.711 392.697V395.063L129.052 401.009V398.648L118.711 392.697Z" fill="#95A8FF"/>
<path opacity="0.3" d="M113.344 385.12L103.006 379.174L90.6431 386.287L90.6445 388.653L100.982 394.604L113.344 387.486V385.12Z" fill="#95A8FF"/>
<path d="M100.982 392.242V394.603L113.344 387.486V385.119L100.982 392.242Z" fill="#95A8FF"/>
<path opacity="0.5" d="M90.6431 386.287L90.6445 388.653L100.982 394.604V392.242L90.6431 386.287Z" fill="#95A8FF"/>
<path d="M108.223 380.97L100.968 376.793L93.7417 380.952V385.689L101 389.861L108.223 385.703V380.97Z" fill="white"/>
<path opacity="0.4" d="M101 385.129V389.862L108.224 385.703V380.971L101 385.129Z" fill="#95A8FF"/>
<path opacity="0.2" d="M93.7417 380.951V385.689L101 389.861V385.128L93.7417 380.951Z" fill="#95A8FF"/>
<g clip-path="url(#clip1_13409_20028)">
<path d="M345.529 234.144C345.422 233.822 345.298 233.524 345.159 233.252C345.091 233.119 344.988 232.941 344.916 232.82C344.916 232.82 344.688 232.942 344.438 233.109C344.249 233.234 343.864 233.12 343.78 233.25C343.5 233.379 342.662 233.568 342.089 233.662L345.493 242.34L347.666 241.031L345.529 234.144Z" fill="#D5DCFF"/>
<path d="M343.125 226.476C344.922 231.052 343.52 233.663 343.52 233.663L345.693 232.353C345.982 232.223 346.229 232.024 346.433 231.757C346.636 231.489 346.796 231.16 346.911 230.768C347.026 230.377 347.095 229.928 347.115 229.42C347.143 228.754 347.087 228.09 346.948 227.425C346.808 226.761 346.569 226.112 346.227 225.477C345.886 224.842 345.438 224.235 344.88 223.656C344.323 223.076 343.644 222.54 342.841 222.048L338.401 220.266L336.479 221.42C336.479 221.42 342.217 224.164 343.125 226.476Z" fill="#D5DCFF"/>
<path d="M340.511 232.93C339.966 232.505 339.399 232.126 338.727 231.992L338.986 238.35L341.159 237.04L341.238 235.112C340.899 234.43 340.623 233.68 340.511 232.93Z" fill="#D5DCFF"/>
<path d="M340.863 231.252C341.579 231.204 342.456 231.225 342.674 230.3C342.735 230.041 342.762 229.786 342.776 229.527C342.699 229.488 342.327 230.127 342.244 230.076L337.989 227.551L336.41 228.561C337.116 228.823 340.168 230.987 340.863 231.252Z" fill="#D5DCFF"/>
<path d="M345.494 242.341L343.161 240.912C342.73 240.646 342.43 240.228 342.26 239.655L340.604 233.987C340.525 233.741 340.435 233.541 340.332 233.385C340.229 233.231 340.078 233.092 339.88 232.971L339.225 232.569L338.986 238.351L336.41 236.771V221.42L340.669 223.357C341.471 223.849 342.15 224.385 342.707 224.966C343.265 225.545 343.713 226.152 344.054 226.787C344.395 227.422 344.635 228.071 344.774 228.735C344.913 229.4 344.969 230.065 344.942 230.73C344.921 231.238 344.853 231.687 344.738 232.078C344.623 232.47 344.463 232.799 344.259 233.067C344.056 233.334 343.809 233.533 343.519 233.663C343.23 233.793 342.902 233.845 342.533 233.816C342.695 234.041 342.847 234.29 342.986 234.563C343.126 234.835 343.25 235.133 343.356 235.454L345.494 242.341ZM340.364 230.705C340.715 230.92 341.016 231.041 341.268 231.067C341.519 231.092 341.728 231.043 341.895 230.917C342.061 230.792 342.187 230.604 342.27 230.35C342.354 230.097 342.402 229.798 342.416 229.456C342.444 228.769 342.308 228.135 342.007 227.555C341.705 226.974 341.221 226.479 340.556 226.071L336.41 224.306V228.562L340.364 230.705Z" fill="#2B51FF"/>
</g>
<path d="M284.811 262.777L252.018 281.649V298.205L265.931 306.214L298.724 287.342V270.787L284.811 262.777Z" fill="white"/>
<path opacity="0.2" d="M265.931 306.214V289.662L252.018 281.648V298.204L265.931 306.214Z" fill="#95A8FF"/>
<path opacity="0.4" d="M298.725 287.343L265.932 306.215V289.663L298.725 270.787V287.343Z" fill="#95A8FF"/>
<path opacity="0.4" d="M298.724 270.787L284.811 262.777L252.018 281.649L265.931 289.663L298.724 270.787Z" fill="#95A8FF"/>
<path opacity="0.2" d="M298.724 270.787L284.811 262.777L252.018 281.649L265.931 289.663L298.724 270.787Z" fill="#95A8FF"/>
<path d="M300.776 271.973L267.987 290.845V307.4L281.899 315.409L314.689 296.533V279.972L300.776 271.973Z" fill="white"/>
<path opacity="0.2" d="M281.899 315.409L281.901 298.853L267.987 290.844V307.4L281.899 315.409Z" fill="#95A8FF"/>
<path opacity="0.4" d="M314.689 296.533L281.898 315.41L281.9 298.854L314.689 279.973V296.533Z" fill="#95A8FF"/>
<path opacity="0.4" d="M314.689 279.972L300.776 271.973L267.987 290.845L281.901 298.853L314.689 279.972Z" fill="#95A8FF"/>
<path opacity="0.2" d="M314.689 279.972L300.776 271.973L267.987 290.845L281.901 298.853L314.689 279.972Z" fill="#95A8FF"/>
<path d="M316.823 281.203L284.032 300.08V316.635L297.944 324.64L330.736 305.768V289.212L316.823 281.203Z" fill="white"/>
<path opacity="0.2" d="M297.944 324.64V308.089L284.032 300.08V316.636L297.944 324.64Z" fill="#95A8FF"/>
<path opacity="0.4" d="M330.736 305.768L297.943 324.64V308.089L330.736 289.213V305.768Z" fill="#95A8FF"/>
<path opacity="0.4" d="M330.736 289.212L316.823 281.203L284.032 300.08L297.944 308.089L330.736 289.212Z" fill="#95A8FF"/>
<path opacity="0.2" d="M330.736 289.212L316.823 281.203L284.032 300.08L297.944 308.089L330.736 289.212Z" fill="#95A8FF"/>
<path d="M346.7 306.729V298.403L332.792 290.398L299.999 309.27L299.997 325.83L306.762 329.723L346.7 306.729Z" fill="white"/>
<path opacity="0.2" d="M313.912 325.605V317.278L299.999 309.27L299.997 325.83L306.762 329.722L313.912 325.605Z" fill="#95A8FF"/>
<path opacity="0.4" d="M346.7 306.729V298.402L313.912 317.279V325.605L346.7 306.729Z" fill="#95A8FF"/>
<path opacity="0.4" d="M346.7 298.403L332.791 290.398L299.999 309.27L313.912 317.279L346.7 298.403Z" fill="#95A8FF"/>
<path opacity="0.2" d="M346.7 298.403L332.791 290.398L299.999 309.27L313.912 317.279L346.7 298.403Z" fill="#95A8FF"/>
<path d="M249.97 282.83L217.18 301.707L217.178 318.262L231.093 326.271L263.883 307.395V290.839L249.97 282.83Z" fill="white"/>
<path opacity="0.2" d="M231.093 326.272V309.716L217.18 301.707L217.178 318.263L231.093 326.272Z" fill="#95A8FF"/>
<path opacity="0.4" d="M263.883 307.395L231.093 326.272V309.716L263.883 290.84V307.395Z" fill="#95A8FF"/>
<path opacity="0.4" d="M263.883 290.839L249.97 282.83L217.18 301.707L231.093 309.715L263.883 290.839Z" fill="#95A8FF"/>
<path opacity="0.2" d="M263.883 290.839L249.97 282.83L217.18 301.707L231.093 309.715L263.883 290.839Z" fill="#95A8FF"/>
<path d="M265.939 292.02L233.147 310.901V327.452L247.061 335.461L279.85 316.589V300.034L265.939 292.02Z" fill="white"/>
<path opacity="0.2" d="M247.061 335.461V318.909L233.147 310.9V327.451L247.061 335.461Z" fill="#95A8FF"/>
<path opacity="0.4" d="M279.85 316.589L247.061 335.461V318.909L279.85 300.033V316.589Z" fill="#95A8FF"/>
<path opacity="0.4" d="M279.85 300.034L265.939 292.02L233.147 310.901L247.061 318.91L279.85 300.034Z" fill="#95A8FF"/>
<path opacity="0.2" d="M279.85 300.034L265.939 292.02L233.147 310.901L247.061 318.91L279.85 300.034Z" fill="#95A8FF"/>
<path d="M281.981 301.26L249.191 320.136V336.692L263.102 344.697L295.895 325.825V309.264L281.981 301.26Z" fill="white"/>
<path opacity="0.2" d="M263.102 344.697L263.104 328.146L249.191 320.137V336.693L263.102 344.697Z" fill="#95A8FF"/>
<path opacity="0.4" d="M295.894 325.824L263.102 344.696L263.104 328.144L295.894 309.264V325.824Z" fill="#95A8FF"/>
<path opacity="0.4" d="M295.895 309.264L281.981 301.26L249.191 320.136L263.104 328.145L295.895 309.264Z" fill="#95A8FF"/>
<path opacity="0.2" d="M295.895 309.264L281.981 301.26L249.191 320.136L263.104 328.145L295.895 309.264Z" fill="#95A8FF"/>
<path d="M311.864 326.786L311.862 318.46L297.948 310.451L265.16 329.328L265.157 345.883L271.923 349.775L311.864 326.786Z" fill="white"/>
<path opacity="0.2" d="M279.071 345.659V337.332L265.16 329.328L265.157 345.884L271.923 349.776L279.071 345.659Z" fill="#95A8FF"/>
<path opacity="0.4" d="M311.864 326.787L311.862 318.461L279.071 337.332V345.659L311.864 326.787Z" fill="#95A8FF"/>
<path opacity="0.4" d="M311.862 318.46L297.948 310.451L265.16 329.328L279.071 337.332L311.862 318.46Z" fill="#95A8FF"/>
<path opacity="0.2" d="M311.862 318.46L297.948 310.451L265.16 329.328L279.071 337.332L311.862 318.46Z" fill="#95A8FF"/>
<path d="M215.129 302.887L182.34 321.763V338.319L196.251 346.328L229.044 327.452L229.043 310.901L215.129 302.887Z" fill="white"/>
<path opacity="0.2" d="M196.251 346.329V329.773L182.34 321.764V338.319L196.251 346.329Z" fill="#95A8FF"/>
<path opacity="0.4" d="M229.044 327.451L196.251 346.328V329.772L229.043 310.9L229.044 327.451Z" fill="#95A8FF"/>
<path opacity="0.4" d="M229.043 310.901L215.129 302.887L182.34 321.763L196.251 329.772L229.043 310.901Z" fill="#95A8FF"/>
<path opacity="0.2" d="M229.043 310.901L215.129 302.887L182.34 321.763L196.251 329.772L229.043 310.901Z" fill="#95A8FF"/>
<path d="M231.096 312.082L198.307 330.954V347.509L212.219 355.523L245.011 336.647V320.086L231.096 312.082Z" fill="white"/>
<path opacity="0.2" d="M212.219 355.523V338.962L198.307 330.953V347.509L212.219 355.523Z" fill="#95A8FF"/>
<path opacity="0.4" d="M245.011 336.646L212.219 355.523V338.962L245.011 320.086V336.646Z" fill="#95A8FF"/>
<path opacity="0.4" d="M245.011 320.086L231.096 312.082L198.307 330.954L212.219 338.963L245.011 320.086Z" fill="#95A8FF"/>
<path opacity="0.2" d="M245.011 320.086L231.096 312.082L198.307 330.954L212.219 338.963L245.011 320.086Z" fill="#95A8FF"/>
<path d="M247.143 321.318L214.351 340.19L214.348 356.75L228.264 364.755L261.053 345.879V329.328L247.143 321.318Z" fill="white"/>
<path opacity="0.2" d="M228.264 364.754V348.198L214.351 340.189L214.348 356.75L228.264 364.754Z" fill="#95A8FF"/>
<path opacity="0.4" d="M261.053 345.879L228.264 364.756V348.2L261.053 329.328V345.879Z" fill="#95A8FF"/>
<path opacity="0.4" d="M261.053 329.328L247.143 321.318L214.351 340.19L228.264 348.199L261.053 329.328Z" fill="#95A8FF"/>
<path opacity="0.2" d="M261.053 329.328L247.143 321.318L214.351 340.19L228.264 348.199L261.053 329.328Z" fill="#95A8FF"/>
<path d="M277.022 346.839V338.517L263.109 330.508L230.318 349.384V365.935L237.082 369.837L277.022 346.839Z" fill="white"/>
<path opacity="0.2" d="M244.231 365.715V357.394L230.318 349.385V365.936L237.082 369.837L244.231 365.715Z" fill="#95A8FF"/>
<path opacity="0.4" d="M277.022 346.839V338.518L244.231 357.394V365.716L277.022 346.839Z" fill="#95A8FF"/>
<path opacity="0.4" d="M277.022 338.517L263.109 330.508L230.318 349.384L244.231 357.393L277.022 338.517Z" fill="#95A8FF"/>
<path opacity="0.2" d="M277.022 338.517L263.109 330.508L230.318 349.384L244.231 357.393L277.022 338.517Z" fill="#95A8FF"/>
<path d="M180.289 322.939L147.497 341.816V358.372L161.413 366.381L194.203 347.509V330.953L180.289 322.939Z" fill="white"/>
<path opacity="0.2" d="M161.413 366.381V349.825L147.497 341.816V358.372L161.413 366.381Z" fill="#95A8FF"/>
<path opacity="0.4" d="M194.204 347.509L161.413 366.381V349.825L194.204 330.953V347.509Z" fill="#95A8FF"/>
<path opacity="0.4" d="M194.203 330.953L180.289 322.939L147.497 341.816L161.413 349.825L194.203 330.953Z" fill="#95A8FF"/>
<path opacity="0.2" d="M194.203 330.953L180.289 322.939L147.497 341.816L161.413 349.825L194.203 330.953Z" fill="#95A8FF"/>
<path d="M196.257 332.135L163.466 351.011V367.567L177.378 375.576L210.169 356.7V340.144L196.257 332.135Z" fill="white"/>
<path opacity="0.2" d="M177.378 375.577V359.021L163.466 351.012V367.568L177.378 375.577Z" fill="#95A8FF"/>
<path opacity="0.4" d="M210.17 356.701L177.378 375.577V359.021L210.17 340.145V356.701Z" fill="#95A8FF"/>
<path opacity="0.4" d="M210.169 340.144L196.257 332.135L163.466 351.011L177.378 359.02L210.169 340.144Z" fill="#95A8FF"/>
<path opacity="0.2" d="M210.169 340.144L196.257 332.135L163.466 351.011L177.378 359.02L210.169 340.144Z" fill="#95A8FF"/>
<path d="M212.301 341.371L179.51 360.248V376.799L193.425 384.813L226.214 365.936V349.381L212.301 341.371Z" fill="white"/>
<path opacity="0.2" d="M193.425 384.813V368.253L179.51 360.248V376.799L193.425 384.813Z" fill="#95A8FF"/>
<path opacity="0.4" d="M226.214 365.936L193.425 384.813V368.252L226.214 349.381V365.936Z" fill="#95A8FF"/>
<path opacity="0.4" d="M226.214 349.381L212.301 341.371L179.51 360.248L193.425 368.252L226.214 349.381Z" fill="#95A8FF"/>
<path opacity="0.2" d="M226.214 349.381L212.301 341.371L179.51 360.248L193.425 368.252L226.214 349.381Z" fill="#95A8FF"/>
<path d="M242.183 366.896V358.569L228.27 350.561L195.48 369.437L195.478 385.993L202.245 389.885L242.183 366.896Z" fill="white"/>
<path opacity="0.2" d="M209.392 385.773V377.451L195.48 369.438L195.478 385.993L202.245 389.885L209.392 385.773Z" fill="#95A8FF"/>
<path opacity="0.4" d="M242.183 366.897V358.57L209.392 377.451V385.773L242.183 366.897Z" fill="#95A8FF"/>
<path opacity="0.4" d="M242.183 358.569L228.27 350.561L195.48 369.437L209.391 377.45L242.183 358.569Z" fill="#95A8FF"/>
<path opacity="0.2" d="M242.183 358.569L228.27 350.561L195.48 369.437L209.391 377.45L242.183 358.569Z" fill="#95A8FF"/>
<path d="M284.811 243.859L252.018 262.731V279.292L265.931 287.296L298.724 268.42V251.864L284.811 243.859Z" fill="white"/>
<path opacity="0.2" d="M265.931 287.296V270.739L252.018 262.73V279.291L265.931 287.296Z" fill="#95A8FF"/>
<path opacity="0.4" d="M298.725 268.419L265.932 287.296V270.739L298.725 251.863V268.419Z" fill="#95A8FF"/>
<path opacity="0.4" d="M298.724 251.864L284.811 243.859L252.018 262.731L265.931 270.74L298.724 251.864Z" fill="#95A8FF"/>
<path opacity="0.2" d="M298.724 251.864L284.811 243.859L252.018 262.731L265.931 270.74L298.724 251.864Z" fill="#95A8FF"/>
<path d="M300.778 253.049L267.987 271.921V288.476L281.899 296.486L314.689 277.609V261.058L300.778 253.049Z" fill="white"/>
<path opacity="0.2" d="M281.899 296.485V279.929L267.987 271.92V288.476L281.899 296.485Z" fill="#95A8FF"/>
<path opacity="0.4" d="M314.689 277.61L281.898 296.486V279.93L314.689 261.059V277.61Z" fill="#95A8FF"/>
<path opacity="0.4" d="M314.689 261.058L300.778 253.049L267.987 271.921L281.899 279.93L314.689 261.058Z" fill="#95A8FF"/>
<path opacity="0.2" d="M314.689 261.058L300.778 253.049L267.987 271.921L281.899 279.93L314.689 261.058Z" fill="#95A8FF"/>
<path d="M316.821 262.281L284.032 281.162V297.713L297.946 305.727L330.736 286.846V270.295L316.821 262.281Z" fill="white"/>
<path opacity="0.2" d="M297.946 305.727L297.944 289.166L284.032 281.162V297.713L297.946 305.727Z" fill="#95A8FF"/>
<path opacity="0.4" d="M330.736 286.846L297.946 305.727L297.944 289.166L330.736 270.295V286.846Z" fill="#95A8FF"/>
<path opacity="0.4" d="M330.736 270.295L316.821 262.281L284.032 281.162L297.944 289.167L330.736 270.295Z" fill="#95A8FF"/>
<path opacity="0.2" d="M330.736 270.295L316.821 262.281L284.032 281.162L297.944 289.167L330.736 270.295Z" fill="#95A8FF"/>
<path d="M249.972 263.912L217.178 282.789V299.344L231.093 307.353L263.883 288.472V271.917L249.972 263.912Z" fill="white"/>
<path opacity="0.2" d="M231.093 307.354V290.798L217.178 282.789V299.345L231.093 307.354Z" fill="#95A8FF"/>
<path opacity="0.4" d="M263.883 288.472L231.093 307.353V290.797L263.883 271.916V288.472Z" fill="#95A8FF"/>
<path opacity="0.4" d="M263.883 271.917L249.972 263.912L217.178 282.789L231.093 290.797L263.883 271.917Z" fill="#95A8FF"/>
<path opacity="0.2" d="M263.883 271.917L249.972 263.912L217.178 282.789L231.093 290.797L263.883 271.917Z" fill="#95A8FF"/>
<path d="M265.936 273.102L233.147 291.978V308.534L247.061 316.548L279.85 297.666V281.115L265.936 273.102Z" fill="white"/>
<path opacity="0.2" d="M247.061 316.548V299.988L233.147 291.979V308.534L247.061 316.548Z" fill="#95A8FF"/>
<path opacity="0.4" d="M279.851 297.666L247.061 316.548V299.987L279.851 281.115V297.666Z" fill="#95A8FF"/>
<path opacity="0.4" d="M279.85 281.115L265.936 273.102L233.147 291.978L247.061 299.987L279.85 281.115Z" fill="#95A8FF"/>
<path opacity="0.2" d="M279.85 281.115L265.936 273.102L233.147 291.978L247.061 299.987L279.85 281.115Z" fill="#95A8FF"/>
<path d="M281.981 282.334L249.191 301.215V317.771L263.104 325.78L295.895 306.903V290.343L281.981 282.334Z" fill="white"/>
<path opacity="0.2" d="M263.104 325.78V309.224L249.191 301.215V317.77L263.104 325.78Z" fill="#95A8FF"/>
<path opacity="0.4" d="M295.895 306.904L263.104 325.781V309.225L295.895 290.344V306.904Z" fill="#95A8FF"/>
<path opacity="0.4" d="M295.895 290.343L281.981 282.334L249.191 301.215L263.104 309.224L295.895 290.343Z" fill="#95A8FF"/>
<path opacity="0.2" d="M295.895 290.343L281.981 282.334L249.191 301.215L263.104 309.224L295.895 290.343Z" fill="#95A8FF"/>
<path d="M215.129 283.969L182.339 302.845L182.34 319.396L196.251 327.406L229.043 308.529L229.044 291.978L215.129 283.969Z" fill="white"/>
<path opacity="0.2" d="M196.251 327.406V310.85L182.339 302.846L182.34 319.397L196.251 327.406Z" fill="#95A8FF"/>
<path opacity="0.4" d="M229.043 308.53L196.251 327.406V310.85L229.044 291.979L229.043 308.53Z" fill="#95A8FF"/>
<path opacity="0.4" d="M229.044 291.978L215.129 283.969L182.339 302.845L196.251 310.85L229.044 291.978Z" fill="#95A8FF"/>
<path opacity="0.2" d="M229.044 291.978L215.129 283.969L182.339 302.845L196.251 310.85L229.044 291.978Z" fill="#95A8FF"/>
<path d="M231.096 293.16L198.307 312.037V328.588L212.219 336.601L245.01 317.725V301.169L231.096 293.16Z" fill="white"/>
<path opacity="0.2" d="M212.219 336.602V320.046L198.307 312.037V328.588L212.219 336.602Z" fill="#95A8FF"/>
<path opacity="0.4" d="M245.011 317.726L212.219 336.602V320.046L245.011 301.17V317.726Z" fill="#95A8FF"/>
<path opacity="0.4" d="M245.01 301.169L231.096 293.16L198.307 312.037L212.219 320.046L245.01 301.169Z" fill="#95A8FF"/>
<path opacity="0.2" d="M245.01 301.169L231.096 293.16L198.307 312.037L212.219 320.046L245.01 301.169Z" fill="#95A8FF"/>
<path d="M247.143 302.391L214.352 321.272L214.351 337.827L228.264 345.832L261.053 326.96V310.404L247.143 302.391Z" fill="white"/>
<path opacity="0.2" d="M228.264 345.832V329.285L214.352 321.271L214.351 337.827L228.264 345.832Z" fill="#95A8FF"/>
<path opacity="0.4" d="M261.053 326.96L228.264 345.832V329.285L261.053 310.404V326.96Z" fill="#95A8FF"/>
<path opacity="0.4" d="M261.053 310.404L247.143 302.391L214.352 321.272L228.264 329.285L261.053 310.404Z" fill="#95A8FF"/>
<path opacity="0.2" d="M261.053 310.404L247.143 302.391L214.352 321.272L228.264 329.285L261.053 310.404Z" fill="#95A8FF"/>
<path opacity="0.5" d="M244.231 355.027V338.476L230.318 330.467V347.022L244.231 355.027Z" fill="#CC4591"/>
<path d="M277.022 319.595L263.109 311.586L230.318 330.467L244.231 338.476L277.022 319.595Z" fill="#BD0F72"/>
<path d="M180.292 304.021L147.497 322.902V339.454L161.411 347.468L194.201 328.587V312.03L180.292 304.021Z" fill="white"/>
<path opacity="0.2" d="M161.411 347.467L161.413 330.907L147.497 322.902V339.454L161.411 347.467Z" fill="#95A8FF"/>
<path opacity="0.4" d="M194.202 328.587L161.411 347.468L161.413 330.908L194.202 312.031V328.587Z" fill="#95A8FF"/>
<path opacity="0.4" d="M194.201 312.03L180.292 304.021L147.497 322.902L161.413 330.907L194.201 312.03Z" fill="#95A8FF"/>
<path opacity="0.2" d="M194.201 312.03L180.292 304.021L147.497 322.902L161.413 330.907L194.201 312.03Z" fill="#95A8FF"/>
<path d="M196.257 313.217L163.466 332.089L163.465 348.644L177.376 356.653L210.169 337.777V321.221L196.257 313.217Z" fill="white"/>
<path opacity="0.2" d="M177.376 356.653L177.378 340.102L163.466 332.088L163.465 348.643L177.376 356.653Z" fill="#95A8FF"/>
<path opacity="0.4" d="M210.169 337.777L177.376 356.653L177.377 340.102L210.169 321.221V337.777Z" fill="#95A8FF"/>
<path opacity="0.4" d="M210.169 321.221L196.257 313.217L163.466 332.089L177.378 340.102L210.169 321.221Z" fill="#95A8FF"/>
<path opacity="0.2" d="M210.169 321.221L196.257 313.217L163.466 332.089L177.378 340.102L210.169 321.221Z" fill="#95A8FF"/>
<path d="M212.302 322.447L179.51 341.328V357.879L193.425 365.893L226.214 347.012L226.216 330.461L212.302 322.447Z" fill="white"/>
<path opacity="0.2" d="M193.425 365.893L193.422 349.337L179.51 341.328V357.879L193.425 365.893Z" fill="#95A8FF"/>
<path opacity="0.4" d="M226.214 347.012L193.425 365.893L193.422 349.337L226.216 330.461L226.214 347.012Z" fill="#95A8FF"/>
<path opacity="0.4" d="M226.216 330.461L212.302 322.447L179.51 341.328L193.422 349.337L226.216 330.461Z" fill="#95A8FF"/>
<path opacity="0.2" d="M226.216 330.461L212.302 322.447L179.51 341.328L193.422 349.337L226.216 330.461Z" fill="#95A8FF"/>
<path opacity="0.2" d="M279.071 334.966V318.419L265.157 310.41V326.961L279.071 334.966Z" fill="#95A8FF"/>
<path opacity="0.4" d="M311.862 299.538L297.95 291.529L265.157 310.41L279.071 318.419L311.862 299.538Z" fill="#95A8FF"/>
<path d="M277.022 336.15L244.231 355.026V338.475L277.022 319.594V336.15Z" fill="#BD0F72"/>
<path opacity="0.5" d="M277.022 319.593L263.109 311.584L230.318 330.465L244.231 338.474L277.022 319.593Z" fill="#D1579C"/>
<path d="M284.811 224.932L252.018 243.808V260.364L265.931 268.378L298.724 249.497V232.941L284.811 224.932Z" fill="white"/>
<path opacity="0.2" d="M265.931 268.378V251.822L252.018 243.809V260.364L265.931 268.378Z" fill="#95A8FF"/>
<path opacity="0.4" d="M298.725 249.497L265.932 268.378V251.822L298.725 232.941V249.497Z" fill="#95A8FF"/>
<path opacity="0.4" d="M298.724 232.941L284.811 224.932L252.018 243.808L265.931 251.822L298.724 232.941Z" fill="#95A8FF"/>
<path opacity="0.2" d="M298.724 232.941L284.811 224.932L252.018 243.808L265.931 251.822L298.724 232.941Z" fill="#95A8FF"/>
<path d="M300.778 234.127L267.987 253.008V269.559L281.901 277.563L314.689 258.692V242.131L300.778 234.127Z" fill="white"/>
<path opacity="0.2" d="M281.901 277.563L281.899 261.012L267.987 253.008V269.559L281.901 277.563Z" fill="#95A8FF"/>
<path opacity="0.4" d="M314.689 258.691L281.9 277.563L281.898 261.012L314.689 242.131V258.691Z" fill="#95A8FF"/>
<path opacity="0.4" d="M314.689 242.131L300.778 234.127L267.987 253.008L281.899 261.012L314.689 242.131Z" fill="#95A8FF"/>
<path opacity="0.2" d="M314.689 242.131L300.778 234.127L267.987 253.008L281.899 261.012L314.689 242.131Z" fill="#95A8FF"/>
<path d="M332.985 270.938L300.194 289.814V306.37L314.11 314.374L346.898 295.498V278.947L332.985 270.938Z" fill="white"/>
<path opacity="0.2" d="M314.11 314.375V297.819L300.194 289.814V306.37L314.11 314.375Z" fill="#95A8FF"/>
<path opacity="0.4" d="M346.898 295.499L314.109 314.375V297.819L346.898 278.947V295.499Z" fill="#95A8FF"/>
<path opacity="0.4" d="M346.898 278.947L332.985 270.938L300.194 289.814L314.11 297.818L346.898 278.947Z" fill="#95A8FF"/>
<path opacity="0.2" d="M346.898 278.947L332.985 270.938L300.194 289.814L314.11 297.818L346.898 278.947Z" fill="#95A8FF"/>
<path d="M249.97 244.988L217.178 263.869V280.42L231.093 288.43L263.883 269.558V252.997L249.97 244.988Z" fill="white"/>
<path opacity="0.2" d="M231.093 288.43V271.874L217.178 263.869V280.42L231.093 288.43Z" fill="#95A8FF"/>
<path opacity="0.4" d="M263.883 269.559L231.093 288.43V271.874L263.883 252.998V269.559Z" fill="#95A8FF"/>
<path opacity="0.4" d="M263.883 252.997L249.97 244.988L217.178 263.869L231.093 271.874L263.883 252.997Z" fill="#95A8FF"/>
<path opacity="0.2" d="M263.883 252.997L249.97 244.988L217.178 263.869L231.093 271.874L263.883 252.997Z" fill="#95A8FF"/>
<path d="M265.939 254.18L233.147 273.056V289.616L247.061 297.621L279.85 278.749V262.189L265.939 254.18Z" fill="white"/>
<path opacity="0.2" d="M247.061 297.622V281.066L233.147 273.057V289.617L247.061 297.622Z" fill="#95A8FF"/>
<path opacity="0.4" d="M279.85 278.75L247.061 297.622V281.066L279.85 262.189V278.75Z" fill="#95A8FF"/>
<path opacity="0.4" d="M279.85 262.189L265.939 254.18L233.147 273.056L247.061 281.065L279.85 262.189Z" fill="#95A8FF"/>
<path opacity="0.2" d="M279.85 262.189L265.939 254.18L233.147 273.056L247.061 281.065L279.85 262.189Z" fill="#95A8FF"/>
<path d="M281.981 263.42L249.191 282.296L249.191 298.852L263.104 306.857L295.895 287.985V271.429L281.981 263.42Z" fill="white"/>
<path opacity="0.2" d="M263.104 306.857L263.102 290.306L249.191 282.297L249.191 298.852L263.104 306.857Z" fill="#95A8FF"/>
<path opacity="0.4" d="M295.895 287.986L263.105 306.858L263.103 290.306L295.895 271.43V287.986Z" fill="#95A8FF"/>
<path opacity="0.4" d="M295.895 271.429L281.981 263.42L249.191 282.296L263.102 290.305L295.895 271.429Z" fill="#95A8FF"/>
<path opacity="0.2" d="M295.895 271.429L281.981 263.42L249.191 282.296L263.102 290.305L295.895 271.429Z" fill="#95A8FF"/>
<path d="M215.129 265.047L182.339 283.923L182.34 300.479L196.251 308.484L229.044 289.612L229.043 273.056L215.129 265.047Z" fill="white"/>
<path opacity="0.2" d="M196.251 308.484V291.933L182.339 283.924L182.34 300.479L196.251 308.484Z" fill="#95A8FF"/>
<path opacity="0.4" d="M229.044 289.613L196.251 308.484V291.933L229.043 273.057L229.044 289.613Z" fill="#95A8FF"/>
<path opacity="0.4" d="M229.043 273.056L215.129 265.047L182.339 283.923L196.251 291.932L229.043 273.056Z" fill="#95A8FF"/>
<path opacity="0.2" d="M229.043 273.056L215.129 265.047L182.339 283.923L196.251 291.932L229.043 273.056Z" fill="#95A8FF"/>
<path d="M297.95 291.527L265.157 310.408V326.959L279.071 334.964L311.862 316.097V299.536L297.95 291.527Z" fill="white"/>
<path d="M231.096 274.24L198.307 293.112V309.668L212.219 317.677L245.01 298.801V282.245L231.096 274.24Z" fill="white"/>
<path opacity="0.2" d="M212.219 317.676V301.125L198.307 293.111V309.667L212.219 317.676Z" fill="#95A8FF"/>
<path opacity="0.4" d="M245.011 298.8L212.219 317.676V301.125L245.011 282.244V298.8Z" fill="#95A8FF"/>
<path opacity="0.4" d="M245.01 282.245L231.096 274.24L198.307 293.112L212.219 301.126L245.01 282.245Z" fill="#95A8FF"/>
<path opacity="0.2" d="M245.01 282.245L231.096 274.24L198.307 293.112L212.219 301.126L245.01 282.245Z" fill="#95A8FF"/>
<path d="M247.143 283.473L214.351 302.349L214.352 318.909L228.264 326.919L261.053 308.038V291.482L247.143 283.473Z" fill="white"/>
<path opacity="0.2" d="M228.264 326.919V310.359L214.351 302.35L214.352 318.91L228.264 326.919Z" fill="#95A8FF"/>
<path opacity="0.4" d="M261.053 308.038L228.264 326.919V310.359L261.053 291.482V308.038Z" fill="#95A8FF"/>
<path opacity="0.4" d="M261.053 291.482L247.143 283.473L214.351 302.349L228.264 310.358L261.053 291.482Z" fill="#95A8FF"/>
<path opacity="0.2" d="M261.053 291.482L247.143 283.473L214.351 302.349L228.264 310.358L261.053 291.482Z" fill="#95A8FF"/>
<path opacity="0.4" d="M311.862 316.096L279.071 334.963V318.416L311.862 299.535V316.096Z" fill="#95A8FF"/>
<path opacity="0.2" d="M311.862 299.536L297.95 291.527L265.157 310.408L279.071 318.417L311.862 299.536Z" fill="#95A8FF"/>
<path d="M180.292 285.104L147.497 303.98V320.536L161.413 328.545L194.201 309.664L194.203 293.112L180.292 285.104Z" fill="white"/>
<path opacity="0.2" d="M161.413 328.546V311.99L147.497 303.98V320.536L161.413 328.546Z" fill="#95A8FF"/>
<path opacity="0.4" d="M194.202 309.665L161.413 328.546V311.99L194.204 293.113L194.202 309.665Z" fill="#95A8FF"/>
<path opacity="0.4" d="M194.203 293.112L180.292 285.104L147.497 303.98L161.413 311.989L194.203 293.112Z" fill="#95A8FF"/>
<path opacity="0.2" d="M194.203 293.112L180.292 285.104L147.497 303.98L161.413 311.989L194.203 293.112Z" fill="#95A8FF"/>
<path d="M196.257 294.293L163.466 313.174L163.463 329.72L177.378 337.734L210.169 318.853V302.302L196.257 294.293Z" fill="white"/>
<path opacity="0.2" d="M177.378 337.734V321.179L163.466 313.174L163.463 329.721L177.378 337.734Z" fill="#95A8FF"/>
<path opacity="0.4" d="M210.17 318.854L177.378 337.735V321.179L210.17 302.303V318.854Z" fill="#95A8FF"/>
<path opacity="0.4" d="M210.169 302.302L196.257 294.293L163.466 313.174L177.378 321.178L210.169 302.302Z" fill="#95A8FF"/>
<path opacity="0.2" d="M210.169 302.302L196.257 294.293L163.466 313.174L177.378 321.178L210.169 302.302Z" fill="#95A8FF"/>
<path d="M212.302 303.529L179.51 322.401V338.961L193.423 346.971L226.214 328.094V311.538L212.302 303.529Z" fill="white"/>
<path opacity="0.2" d="M193.423 346.97L193.425 330.414L179.51 322.4V338.961L193.423 346.97Z" fill="#95A8FF"/>
<path opacity="0.4" d="M226.215 328.095L193.423 346.971L193.425 330.416L226.215 311.539V328.095Z" fill="#95A8FF"/>
<path opacity="0.4" d="M226.214 311.538L212.302 303.529L179.51 322.401L193.425 330.415L226.214 311.538Z" fill="#95A8FF"/>
<path opacity="0.2" d="M226.214 311.538L212.302 303.529L179.51 322.401L193.425 330.415L226.214 311.538Z" fill="#95A8FF"/>
<path d="M263.109 311.584L230.318 330.465V347.021L244.231 355.025L277.022 336.149V319.593L263.109 311.584Z" fill="#BD0F72"/>
<path d="M284.811 206.02L252.019 224.891V241.447L265.932 249.456L298.725 230.58V214.028L284.811 206.02Z" fill="white"/>
<path opacity="0.2" d="M265.932 249.455V232.904L252.019 224.891V241.446L265.932 249.455Z" fill="#95A8FF"/>
<path opacity="0.4" d="M298.725 230.581L265.932 249.457V232.906L298.725 214.029V230.581Z" fill="#95A8FF"/>
<path d="M332.985 252.016L300.194 270.892V287.448L314.11 295.452L346.898 276.585V260.025L332.985 252.016Z" fill="#D1579C"/>
<path opacity="0.5" d="M314.11 295.453V278.897L300.194 270.893V287.449L314.11 295.453Z" fill="#BD0F72"/>
<path d="M346.898 276.586L314.109 295.453V278.897L346.898 260.025V276.586Z" fill="#BD0F72"/>
<path d="M297.948 272.615L265.157 291.487L265.16 308.043L279.071 316.052L311.862 297.171L311.864 280.62L297.948 272.615Z" fill="white"/>
<path opacity="0.2" d="M279.071 316.051L279.073 299.496L265.157 291.486L265.16 308.042L279.071 316.051Z" fill="#95A8FF"/>
<path opacity="0.4" d="M311.862 297.171L279.071 316.051L279.073 299.496L311.864 280.619L311.862 297.171Z" fill="#95A8FF"/>
<path opacity="0.4" d="M311.864 280.62L297.948 272.615L265.157 291.487L279.073 299.496L311.864 280.62Z" fill="#95A8FF"/>
<path opacity="0.2" d="M311.864 280.62L297.948 272.615L265.157 291.487L279.073 299.496L311.864 280.62Z" fill="#95A8FF"/>
<path d="M265.939 235.268L233.147 254.139V270.695L247.061 278.699L279.85 259.828V243.277L265.939 235.268Z" fill="#5574FF"/>
<path opacity="0.5" d="M247.061 278.699V262.148L233.147 254.139V270.695L247.061 278.699Z" fill="#5574FF"/>
<path d="M279.85 259.829L247.061 278.7V262.149L279.85 243.277V259.829Z" fill="#2B51FF"/>
<path d="M281.982 244.498L249.192 263.374V279.93L263.103 287.939L295.895 269.063V252.512L281.982 244.498Z" fill="white"/>
<path opacity="0.2" d="M263.103 287.94L263.105 271.384L249.192 263.375V279.931L263.103 287.94Z" fill="#95A8FF"/>
<path opacity="0.4" d="M295.895 269.063L263.103 287.94L263.105 271.384L295.895 252.512V269.063Z" fill="#95A8FF"/>
<path d="M297.948 253.693L265.16 272.565L265.157 289.121L279.071 297.13L311.864 278.258L311.862 261.698L297.948 253.693Z" fill="white"/>
<path opacity="0.2" d="M279.071 297.129V280.578L265.16 272.564L265.157 289.12L279.071 297.129Z" fill="#95A8FF"/>
<path opacity="0.4" d="M311.864 278.258L279.071 297.129V280.578L311.862 261.697L311.864 278.258Z" fill="#95A8FF"/>
<path d="M215.129 246.125L182.34 265.001V281.557L196.252 289.571L229.045 270.69L229.043 254.138L215.129 246.125Z" fill="white"/>
<path opacity="0.2" d="M196.252 289.571V273.011L182.34 265.002V281.558L196.252 289.571Z" fill="#95A8FF"/>
<path opacity="0.4" d="M229.045 270.69L196.252 289.571V273.011L229.044 254.139L229.045 270.69Z" fill="#95A8FF"/>
<path d="M231.096 255.32L198.307 274.197V290.757L212.219 298.761L245.011 279.885V263.329L231.096 255.32Z" fill="white"/>
<path opacity="0.2" d="M212.219 298.762V282.207L198.307 274.197V290.758L212.219 298.762Z" fill="#95A8FF"/>
<path opacity="0.4" d="M245.011 279.886L212.219 298.762V282.206L245.011 263.33V279.886Z" fill="#95A8FF"/>
<path d="M247.143 264.551L214.351 283.427V299.983L228.265 307.996L261.053 289.12V272.564L247.143 264.551Z" fill="white"/>
<path opacity="0.2" d="M228.265 307.997V291.442L214.351 283.428V299.984L228.265 307.997Z" fill="#95A8FF"/>
<path opacity="0.4" d="M261.054 289.12L228.265 307.997V291.441L261.054 272.564V289.12Z" fill="#95A8FF"/>
<path d="M262.468 293.16L229.678 312.041V328.592L243.591 336.601L276.381 317.725V301.169L262.468 293.16Z" fill="white"/>
<path opacity="0.2" d="M243.591 336.602V320.05L229.678 312.041V328.592L243.591 336.602Z" fill="#95A8FF"/>
<path opacity="0.4" d="M276.382 317.726L243.591 336.602V320.051L276.382 301.17V317.726Z" fill="#95A8FF"/>
<path d="M228.209 331.328L195.418 350.209V366.76L209.331 374.769L242.122 355.893V339.337L228.209 331.328Z" fill="white"/>
<path opacity="0.2" d="M209.331 374.77V358.218L195.418 350.209V366.76L209.331 374.77Z" fill="#95A8FF"/>
<path opacity="0.4" d="M242.122 355.894L209.331 374.77V358.219L242.122 339.338V355.894Z" fill="#95A8FF"/>
<path d="M196.257 275.373L163.466 294.254V310.81L177.378 318.819L210.169 299.938V283.382L196.257 275.373Z" fill="white"/>
<path opacity="0.2" d="M177.378 318.819V302.263L163.466 294.254V310.81L177.378 318.819Z" fill="#95A8FF"/>
<path opacity="0.4" d="M210.17 299.938L177.378 318.82V302.264L210.17 283.383V299.938Z" fill="#95A8FF"/>
<path d="M212.302 284.613L179.51 303.485V320.041L193.423 328.05L226.214 309.178V292.618L212.302 284.613Z" fill="#D1579C"/>
<path opacity="0.5" d="M193.423 328.049V311.498L179.51 303.484V320.04L193.423 328.049Z" fill="#C73387"/>
<path d="M226.215 309.178L193.423 328.049V311.498L226.215 292.617V309.178Z" fill="#BD0F72"/>
<path d="M477.5 400.875C480.449 400.875 483.033 401.725 484.829 402.997C486.63 404.272 487.5 405.849 487.5 407.375C487.5 408.901 486.63 410.478 484.829 411.753C483.033 413.025 480.449 413.875 477.5 413.875C474.551 413.875 471.967 413.025 470.171 411.753C468.37 410.478 467.5 408.901 467.5 407.375C467.5 405.849 468.37 404.272 470.171 402.997C471.967 401.725 474.551 400.875 477.5 400.875Z" stroke="#D5DCFF" stroke-width="4"/>
</g>
<defs>
<linearGradient id="paint0_linear_13409_20028" x1="272.5" y1="2.38208e-07" x2="272.5" y2="458" gradientUnits="userSpaceOnUse">
<stop stop-color="#9FB6FF"/>
<stop offset="1" stop-color="#EDF2FF"/>
</linearGradient>
<linearGradient id="paint1_linear_13409_20028" x1="71.5" y1="9.80801e-06" x2="366" y2="550" gradientUnits="userSpaceOnUse">
<stop stop-color="#1B7CFD"/>
<stop offset="1" stop-color="#EDF2FF"/>
</linearGradient>
<linearGradient id="paint2_linear_13409_20028" x1="192.144" y1="409.742" x2="192.144" y2="78.9798" gradientUnits="userSpaceOnUse">
<stop stop-color="#00636C"/>
<stop offset="1" stop-color="#009DB2"/>
</linearGradient>
<linearGradient id="paint3_linear_13409_20028" x1="184.093" y1="100.116" x2="184.093" y2="451.366" gradientUnits="userSpaceOnUse">
<stop stop-color="#7FDFBA"/>
<stop offset="1" stop-color="#008584"/>
</linearGradient>
<linearGradient id="paint4_linear_13409_20028" x1="174.289" y1="100.116" x2="174.289" y2="451.384" gradientUnits="userSpaceOnUse">
<stop stop-color="#7FDFBA"/>
<stop offset="1" stop-color="#008584"/>
</linearGradient>
<linearGradient id="paint5_linear_13409_20028" x1="190.504" y1="100.114" x2="190.504" y2="451.384" gradientUnits="userSpaceOnUse">
<stop stop-color="#7FDFBA"/>
<stop offset="1" stop-color="#008584"/>
</linearGradient>
<linearGradient id="paint6_linear_13409_20028" x1="203.513" y1="100.119" x2="203.513" y2="451.368" gradientUnits="userSpaceOnUse">
<stop stop-color="#7FDFBA"/>
<stop offset="1" stop-color="#008584"/>
</linearGradient>
<linearGradient id="paint7_linear_13409_20028" x1="308.031" y1="100.116" x2="308.031" y2="451.366" gradientUnits="userSpaceOnUse">
<stop stop-color="#7FDFBA"/>
<stop offset="1" stop-color="#008584"/>
</linearGradient>
<linearGradient id="paint8_linear_13409_20028" x1="308.432" y1="100.115" x2="308.432" y2="451.364" gradientUnits="userSpaceOnUse">
<stop stop-color="#7FDFBA"/>
<stop offset="1" stop-color="#008584"/>
</linearGradient>
<linearGradient id="paint9_linear_13409_20028" x1="299.466" y1="100.116" x2="299.466" y2="451.365" gradientUnits="userSpaceOnUse">
<stop stop-color="#7FDFBA"/>
<stop offset="1" stop-color="#008584"/>
</linearGradient>
<linearGradient id="paint10_linear_13409_20028" x1="238.136" y1="48.6689" x2="221.197" y2="104.295" gradientUnits="userSpaceOnUse">
<stop stop-color="white"/>
<stop offset="0.22" stop-color="white" stop-opacity="0.76"/>
<stop offset="0.6" stop-color="white" stop-opacity="0.36"/>
<stop offset="0.87" stop-color="white" stop-opacity="0.1"/>
<stop offset="1" stop-color="white" stop-opacity="0"/>
</linearGradient>
<linearGradient id="paint11_linear_13409_20028" x1="282.775" y1="31.2357" x2="271.768" y2="-173.909" gradientUnits="userSpaceOnUse">
<stop stop-color="#9BDBD8"/>
<stop offset="1" stop-color="white"/>
</linearGradient>
<linearGradient id="paint12_linear_13409_20028" x1="359.289" y1="170.547" x2="299.275" y2="253.548" gradientUnits="userSpaceOnUse">
<stop stop-color="#9BDBD8"/>
<stop offset="1" stop-color="white"/>
</linearGradient>
<clipPath id="clip0_13409_20028">
<rect width="601" height="458" fill="white"/>
</clipPath>
<clipPath id="clip1_13409_20028">
<rect width="11.2565" height="22.5085" fill="white" transform="translate(336.41 219.832)"/>
</clipPath>
</defs>
</svg>
