<svg width="24" height="24" viewBox="0 0 24 24" fill="none" xmlns="http://www.w3.org/2000/svg">
<path d="M20.9788 9.69141C20.0099 5.28208 16.3197 2.0004 11.9154 2.0004C7.51109 2.0004 3.82095 5.28208 2.85205 9.69141" stroke="#2B51FF" stroke-width="1.5" stroke-miterlimit="10" stroke-linecap="round" stroke-linejoin="round"/>
<path d="M21.9999 7.71002L21.0753 9.80469L19.1235 8.81241" stroke="#2B51FF" stroke-width="1.5" stroke-miterlimit="10" stroke-linecap="round" stroke-linejoin="round"/>
<path d="M2.85205 14.309C3.82095 18.7183 7.51109 22 11.9154 22C16.3197 22 20.0099 18.7183 20.9788 14.309" stroke="#2B51FF" stroke-width="1.5" stroke-miterlimit="10" stroke-linecap="round" stroke-linejoin="round"/>
<path d="M2 16.2891L2.92458 14.1944L4.87628 15.1867" stroke="#2B51FF" stroke-width="1.5" stroke-miterlimit="10" stroke-linecap="round" stroke-linejoin="round"/>
<path d="M15.7223 11.5167C15.7223 14.6054 12 17.1094 12 17.1094C12 17.1094 8.27783 14.6054 8.27783 11.5167C8.27783 8.4279 12 5.92397 12 5.92397C12 5.92397 15.7223 8.4279 15.7223 11.5167Z" stroke="#2B51FF" stroke-width="1.5" stroke-miterlimit="10" stroke-linecap="round" stroke-linejoin="round"/>
<path d="M12 10.4029V18.0762" stroke="#2B51FF" stroke-width="1.5" stroke-miterlimit="10" stroke-linecap="round" stroke-linejoin="round"/>
<path d="M12.0337 13.1426L13.2726 11.8144" stroke="#2B51FF" stroke-width="1.5" stroke-miterlimit="10" stroke-linecap="round" stroke-linejoin="round"/>
</svg>
