<svg width="52" height="52" viewBox="0 0 52 52" fill="none" xmlns="http://www.w3.org/2000/svg">
<path d="M12.5 32.8325C12.5021 33.4096 12.7279 33.9635 13.13 34.3774C12.6624 34.7184 12.0608 35.3745 11.4875 34.8125L8.18004 31.5125C8.05269 31.3841 7.97579 31.2142 7.96339 31.0338C7.951 30.8534 8.00394 30.6746 8.11254 30.53L9.38004 28.8425C8.63547 27.6105 8.0817 26.2728 7.73755 24.875L5.64505 24.575C5.46671 24.5484 5.30375 24.4589 5.1855 24.3228C5.06725 24.1867 5.00147 24.0128 5 23.8325V19.16C5.00264 18.98 5.06883 18.8068 5.18686 18.6709C5.3049 18.5351 5.46717 18.4453 5.645 18.4175L7.7375 18.1175C8.08166 16.7197 8.63543 15.3821 9.38 14.15L8.1125 12.4625C8.0039 12.3179 7.95096 12.1391 7.96335 11.9587C7.97575 11.7783 8.05265 11.6084 8.18 11.48L11.4875 8.18002C11.6144 8.05287 11.7831 7.97597 11.9624 7.96357C12.1416 7.95116 12.3193 8.00407 12.4625 8.11252L14.1575 9.38002C15.3874 8.6311 16.7257 8.07704 18.125 7.73752L18.425 5.63752C18.4509 5.45949 18.5403 5.29684 18.6768 5.17965C18.8133 5.06246 18.9876 4.99865 19.1675 5.00002H23.8325C24.0124 4.99863 24.1867 5.06244 24.3232 5.17963C24.4597 5.29683 24.5492 5.45948 24.575 5.63752L24.875 7.73752C26.2743 8.07704 27.6127 8.6311 28.8425 9.38002L30.5375 8.11252C30.6807 8.00407 30.8584 7.95116 31.0376 7.96357C31.2169 7.97597 31.3856 8.05287 31.5125 8.18002L34.8199 11.48C35.3885 12.0411 34.7157 12.6785 34.3925 13.1225L33.62 14.15C34.3645 15.3821 34.9183 16.7197 35.2625 18.1175L37.355 18.4175C37.5328 18.4453 37.6951 18.5351 37.8131 18.6709C37.9312 18.8068 37.9974 18.98 38 19.16V23.8325C37.9985 24.0128 37.9328 24.1867 37.8145 24.3228C37.6963 24.4589 37.5333 24.5484 37.355 24.575L35.2625 24.875C34.9147 26.2716 34.3612 27.6088 33.62 28.8425L34.8875 30.53C34.9961 30.6746 35.049 30.8534 35.0366 31.0338C35.0243 31.2142 34.9474 31.3841 34.82 31.5125L31.5125 34.8125C31.3856 34.9397 31.2169 35.0165 31.0376 35.0289C30.8584 35.0414 30.6807 34.9884 30.5375 34.88L28.8425 33.6125C27.7961 34.2509 26.6685 34.7453 25.49 35.0825C24.8058 34.3318 24.2974 33.4382 24.0016 32.4665C23.7058 31.4949 23.6301 30.4696 23.7799 29.465C32.9627 26.6434 31.0556 13.3778 21.5001 13.2051C15.057 13.1124 10.9813 20.5737 14.4875 25.925C13.9407 25.9912 13.4369 26.2548 13.0709 26.6664C12.7048 27.078 12.5018 27.6092 12.5 28.16V32.8325ZM46.355 27.4175L44.2625 27.1175C43.9183 25.7197 43.3646 24.3821 42.62 23.15L43.8875 21.4625C43.9961 21.3179 44.0491 21.1391 44.0367 20.9587C44.0243 20.7783 43.9474 20.6084 43.82 20.48L40.5125 17.18C39.9421 16.6211 39.3441 17.2675 38.8775 17.6075C39.2788 18.0245 39.5021 18.5813 39.5 19.16V23.8325C39.4968 24.3738 39.2999 24.896 38.945 25.3046C38.59 25.7132 38.1005 25.9812 37.565 26.06C38.3319 27.4172 38.7542 28.9417 38.7948 30.5001C38.5989 40.104 25.2993 41.9075 22.5275 32.7723C21.9374 30.6602 22.2032 28.4006 23.2673 26.4831C24.3314 24.5655 26.1081 23.1444 28.2126 22.5276C28.3688 21.5235 28.2969 20.4971 28.0021 19.5246C27.7074 18.5521 27.1974 17.6584 26.51 16.91C25.3315 17.2471 24.2039 17.7416 23.1575 18.38L21.4625 17.1125C21.3193 17.004 21.1416 16.9511 20.9623 16.9635C20.7831 16.9759 20.6144 17.0528 20.4875 17.18L17.18 20.48C17.0526 20.6084 16.9757 20.7783 16.9633 20.9587C16.9509 21.1391 17.0039 21.3179 17.1125 21.4625L18.38 23.15C17.6384 24.3836 17.0848 25.7207 16.7375 27.1175L14.7875 27.395C14.5596 27.4082 14.3451 27.5074 14.1875 27.6725C14.0661 27.8058 13.9992 27.9798 14 28.16V32.8325C14.004 32.949 14.0337 33.0631 14.0868 33.1668C14.14 33.2705 14.2153 33.3612 14.3075 33.4325C14.4138 33.6247 16.5231 33.8154 16.7376 33.875C17.0817 35.2728 17.6355 36.6105 18.38 37.8425L17.1125 39.53C17.0039 39.6746 16.951 39.8534 16.9634 40.0338C16.9757 40.2142 17.0527 40.3841 17.18 40.5125L20.4875 43.8125C20.6145 43.9397 20.7831 44.0166 20.9624 44.029C21.1416 44.0414 21.3193 43.9885 21.4625 43.88L23.1575 42.6125C24.3874 43.3614 25.7257 43.9155 27.125 44.255L27.4251 46.355C27.4506 46.5338 27.5397 46.6975 27.6761 46.8159C27.8124 46.9344 27.9869 46.9997 28.1676 47H32.8325C33.0131 46.9997 33.1876 46.9344 33.324 46.8159C33.4604 46.6975 33.5495 46.5338 33.575 46.355L33.875 44.255C35.2743 43.9155 36.6127 43.3614 37.8425 42.6125L39.5375 43.88C39.6807 43.9885 39.8584 44.0414 40.0377 44.029C40.2169 44.0166 40.3856 43.9397 40.5125 43.8125L43.82 40.5125C43.9474 40.3841 44.0243 40.2142 44.0367 40.0338C44.0491 39.8534 43.9961 39.6746 43.8875 39.53L42.62 37.8425C43.3646 36.6105 43.9183 35.2728 44.2625 33.875L46.355 33.575C46.5333 33.5483 46.6963 33.4589 46.8145 33.3228C46.9328 33.1867 46.9985 33.0128 47 32.8325V28.16C46.9974 27.98 46.9312 27.8068 46.8132 27.6709C46.6951 27.535 46.5328 27.4453 46.355 27.4175Z" fill="#2B51FF"/>
</svg>
