<svg width="32" height="32" viewBox="0 0 32 32" fill="none" xmlns="http://www.w3.org/2000/svg">
<path d="M10.394 15.9995C10.394 12.9035 12.9039 10.3936 16 10.3936C19.0961 10.3936 21.6059 12.9035 21.6059 15.9995C21.6059 19.0956 19.0961 21.6055 16 21.6055C12.9039 21.6055 10.394 19.0956 10.394 15.9995Z" stroke="#2B51FF" stroke-width="2" stroke-miterlimit="10" stroke-linecap="round" stroke-linejoin="round"/>
<path d="M13.967 15.9995C13.967 12.9035 14.8773 10.3936 16.0002 10.3936C17.1231 10.3936 18.0333 12.9035 18.0333 15.9995C18.0333 19.0956 17.1231 21.6055 16.0002 21.6055C14.8773 21.6055 13.967 19.0956 13.967 15.9995Z" stroke="#2B51FF" stroke-width="2" stroke-miterlimit="10" stroke-linecap="round" stroke-linejoin="round"/>
<path d="M10.394 16H21.6059" stroke="#2B51FF" stroke-width="2" stroke-miterlimit="10" stroke-linecap="round" stroke-linejoin="round"/>
<path d="M25.543 21.4982C25.1049 21.06 24.9828 20.4019 25.2204 19.8296C25.223 19.8233 25.2256 19.8171 25.2282 19.8108C25.4646 19.2385 26.0164 18.8602 26.6357 18.8602H27.2119C28.4756 18.8602 29.5 17.8358 29.5 16.572V15.428C29.5 14.1643 28.4756 13.1398 27.2119 13.1398H26.6357C26.0164 13.1398 25.4646 12.7615 25.2282 12.1893C25.2256 12.183 25.223 12.1767 25.2204 12.1705C24.9828 11.5982 25.1049 10.94 25.543 10.5019L25.9504 10.0945C26.844 9.20092 26.844 7.75213 25.9504 6.85856L25.1414 6.04958C24.2479 5.15601 22.7991 5.15601 21.9056 6.04958L21.4982 6.45699C21.06 6.89511 20.4018 7.01724 19.8296 6.77956C19.8233 6.77693 19.817 6.77435 19.8107 6.77178C19.2385 6.53547 18.8602 5.98352 18.8602 5.3644V4.78814C18.8602 3.52446 17.8358 2.5 16.572 2.5H15.428C14.1642 2.5 13.1398 3.52446 13.1398 4.78814V5.3644C13.1398 5.98352 12.7615 6.53547 12.1893 6.77178C12.1829 6.77435 12.1767 6.77693 12.1704 6.77956C11.5982 7.01724 10.94 6.89511 10.5018 6.45699L10.0944 6.04958C9.20086 5.15601 7.75207 5.15601 6.8585 6.04958L6.04958 6.85856C5.15595 7.75213 5.15595 9.20092 6.04958 10.0945L6.45699 10.5019C6.89511 10.94 7.01724 11.5982 6.7795 12.1705C6.77692 12.1767 6.77435 12.183 6.77178 12.1893C6.53541 12.7615 5.98351 13.1398 5.36435 13.1398H4.78814C3.5244 13.1398 2.5 14.1643 2.5 15.428V16.572C2.5 17.8358 3.5244 18.8602 4.78814 18.8602H5.36435C5.98351 18.8602 6.53541 19.2385 6.77178 19.8108C6.77435 19.8171 6.77692 19.8233 6.7795 19.8296C7.01724 20.4019 6.89511 21.06 6.45699 21.4982L6.04958 21.9056C5.15595 22.7991 5.15595 24.2479 6.04958 25.1414L6.8585 25.9505C7.75207 26.844 9.20086 26.844 10.0944 25.9505L10.5018 25.543C10.94 25.1049 11.5982 24.9828 12.1704 25.2204C12.1767 25.2231 12.1829 25.2257 12.1893 25.2283C12.7615 25.4646 13.1398 26.0165 13.1398 26.6357V27.2119C13.1398 28.4756 14.1642 29.5 15.428 29.5H16.572C17.8358 29.5 18.8602 28.4756 18.8602 27.2119V26.6357C18.8602 26.0165 19.2385 25.4646 19.8107 25.2283C19.817 25.2257 19.8233 25.2231 19.8296 25.2204C20.4018 24.9828 21.06 25.1049 21.4982 25.543L21.9056 25.9505C22.7991 26.844 24.2479 26.844 25.1414 25.9505" stroke="#2B51FF" stroke-width="2" stroke-miterlimit="10" stroke-linecap="round"/>
</svg>
