<svg width="52" height="52" viewBox="0 0 52 52" fill="none" xmlns="http://www.w3.org/2000/svg">
<path d="M38.8681 9.73828C37.6059 9.73828 36.3721 10.1126 35.3226 10.8138C34.2731 11.515 33.4551 12.5117 32.9721 13.6779C32.4891 14.844 32.3627 16.1271 32.609 17.3651C32.8552 18.603 33.463 19.7401 34.3555 20.6327C35.248 21.5252 36.3851 22.133 37.6231 22.3792C38.861 22.6254 40.1442 22.4991 41.3103 22.016C42.4764 21.533 43.4731 20.7151 44.1744 19.6656C44.8756 18.6161 45.2499 17.3823 45.2499 16.1201C45.2442 14.4292 44.5701 12.8093 43.3745 11.6137C42.1789 10.4181 40.5589 9.74393 38.8681 9.73828ZM37.9703 18.695C37.8852 18.6954 37.8008 18.6791 37.7219 18.6468C37.6431 18.6146 37.5714 18.5671 37.511 18.5071L35.444 16.4471C35.3265 16.3244 35.2617 16.1606 35.2635 15.9907C35.2654 15.8208 35.3337 15.6584 35.4538 15.5382C35.574 15.4181 35.7364 15.3498 35.9063 15.348C36.0762 15.3462 36.24 15.411 36.3627 15.5285L37.9703 17.1361L41.3735 13.726C41.4961 13.6093 41.6596 13.5452 41.8289 13.5477C41.9982 13.5501 42.1599 13.6188 42.2791 13.7389C42.3984 13.8591 42.4658 14.0213 42.4669 14.1906C42.468 14.3599 42.4028 14.5229 42.2851 14.6447L38.4227 18.5071C38.3025 18.6269 38.14 18.6944 37.9703 18.695Z" fill="#2B51FF"/>
<path d="M31.192 16.1202C31.1906 14.9706 31.45 13.8355 31.9506 12.8006C29.2877 11.7622 26.7425 10.4442 24.3578 8.86853C24.093 8.67958 23.7761 8.57744 23.4508 8.57618C23.1254 8.57493 22.8077 8.67463 22.5415 8.86153C18.0625 11.8758 13.111 14.1199 7.89185 15.5008C7.53375 15.5959 7.22223 15.8175 7.01494 16.1246C6.80766 16.4317 6.71866 16.8035 6.76442 17.1711C7.82223 24.7151 11.3159 38.1399 22.7572 43.269C22.9704 43.369 23.2029 43.4214 23.4384 43.4226C23.674 43.4238 23.907 43.3738 24.1212 43.2759C31.3869 40.0189 36.6691 32.628 38.1445 23.7617C36.2445 23.5765 34.481 22.6921 33.1964 21.2801C31.9117 19.8681 31.1973 18.0292 31.192 16.1202ZM31.3382 23.6294C31.4682 23.6725 31.5813 23.7556 31.6613 23.8669C31.7413 23.9781 31.7841 24.1118 31.7835 24.2488V26.3854C31.7849 26.5218 31.7424 26.655 31.6622 26.7653C31.582 26.8756 31.4683 26.9571 31.3382 26.9978L29.3617 27.652C29.3338 27.7216 29.3129 27.7842 29.2851 27.8469L30.2177 29.712C30.2784 29.8329 30.2997 29.9698 30.2785 30.1034C30.2572 30.237 30.1946 30.3606 30.0994 30.4567L28.5892 31.9669C28.4932 32.0646 28.3688 32.1293 28.2337 32.1518C28.0987 32.1743 27.96 32.1534 27.8375 32.0921L25.9724 31.1526L25.7845 31.2361L25.1303 33.2126C25.0869 33.3425 25.0037 33.4554 24.8926 33.5353C24.7814 33.6153 24.6479 33.6582 24.511 33.658H22.3744C22.2383 33.658 22.1058 33.615 21.9957 33.5349C21.8857 33.4549 21.8039 33.342 21.762 33.2126L21.1078 31.2361C21.0451 31.2083 20.9825 31.1804 20.9129 31.1526L19.0548 32.0921C18.9323 32.1534 18.7936 32.1743 18.6586 32.1518C18.5235 32.1293 18.3991 32.0645 18.3031 31.9669L16.7929 30.4566C16.6977 30.3605 16.6351 30.237 16.6139 30.1034C16.5927 29.9698 16.6139 29.8329 16.6746 29.712L17.6072 27.8469C17.5794 27.7843 17.5585 27.7216 17.5306 27.652L15.5472 26.9978C15.4185 26.9556 15.3067 26.8735 15.2278 26.7633C15.149 26.6532 15.1073 26.5208 15.1088 26.3854V24.2488C15.1081 24.1128 15.1501 23.9799 15.2287 23.8689C15.3073 23.7578 15.4187 23.6741 15.5472 23.6294L17.5306 22.9753C17.5585 22.9126 17.5794 22.85 17.6072 22.7874L16.6746 20.9223C16.6136 20.8014 16.5922 20.6645 16.6135 20.5308C16.6347 20.3971 16.6975 20.2736 16.7929 20.1776L18.3031 18.6604C18.4006 18.5651 18.5254 18.5025 18.6601 18.4813C18.7947 18.4601 18.9327 18.4813 19.0548 18.5421L20.9129 19.4816C20.9825 19.4538 21.0451 19.426 21.1078 19.3981L21.762 17.4216C21.8039 17.2922 21.8857 17.1793 21.9957 17.0993C22.1058 17.0193 22.2383 16.9762 22.3744 16.9762H24.511C24.6479 16.976 24.7814 17.019 24.8926 17.0989C25.0037 17.1789 25.0869 17.2918 25.1303 17.4216L25.7845 19.3981L25.9724 19.4816L27.8375 18.5421C27.9596 18.4813 28.0976 18.4601 28.2322 18.4813C28.3669 18.5025 28.4917 18.5651 28.5892 18.6604L30.0994 20.1776C30.1948 20.2735 30.2576 20.3971 30.2789 20.5308C30.3001 20.6645 30.2787 20.8014 30.2176 20.9222L29.2851 22.7874C29.3129 22.85 29.3338 22.9126 29.3617 22.9752L31.3382 23.6294Z" fill="#2B51FF"/>
<path d="M28.248 23.7068C28.1575 23.3077 27.7626 22.9107 27.9836 22.4889L28.8535 20.763L28.0044 19.9139L26.2785 20.7838C25.861 21.0023 25.4461 20.6148 25.0606 20.5124C24.9645 20.4815 24.8771 20.4281 24.8057 20.3567C24.7343 20.2853 24.6809 20.1979 24.65 20.1018L24.0445 18.2715H22.8475L22.242 20.1018C22.2111 20.1979 22.1577 20.2853 22.0863 20.3567C22.0149 20.4281 21.9275 20.4815 21.8314 20.5124C21.4357 20.6171 21.0327 21.0042 20.6135 20.7839L18.8876 19.9139L18.0385 20.763L18.9085 22.4889C19.1292 22.9107 18.735 23.3078 18.6441 23.7069C18.6118 23.8015 18.5579 23.8873 18.4866 23.9573C18.4153 24.0274 18.3286 24.0799 18.2334 24.1105L16.4031 24.7159V25.9199L18.2334 26.5254C18.3286 26.556 18.4153 26.6084 18.4866 26.6785C18.5579 26.7486 18.6118 26.8344 18.644 26.929C18.7345 27.3281 19.1294 27.7251 18.9085 28.1469L18.0385 29.8729L18.8876 30.7219L20.6135 29.852C21.03 29.6321 21.4449 30.0249 21.8314 30.1164C21.9264 30.1495 22.0126 30.2036 22.0837 30.2748C22.1548 30.3459 22.2089 30.4321 22.242 30.5271L22.8475 32.3643H24.0445L24.65 30.5271C24.6831 30.4321 24.7372 30.3459 24.8083 30.2748C24.8794 30.2037 24.9656 30.1495 25.0606 30.1164C25.4472 30.0254 25.862 29.6319 26.2785 29.852L28.0044 30.7219L28.8535 29.8729L27.9835 28.1469C27.7628 27.7251 28.157 27.328 28.248 26.929C28.2802 26.8344 28.3341 26.7486 28.4054 26.6785C28.4767 26.6084 28.5634 26.556 28.6586 26.5254L30.4889 25.9199V24.7159L28.6586 24.1104C28.5634 24.0798 28.4767 24.0274 28.4055 23.9573C28.3342 23.8872 28.2803 23.8014 28.248 23.7068ZM23.446 28.5506C19.1825 28.4133 19.1764 22.2235 23.4461 22.0853C27.7166 22.2241 27.7086 28.414 23.446 28.5506Z" fill="#2B51FF"/>
<path d="M23.4462 23.3867C22.937 23.3914 22.4504 23.597 22.0921 23.9587C21.7337 24.3203 21.5327 24.8089 21.5327 25.318C21.5327 25.8271 21.7338 26.3156 22.0921 26.6773C22.4505 27.039 22.9371 27.2445 23.4462 27.2492C23.9553 27.2445 24.442 27.0389 24.8003 26.6773C25.1586 26.3156 25.3597 25.827 25.3596 25.3179C25.3596 24.8088 25.1586 24.3203 24.8003 23.9586C24.4419 23.597 23.9553 23.3914 23.4462 23.3867Z" fill="#2B51FF"/>
</svg>
