<svg width="18" height="22" viewBox="0 0 18 22" fill="none" xmlns="http://www.w3.org/2000/svg">
<path d="M11.3052 18.8053L10.5194 18.1868V18.1868L11.3052 18.8053ZM5.98895 18.8053L5.20323 19.4239V19.4239L5.98895 18.8053ZM8.64706 21V20V21ZM16.2941 9.19662H15.2941C15.2941 10.2844 14.7167 11.791 13.758 13.4793C12.8217 15.1282 11.6083 16.8037 10.5194 18.1868L11.3052 18.8053L12.0909 19.4239C13.2099 18.0026 14.491 16.2387 15.4972 14.4669C16.481 12.7344 17.2941 10.8388 17.2941 9.19662H16.2941ZM5.98895 18.8053L6.77467 18.1868C5.68582 16.8037 4.47246 15.1282 3.53611 13.4793C2.57741 11.791 2 10.2844 2 9.19662H1H0C0 10.8388 0.813138 12.7344 1.79695 14.4669C2.80311 16.2387 4.08423 18.0026 5.20323 19.4239L5.98895 18.8053ZM1 9.19662H2C2 5.15554 5.04022 2 8.64706 2V1V0C3.80719 0 0 4.18397 0 9.19662H1ZM8.64706 1V2C12.2539 2 15.2941 5.15554 15.2941 9.19662H16.2941H17.2941C17.2941 4.18397 13.4869 0 8.64706 0V1ZM11.3052 18.8053L10.5194 18.1868C9.92155 18.9462 9.5489 19.4141 9.22209 19.7098C8.93827 19.9666 8.79028 20 8.64706 20V21V22C9.43414 22 10.0393 21.6676 10.564 21.1929C11.0457 20.757 11.5369 20.1276 12.0909 19.4239L11.3052 18.8053ZM5.98895 18.8053L5.20323 19.4239C5.75721 20.1276 6.24846 20.757 6.73016 21.1929C7.25485 21.6676 7.85998 22 8.64706 22V21V20C8.50384 20 8.35585 19.9666 8.07203 19.7098C7.74522 19.4141 7.37257 18.9462 6.77467 18.1868L5.98895 18.8053ZM5.77941 9.56919H4.77941C4.77941 11.7027 6.51473 13.4256 8.64706 13.4256V12.4256V11.4256C7.61188 11.4256 6.77941 10.5908 6.77941 9.56919H5.77941ZM8.64706 12.4256V13.4256C10.7794 13.4256 12.5147 11.7027 12.5147 9.56919H11.5147H10.5147C10.5147 10.5908 9.68224 11.4256 8.64706 11.4256V12.4256ZM11.5147 9.56919H12.5147C12.5147 7.43566 10.7794 5.7128 8.64706 5.7128V6.7128V7.7128C9.68224 7.7128 10.5147 8.54764 10.5147 9.56919H11.5147ZM8.64706 6.7128V5.7128C6.51473 5.7128 4.77941 7.43566 4.77941 9.56919H5.77941H6.77941C6.77941 8.54764 7.61188 7.7128 8.64706 7.7128V6.7128Z" fill="#4555FD"/>
</svg>
