<svg width="118" height="25" viewBox="0 0 118 25" fill="none" xmlns="http://www.w3.org/2000/svg">
<path d="M104.124 7.15761C104.709 7.15761 105.206 7.30951 105.615 7.61332C106.031 7.91713 106.313 8.31986 106.461 8.82149V5.17578H107.202V13.0183H106.461V11.4286C106.313 11.9302 106.031 12.333 105.615 12.6368C105.206 12.9406 104.709 13.0925 104.124 13.0925C103.602 13.0925 103.133 12.9724 102.717 12.7322C102.308 12.4919 101.987 12.1493 101.754 11.7042C101.528 11.252 101.416 10.7256 101.416 10.125C101.416 9.51743 101.528 8.99106 101.754 8.54595C101.987 8.09376 102.308 7.7511 102.717 7.51794C103.126 7.27772 103.595 7.15761 104.124 7.15761ZM104.314 7.81468C103.665 7.81468 103.143 8.02311 102.748 8.43997C102.361 8.84976 102.167 9.41145 102.167 10.125C102.167 10.8386 102.361 11.4039 102.748 11.8207C103.143 12.2305 103.665 12.4354 104.314 12.4354C104.723 12.4354 105.09 12.34 105.414 12.1493C105.746 11.9585 106.003 11.69 106.186 11.3438C106.377 10.9906 106.472 10.5843 106.472 10.125C106.472 9.6658 106.377 9.26308 106.186 8.91688C106.003 8.56361 105.746 8.29159 105.414 8.10083C105.09 7.91007 104.723 7.81468 104.314 7.81468Z" fill="#2B51FF"/>
<path d="M100.403 5.17578V13.0183H99.6519V5.17578H100.403Z" fill="#2B51FF"/>
<path d="M96.8052 8.43051C96.9745 8.01365 97.246 7.69218 97.6198 7.46609C97.9935 7.24 98.4484 7.12695 98.9843 7.12695V7.9324H98.741C98.1839 7.9324 97.722 8.08431 97.3553 8.38812C96.9886 8.68486 96.8052 9.17237 96.8052 9.85064V13.0194H96.0542V7.23293H96.8052V8.43051Z" fill="#2B51FF"/>
<path d="M92.1784 7.1582C92.7284 7.1582 93.2185 7.27831 93.6487 7.51854C94.0859 7.75169 94.428 8.09436 94.6748 8.54654C94.9216 8.99166 95.045 9.51803 95.045 10.1256C95.045 10.7333 94.9216 11.2596 94.6748 11.7047C94.428 12.1499 94.0859 12.4925 93.6487 12.7328C93.2185 12.973 92.7284 13.0931 92.1784 13.0931C91.6283 13.0931 91.1346 12.973 90.6974 12.7328C90.2602 12.4925 89.9146 12.1499 89.6608 11.7047C89.4139 11.2526 89.2905 10.7262 89.2905 10.1256C89.2905 9.51803 89.4139 8.99166 89.6608 8.54654C89.9146 8.09436 90.2602 7.75169 90.6974 7.51854C91.1346 7.27831 91.6283 7.1582 92.1784 7.1582ZM92.1784 7.80468C91.7975 7.80468 91.4449 7.88947 91.1205 8.05903C90.7961 8.2286 90.5352 8.49002 90.3378 8.84329C90.1403 9.18949 90.0416 9.61694 90.0416 10.1256C90.0416 10.6343 90.1403 11.0618 90.3378 11.408C90.5352 11.7542 90.7961 12.0121 91.1205 12.1817C91.4449 12.3512 91.7975 12.436 92.1784 12.436C92.5521 12.436 92.8977 12.3512 93.215 12.1817C93.5394 12.0121 93.8003 11.7542 93.9978 11.408C94.1952 11.0618 94.294 10.6343 94.294 10.1256C94.294 9.61694 94.1952 9.18949 93.9978 8.84329C93.8003 8.49002 93.5394 8.2286 93.215 8.05903C92.8977 7.88947 92.5521 7.80468 92.1784 7.80468Z" fill="#2B51FF"/>
<path d="M88.7147 5.54688L86.7894 13.0185H85.9009L84.0391 6.61727L82.1668 13.0185H81.2782L79.353 5.54688H80.1781L81.7331 12.0964L83.616 5.54688H84.4517L86.3346 12.107L87.9001 5.54688H88.7147Z" fill="#2B51FF"/>
<path d="M115.131 17.4688C115.801 17.4688 116.344 17.6842 116.761 18.1152C117.184 18.5391 117.395 19.1644 117.395 19.9911V23.3612H116.665V20.0441C116.665 19.4153 116.507 18.9348 116.189 18.6027C115.872 18.2636 115.438 18.094 114.888 18.094C114.31 18.094 113.848 18.2813 113.502 18.6557C113.164 19.0231 112.995 19.5672 112.995 20.2878V23.3612H112.244V17.5747H112.995V18.9949C113.143 18.5003 113.411 18.1223 113.799 17.8609C114.186 17.5995 114.631 17.4688 115.131 17.4688Z" fill="#2B51FF"/>
<path d="M108.368 17.5C108.918 17.5 109.408 17.6201 109.838 17.8603C110.275 18.0935 110.617 18.4362 110.864 18.8883C111.111 19.3335 111.234 19.8598 111.234 20.4674C111.234 21.0751 111.111 21.6014 110.864 22.0465C110.617 22.4917 110.275 22.8343 109.838 23.0745C109.408 23.3148 108.918 23.4349 108.368 23.4349C107.818 23.4349 107.324 23.3148 106.887 23.0745C106.45 22.8343 106.104 22.4917 105.85 22.0465C105.603 21.5944 105.48 21.068 105.48 20.4674C105.48 19.8598 105.603 19.3335 105.85 18.8883C106.104 18.4362 106.45 18.0935 106.887 17.8603C107.324 17.6201 107.818 17.5 108.368 17.5ZM108.368 18.1465C107.987 18.1465 107.634 18.2313 107.31 18.4008C106.986 18.5704 106.725 18.8318 106.527 19.1851C106.33 19.5313 106.231 19.9587 106.231 20.4674C106.231 20.9761 106.33 21.4036 106.527 21.7498C106.725 22.096 106.986 22.3539 107.31 22.5235C107.634 22.693 107.987 22.7778 108.368 22.7778C108.742 22.7778 109.087 22.693 109.404 22.5235C109.729 22.3539 109.99 22.096 110.187 21.7498C110.385 21.4036 110.483 20.9761 110.483 20.4674C110.483 19.9587 110.385 19.5313 110.187 19.1851C109.99 18.8318 109.729 18.5704 109.404 18.4008C109.087 18.2313 108.742 18.1465 108.368 18.1465Z" fill="#2B51FF"/>
<path d="M103.548 15.8583C103.548 15.7029 103.598 15.5792 103.696 15.4874C103.802 15.3955 103.936 15.3496 104.098 15.3496C104.261 15.3496 104.391 15.3955 104.49 15.4874C104.589 15.5792 104.638 15.7029 104.638 15.8583C104.638 16.0067 104.589 16.1268 104.49 16.2186C104.391 16.3105 104.261 16.3564 104.098 16.3564C103.936 16.3564 103.802 16.3105 103.696 16.2186C103.598 16.1268 103.548 16.0067 103.548 15.8583ZM104.469 17.5752V23.3617H103.718V17.5752H104.469Z" fill="#2B51FF"/>
<path d="M102.814 22.7052V23.3623H102.126C101.569 23.3623 101.153 23.2316 100.878 22.9702C100.603 22.7017 100.465 22.2531 100.465 21.6242V18.2223H99.5874V17.5758H100.465V16.1133H101.216V17.5758H102.803V18.2223H101.216V21.6348C101.216 22.0446 101.29 22.3272 101.439 22.4827C101.587 22.6311 101.848 22.7052 102.221 22.7052H102.814Z" fill="#2B51FF"/>
<path d="M98.8913 17.5742V23.3607H98.1508V21.93C98.0027 22.4316 97.7347 22.8132 97.3469 23.0746C96.959 23.336 96.5147 23.4667 96.014 23.4667C95.337 23.4667 94.787 23.2547 94.3639 22.8308C93.9478 22.3998 93.7397 21.771 93.7397 20.9444V17.5742H94.4802V20.8808C94.4802 21.5167 94.6389 22.0042 94.9562 22.3433C95.2736 22.6754 95.7073 22.8414 96.2573 22.8414C96.8356 22.8414 97.294 22.6577 97.6325 22.2903C97.978 21.9159 98.1508 21.3683 98.1508 20.6476V17.5742H98.8913Z" fill="#2B51FF"/>
<path d="M92.6197 15.5195V23.3621H91.8687V15.5195H92.6197Z" fill="#2B51FF"/>
<path d="M87.9928 17.5C88.5429 17.5 89.033 17.6201 89.4632 17.8603C89.9004 18.0935 90.2424 18.4362 90.4892 18.8883C90.7361 19.3335 90.8595 19.8598 90.8595 20.4674C90.8595 21.0751 90.7361 21.6014 90.4892 22.0465C90.2424 22.4917 89.9004 22.8343 89.4632 23.0745C89.033 23.3148 88.5429 23.4349 87.9928 23.4349C87.4427 23.4349 86.9491 23.3148 86.5119 23.0745C86.0746 22.8343 85.7291 22.4917 85.4752 22.0465C85.2284 21.5944 85.105 21.068 85.105 20.4674C85.105 19.8598 85.2284 19.3335 85.4752 18.8883C85.7291 18.4362 86.0746 18.0935 86.5119 17.8603C86.9491 17.6201 87.4427 17.5 87.9928 17.5ZM87.9928 18.1465C87.612 18.1465 87.2594 18.2313 86.935 18.4008C86.6106 18.5704 86.3497 18.8318 86.1522 19.1851C85.9548 19.5313 85.856 19.9587 85.856 20.4674C85.856 20.9761 85.9548 21.4036 86.1522 21.7498C86.3497 22.096 86.6106 22.3539 86.935 22.5235C87.2594 22.693 87.612 22.7778 87.9928 22.7778C88.3666 22.7778 88.7121 22.693 89.0295 22.5235C89.3539 22.3539 89.6148 22.096 89.8122 21.7498C90.0097 21.4036 90.1084 20.9761 90.1084 20.4674C90.1084 19.9587 90.0097 19.5313 89.8122 19.1851C89.6148 18.8318 89.3539 18.5704 89.0295 18.4008C88.7121 18.2313 88.3666 18.1465 87.9928 18.1465Z" fill="#2B51FF"/>
<path d="M84.3461 21.464C84.3461 21.8032 84.265 22.1246 84.1028 22.4284C83.9476 22.7252 83.7043 22.9689 83.3729 23.1597C83.0414 23.3434 82.6289 23.4353 82.1353 23.4353C81.6557 23.4353 81.2291 23.3469 80.8553 23.1703C80.4815 22.9937 80.1818 22.7534 79.9562 22.4496C79.7376 22.1388 79.6106 21.7926 79.5754 21.411H80.3581C80.3863 21.6301 80.4674 21.8491 80.6014 22.0681C80.7354 22.2871 80.9294 22.4708 81.1832 22.6192C81.4371 22.7605 81.7439 22.8312 82.1035 22.8312C82.576 22.8312 82.9357 22.704 83.1825 22.4496C83.4364 22.1953 83.5633 21.8738 83.5633 21.4852C83.5633 21.1531 83.4787 20.8847 83.3094 20.6798C83.1472 20.4678 82.9427 20.3053 82.6959 20.1923C82.4561 20.0792 82.1247 19.9556 81.7016 19.8213C81.2361 19.673 80.8588 19.5317 80.5697 19.3974C80.2876 19.2561 80.0478 19.0512 79.8504 18.7827C79.6529 18.5142 79.5542 18.1574 79.5542 17.7123C79.5542 17.1471 79.7517 16.6879 80.1466 16.3346C80.5415 15.9813 81.0845 15.8047 81.7756 15.8047C82.4808 15.8047 83.0379 15.9778 83.4469 16.324C83.863 16.6702 84.1098 17.1012 84.1874 17.6169H83.3941C83.3306 17.299 83.1613 17.0164 82.8863 16.7691C82.6183 16.5218 82.2481 16.3982 81.7756 16.3982C81.3384 16.3982 80.9893 16.5112 80.7284 16.7373C80.4674 16.9634 80.337 17.2778 80.337 17.6805C80.337 17.9985 80.4181 18.2564 80.5803 18.4542C80.7425 18.652 80.9399 18.8039 81.1727 18.9099C81.4124 19.0159 81.7368 19.136 82.1458 19.2702C82.6183 19.4186 82.9991 19.5634 83.2883 19.7048C83.5845 19.8461 83.8348 20.058 84.0393 20.3406C84.2438 20.6232 84.3461 20.9977 84.3461 21.464Z" fill="#2B51FF"/>
<path d="M70.8391 5.25781C73.0159 5.25781 74.7619 5.96206 76.077 7.37055C77.3922 8.77904 78.0498 10.7896 78.0498 13.4021V24.3406H74.1723V13.811C74.1723 12.1299 73.7415 10.835 72.8799 9.92628C72.0182 8.99486 70.8391 8.52915 69.3426 8.52915C67.8007 8.52915 66.5649 9.02894 65.6352 10.0285C64.7055 11.0054 64.2407 12.4479 64.2407 14.3562V24.3406H60.3633V5.51661H64.2407V9.68775C64.7396 8.27925 65.5785 7.18881 66.7576 6.41641C67.9367 5.64401 69.2972 5.25781 70.8391 5.25781Z" fill="#2B51FF"/>
<path d="M48.7696 5C50.5836 5 52.2162 5.3862 53.6674 6.1586C55.1186 6.931 56.2523 8.04416 57.0686 9.49809C57.8849 10.952 58.2931 12.6558 58.2931 14.6095C58.2931 16.586 57.8849 18.3012 57.0686 19.7551C56.2523 21.209 55.1186 22.3222 53.6674 23.0946C52.2162 23.867 50.5836 24.2532 48.7696 24.2532C46.9556 24.2532 45.323 23.867 43.8718 23.0946C42.4433 22.3222 41.3095 21.209 40.4705 19.7551C39.6542 18.2784 39.2461 16.5633 39.2461 14.6095C39.2461 12.6558 39.6542 10.952 40.4705 9.49809C41.3095 8.04416 42.4433 6.931 43.8718 6.1586C45.323 5.3862 46.9556 5 48.7696 5ZM48.7696 8.37356C47.7719 8.37356 46.8535 8.60074 46.0146 9.05509C45.1756 9.50944 44.4954 10.2137 43.9738 11.1678C43.475 12.0993 43.2256 13.2465 43.2256 14.6095C43.2256 15.9953 43.475 17.1539 43.9738 18.0853C44.4954 19.0168 45.1756 19.7097 46.0146 20.164C46.8535 20.6184 47.7719 20.8455 48.7696 20.8455C49.7673 20.8455 50.6856 20.6184 51.5246 20.164C52.3636 19.7097 53.0325 19.0168 53.5313 18.0853C54.0528 17.1539 54.3136 15.9953 54.3136 14.6095C54.3136 13.2465 54.0528 12.0993 53.5313 11.1678C53.0325 10.2137 52.3636 9.50944 51.5246 9.05509C50.6856 8.60074 49.7673 8.37356 48.7696 8.37356Z" fill="#BD0F72"/>
<path d="M26.4691 5C28.1697 5 29.6209 5.42027 30.8227 6.26083C32.0245 7.10138 32.8748 8.21454 33.3736 9.60032V5.51759H37.251V24.2532H33.3736V19.6529C32.8748 21.0386 32.0245 22.1518 30.8227 22.9923C29.6209 23.8329 28.1697 24.2532 26.4691 24.2532C24.8365 24.2532 23.374 23.867 22.0815 23.0946C20.8117 22.3222 19.814 21.209 19.0884 19.7551C18.3628 18.3012 18 16.586 18 14.6095C18 12.6558 18.3628 10.952 19.0884 9.49809C19.814 8.04416 20.8117 6.931 22.0815 6.1586C23.374 5.3862 24.8365 5 26.4691 5ZM27.6595 8.40764C25.9362 8.40764 24.5531 8.96422 23.51 10.0774C22.4896 11.1678 21.9795 12.6785 21.9795 14.6095C21.9795 16.5405 22.4896 18.0626 23.51 19.1758C24.5531 20.2662 25.9362 20.8115 27.6595 20.8115C28.7479 20.8115 29.723 20.5616 30.5846 20.0618C31.4463 19.5393 32.1265 18.8123 32.6254 17.8809C33.1242 16.9495 33.3736 15.859 33.3736 14.6095C33.3736 13.3828 33.1242 12.3037 32.6254 11.3723C32.1265 10.4181 31.4463 9.69119 30.5846 9.1914C29.723 8.66889 28.7479 8.40764 27.6595 8.40764Z" fill="#2B51FF"/>
<path d="M10.7991 14.4689C12.8162 14.1235 14.3587 13.3414 15.4248 12.1207C16.491 10.9 17.0241 9.3357 17.0241 7.42436C17.0241 5.19187 16.307 3.39621 14.8746 2.03738C13.4421 0.678552 11.3373 0 8.56362 0H0V3.38413H8.25409C9.88255 3.38413 11.0794 3.7588 11.8481 4.50641C12.6167 5.25403 13.0002 6.29689 13.0002 7.63155C13.0002 10.4407 11.4182 11.8444 8.25409 11.8444H0V24.3795H3.92069V14.6415H6.70645L12.7594 24.3795H17.1616L10.7991 14.4689Z" fill="#2B51FF"/>
</svg>
