<svg width="22" height="22" viewBox="0 0 22 22" fill="none" xmlns="http://www.w3.org/2000/svg">
<path d="M17.9595 9.90795L22 6.44369L16.6933 6.85118C15.8139 6.91867 15.0813 6.18616 15.1488 5.30673L15.5563 0L12.092 4.04054C11.518 4.71015 10.482 4.71015 9.90795 4.04054L6.83458 0.455945L6.44369 0L6.83458 5.09057V5.42254C6.82925 6.24656 6.14513 6.9155 5.30673 6.85111L0 6.44362L4.04054 9.90789C4.71014 10.4819 4.71014 11.5179 4.04054 12.092L0 15.5562L5.30673 15.1488C6.14513 15.0844 6.82925 15.7533 6.83458 16.5773V16.9093L6.44369 21.9999L6.83458 21.5439L9.90795 17.9593C10.482 17.2899 11.518 17.2899 12.092 17.9593L15.5563 21.9999L15.1488 16.6931C15.0813 15.8138 15.8138 15.0812 16.6933 15.1487L22 15.5562L17.9595 12.0919C17.2899 11.518 17.2899 10.4819 17.9595 9.90795Z" fill="url(#paint0_linear_12927_77846)"/>
<defs>
<linearGradient id="paint0_linear_12927_77846" x1="11" y1="0" x2="11" y2="23.2221" gradientUnits="userSpaceOnUse">
<stop stop-color="#0022C0"/>
<stop offset="1" stop-color="#0022C0" stop-opacity="0.2"/>
</linearGradient>
</defs>
</svg>
