<svg width="90" height="27" viewBox="0 0 90 27" fill="none" xmlns="http://www.w3.org/2000/svg">
<path d="M81.7902 5.53125C84.2685 5.53125 86.2563 6.32354 87.7536 7.90811C89.2509 9.49269 89.9996 11.7545 89.9996 14.6937V26.9997H85.5851V15.1537C85.5851 13.2624 85.0946 11.8057 84.1136 10.7834C83.1326 9.73549 81.7902 9.21156 80.0863 9.21156C78.3309 9.21156 76.9239 9.77383 75.8655 10.8984C74.807 11.9973 74.2778 13.6203 74.2778 15.7671V26.9997H69.8633V5.8224H74.2778V10.515C74.8457 8.93042 75.8009 7.70365 77.1433 6.83469C78.4858 5.96573 80.0347 5.53125 81.7902 5.53125Z" fill="#2B51FF"/>
<path d="M56.6668 5.24023C58.7321 5.24023 60.5908 5.67471 62.243 6.54367C63.8953 7.41264 65.186 8.66496 66.1154 10.3007C67.0448 11.9363 67.5095 13.8532 67.5095 16.0511C67.5095 18.2746 67.0448 20.2043 66.1154 21.8399C65.186 23.4756 63.8953 24.728 62.243 25.5969C60.5908 26.4659 58.7321 26.9004 56.6668 26.9004C54.6016 26.9004 52.7428 26.4659 51.0906 25.5969C49.4642 24.728 48.1735 23.4756 47.2183 21.8399C46.2889 20.1787 45.8242 18.2491 45.8242 16.0511C45.8242 13.8532 46.2889 11.9363 47.2183 10.3007C48.1735 8.66496 49.4642 7.41264 51.0906 6.54367C52.7428 5.67471 54.6016 5.24023 56.6668 5.24023ZM56.6668 9.03555C55.5309 9.03555 54.4854 9.29113 53.5302 9.80228C52.575 10.3134 51.8006 11.1057 51.2068 12.1791C50.6389 13.227 50.3549 14.5177 50.3549 16.0511C50.3549 17.6102 50.6389 18.9136 51.2068 19.9615C51.8006 21.0093 52.575 21.7888 53.5302 22.3C54.4854 22.8111 55.5309 23.0667 56.6668 23.0667C57.8027 23.0667 58.8483 22.8111 59.8035 22.3C60.7586 21.7888 61.5202 21.0093 62.0882 19.9615C62.6819 18.9136 62.9788 17.6102 62.9788 16.0511C62.9788 14.5177 62.6819 13.227 62.0882 12.1791C61.5202 11.1057 60.7586 10.3134 59.8035 9.80228C58.8483 9.29113 57.8027 9.03555 56.6668 9.03555Z" fill="#BD0F72"/>
<path d="M31.277 5.24023C33.2131 5.24023 34.8653 5.71305 36.2336 6.65868C37.6018 7.60432 38.5699 8.85665 39.1379 10.4157V5.82253H43.5524V26.9004H39.1379V21.7249C38.5699 23.284 37.6018 24.5363 36.2336 25.4819C34.8653 26.4276 33.2131 26.9004 31.277 26.9004C29.4182 26.9004 27.7531 26.4659 26.2816 25.5969C24.8359 24.728 23.7 23.4756 22.8739 21.8399C22.0478 20.2043 21.6348 18.2746 21.6348 16.0511C21.6348 13.8532 22.0478 11.9363 22.8739 10.3007C23.7 8.66496 24.8359 7.41264 26.2816 6.54367C27.7531 5.67471 29.4182 5.24023 31.277 5.24023ZM32.6323 9.07389C30.6703 9.07389 29.0955 9.70005 27.908 10.9524C26.7463 12.1791 26.1654 13.8787 26.1654 16.0511C26.1654 18.2235 26.7463 19.9359 27.908 21.1882C29.0955 22.415 30.6703 23.0284 32.6323 23.0284C33.8714 23.0284 34.9815 22.7472 35.9625 22.185C36.9435 21.5972 37.718 20.7793 38.2859 19.7314C38.8539 18.6836 39.1379 17.4568 39.1379 16.0511C39.1379 14.671 38.8539 13.457 38.2859 12.4092C37.718 11.3357 36.9435 10.5179 35.9625 9.95563C34.9815 9.3678 33.8714 9.07389 32.6323 9.07389Z" fill="#2B51FF"/>
<path d="M12.1567 15.9832C14.4274 15.6018 16.1638 14.7377 17.3639 13.3893C18.5641 12.0408 19.1642 10.3128 19.1642 8.20141C19.1642 5.73527 18.357 3.75167 16.7445 2.25062C15.132 0.749571 12.7626 0 9.64018 0H0V3.73832H9.29174C11.1249 3.73832 12.4722 4.1522 13.3375 4.97807C14.2028 5.80393 14.6345 6.95594 14.6345 8.43029C14.6345 11.5335 12.8536 13.0841 9.29174 13.0841H0V26.9311H4.41358V16.1739H7.54954L14.3635 26.9311H19.3191L12.1567 15.9832Z" fill="#2B51FF"/>
</svg>
