<svg width="24" height="24" viewBox="0 0 24 24" fill="none" xmlns="http://www.w3.org/2000/svg">
<g clip-path="url(#clip0_12981_831)">
<path d="M9.39185 9.35548C9.72982 8.87808 10.1826 8.47164 10.7355 8.18247C12.6021 7.20637 14.9148 7.93089 15.8909 9.79747" stroke="#2B51FF" stroke-width="1.5" stroke-miterlimit="10" stroke-linecap="round" stroke-linejoin="round"/>
<path d="M16.8656 9.19336L16.4937 10.7717L14.9153 10.3998" stroke="#2B51FF" stroke-width="1.5" stroke-miterlimit="10" stroke-linecap="round" stroke-linejoin="round"/>
<path d="M15.7283 14.3326C15.3903 14.81 14.9376 15.2165 14.3846 15.5056C12.5181 16.4817 10.2053 15.7572 9.22925 13.8906" stroke="#2B51FF" stroke-width="1.5" stroke-miterlimit="10" stroke-linecap="round" stroke-linejoin="round"/>
<path d="M8.25439 14.4885L8.62637 12.9102L10.2048 13.2821" stroke="#2B51FF" stroke-width="1.5" stroke-miterlimit="10" stroke-linecap="round" stroke-linejoin="round"/>
<path d="M20.2948 13.8705L20.5684 13.7997C21.1169 13.6577 21.5 13.163 21.5 12.5965V11.4036C21.5 10.8371 21.1169 10.3423 20.5684 10.2004L20.2807 10.1259C20.0652 9.16966 19.6883 8.27452 19.1802 7.4706L19.3315 7.21354C19.6189 6.72546 19.5398 6.10486 19.1393 5.70432L18.296 4.861C17.8953 4.46035 17.2743 4.38129 16.786 4.66874L16.5294 4.81986C15.7255 4.31169 14.8304 3.93478 13.8741 3.7193L13.7996 3.43153C13.6577 2.88306 13.1628 2.5 12.5962 2.5H11.4039C10.8372 2.5 10.3423 2.88306 10.2004 3.43149L10.1259 3.71926C9.16962 3.93478 8.27449 4.31165 7.4706 4.81982L7.21396 4.6687C6.72565 4.38121 6.10468 4.46026 5.70402 4.86096L4.86071 5.70428C4.46017 6.10481 4.38117 6.72542 4.66849 7.2135L4.81984 7.47056C4.31168 8.27444 3.93478 9.16958 3.71929 10.1259L3.43157 10.2003C2.8831 10.3423 2.5 10.8371 2.5 11.4035V12.5965C2.5 13.1629 2.88306 13.6577 3.43157 13.7997L3.71929 13.8741C3.93478 14.8304 4.31168 15.7255 4.81984 16.5294L4.66849 16.7865C4.38113 17.2746 4.46017 17.8952 4.86071 18.2957L5.70402 19.139C6.10468 19.5397 6.72565 19.6188 7.21396 19.3313L7.4706 19.1802C8.27449 19.6884 9.16962 20.0653 10.1259 20.2807L10.2004 20.5685C10.3423 21.1169 10.8372 21.5 11.4039 21.5H12.5962C13.1628 21.5 13.6577 21.1169 13.7997 20.5685L13.8742 20.2807C14.8304 20.0652 15.7255 19.6884 16.5294 19.1802L16.7861 19.3313C17.2744 19.6188 17.8954 19.5397 18.296 19.139L19.1393 18.2957C19.2609 18.1741 19.3528 18.0323 19.4139 17.88" stroke="#2B51FF" stroke-width="1.5" stroke-miterlimit="10" stroke-linecap="round" stroke-linejoin="round"/>
</g>
<defs>
<clipPath id="clip0_12981_831">
<rect width="20" height="20" fill="white" transform="translate(2 2)"/>
</clipPath>
</defs>
</svg>
