<svg width="597" height="518" viewBox="0 0 597 518" fill="none" xmlns="http://www.w3.org/2000/svg">
<rect width="597" height="518" rx="16" fill="url(#paint0_linear_12927_77986)"/>
<g opacity="0.5">
<circle cx="326.5" cy="278.5" r="1.5" fill="#11027A"/>
<circle cx="326.5" cy="284.5" r="1.5" fill="#2B51FF"/>
<circle opacity="0.6" cx="326.5" cy="290.5" r="1.5" fill="#2B51FF"/>
<circle opacity="0.5" cx="326.5" cy="296.5" r="1.5" fill="#2B51FF"/>
<circle opacity="0.4" cx="326.5" cy="302.5" r="1.5" fill="#2B51FF"/>
<circle opacity="0.3" cx="326.5" cy="308.5" r="1.5" fill="#2B51FF"/>
<circle opacity="0.2" cx="326.5" cy="314.5" r="1.5" fill="#2B51FF"/>
<circle opacity="0.1" cx="326.5" cy="320.5" r="1.5" fill="#2B51FF"/>
</g>
<g opacity="0.5">
<circle cx="255.493" cy="235.5" r="1.5" fill="#11027A"/>
<circle cx="255.493" cy="241.5" r="1.5" fill="#2B51FF"/>
<circle opacity="0.6" cx="255.493" cy="247.5" r="1.5" fill="#2B51FF"/>
<circle opacity="0.5" cx="255.493" cy="253.5" r="1.5" fill="#2B51FF"/>
<circle opacity="0.4" cx="255.493" cy="259.5" r="1.5" fill="#2B51FF"/>
<circle opacity="0.3" cx="255.493" cy="265.5" r="1.5" fill="#2B51FF"/>
<circle opacity="0.2" cx="255.493" cy="271.5" r="1.5" fill="#2B51FF"/>
<circle opacity="0.1" cx="255.493" cy="277.5" r="1.5" fill="#2B51FF"/>
</g>
<g opacity="0.5">
<circle cx="106.493" cy="319.5" r="1.5" fill="#11027A"/>
<circle cx="106.493" cy="325.5" r="1.5" fill="#2B51FF"/>
<circle opacity="0.6" cx="106.493" cy="331.5" r="1.5" fill="#2B51FF"/>
<circle opacity="0.5" cx="106.493" cy="337.5" r="1.5" fill="#2B51FF"/>
<circle opacity="0.4" cx="106.493" cy="343.5" r="1.5" fill="#2B51FF"/>
<circle opacity="0.3" cx="106.493" cy="349.5" r="1.5" fill="#2B51FF"/>
<circle opacity="0.2" cx="106.493" cy="355.5" r="1.5" fill="#2B51FF"/>
<circle opacity="0.1" cx="106.493" cy="361.5" r="1.5" fill="#2B51FF"/>
</g>
<g opacity="0.5">
<circle cx="270.493" cy="377.5" r="1.5" fill="#11027A"/>
<circle cx="270.493" cy="383.5" r="1.5" fill="#2B51FF"/>
<circle opacity="0.6" cx="270.493" cy="389.5" r="1.5" fill="#2B51FF"/>
<circle opacity="0.5" cx="270.493" cy="395.5" r="1.5" fill="#2B51FF"/>
<circle opacity="0.4" cx="270.493" cy="401.5" r="1.5" fill="#2B51FF"/>
<circle opacity="0.3" cx="270.493" cy="407.5" r="1.5" fill="#2B51FF"/>
<circle opacity="0.2" cx="270.493" cy="413.5" r="1.5" fill="#2B51FF"/>
<circle opacity="0.1" cx="270.493" cy="419.5" r="1.5" fill="#2B51FF"/>
</g>
<g opacity="0.5">
<circle cx="431.493" cy="329.5" r="1.5" fill="#11027A"/>
<circle cx="431.493" cy="335.5" r="1.5" fill="#2B51FF"/>
<circle opacity="0.6" cx="431.493" cy="341.5" r="1.5" fill="#2B51FF"/>
<circle opacity="0.5" cx="431.493" cy="347.5" r="1.5" fill="#2B51FF"/>
<circle opacity="0.4" cx="431.493" cy="353.5" r="1.5" fill="#2B51FF"/>
<circle opacity="0.3" cx="431.493" cy="359.5" r="1.5" fill="#2B51FF"/>
<circle opacity="0.2" cx="431.493" cy="365.5" r="1.5" fill="#2B51FF"/>
<circle opacity="0.1" cx="431.493" cy="371.5" r="1.5" fill="#2B51FF"/>
</g>
<g opacity="0.5">
<circle cx="197.493" cy="345.5" r="1.5" fill="#11027A"/>
<circle cx="197.493" cy="351.5" r="1.5" fill="#2B51FF"/>
<circle opacity="0.6" cx="197.493" cy="357.5" r="1.5" fill="#2B51FF"/>
<circle opacity="0.5" cx="197.493" cy="363.5" r="1.5" fill="#2B51FF"/>
<circle opacity="0.4" cx="197.493" cy="369.5" r="1.5" fill="#2B51FF"/>
<circle opacity="0.3" cx="197.493" cy="375.5" r="1.5" fill="#2B51FF"/>
<circle opacity="0.2" cx="197.493" cy="381.5" r="1.5" fill="#2B51FF"/>
<circle opacity="0.1" cx="197.493" cy="387.5" r="1.5" fill="#2B51FF"/>
</g>
<path d="M315 188C315 187.47 314.789 186.961 314.414 186.586C314.039 186.211 313.53 186 313 186C312.47 186 311.961 186.211 311.586 186.586C311.211 186.961 311 187.47 311 188C311 192.778 311 197.556 311 202.335C311 221.28 311 240.226 311 259.172C311.365 274.084 297.912 287.537 283 287.172C276.2 287.172 269.399 287.172 262.599 287.172C228.066 287.172 193.533 287.172 159 287.172C153.671 287.045 148.873 291.843 149 297.172C149 303.003 149 308.834 149 314.665C149 319.444 149 324.222 149 329C149 329.53 149.211 330.039 149.586 330.414C149.961 330.789 150.47 331 151 331C151.53 331 152.039 330.789 152.414 330.414C152.789 330.039 153 329.53 153 329C153 324.222 153 319.444 153 314.665C153 308.834 153 303.003 153 297.172C152.92 293.978 155.806 291.092 159 291.172C193.533 291.172 228.066 291.172 262.599 291.172C269.399 291.172 276.2 291.172 283 291.172C300.047 291.584 315.412 276.219 315 259.172C315 240.226 315 221.28 315 202.335C315 197.556 315 192.778 315 188Z" fill="#A4CBF9"/>
<path d="M311 187C311 186.47 311.211 185.961 311.586 185.586C311.961 185.211 312.47 185 313 185C313.53 185 314.039 185.211 314.414 185.586C314.789 185.961 315 186.47 315 187C315 191.528 315 196.056 315 200.585C315 210.118 315 219.65 315 229.183C314.635 244.096 328.088 257.548 343 257.183C357.044 257.183 371.089 257.183 385.133 257.183C414.756 257.183 444.378 257.183 474 257.183C479.329 257.056 484.127 261.855 484 267.183C484 275.594 484 284.005 484 292.415C484 296.944 484 301.472 484 306C484 306.53 483.789 307.039 483.414 307.414C483.039 307.789 482.53 308 482 308C481.47 308 480.961 307.789 480.586 307.414C480.211 307.039 480 306.53 480 306C480 301.472 480 296.944 480 292.415C480 284.005 480 275.594 480 267.183C480.08 263.989 477.194 261.103 474 261.183C444.378 261.183 414.756 261.183 385.133 261.183C371.089 261.183 357.044 261.183 343 261.183C325.953 261.595 310.588 246.231 311 229.183C311 219.65 311 210.118 311 200.585C311 196.056 311 191.528 311 187Z" fill="#A4CBF9"/>
<path d="M315 203C315 202.47 314.789 201.961 314.414 201.586C314.039 201.211 313.53 201 313 201C312.47 201 311.961 201.211 311.586 201.586C311.211 201.961 311 202.47 311 203C311 205.783 311 208.567 311 211.35C311 235.498 311 259.645 311 283.793C311 309.745 311 335.698 311 361.65C311 364.433 311 367.217 311 370C311 370.53 311.211 371.039 311.586 371.414C311.961 371.789 312.47 372 313 372C313.53 372 314.039 371.789 314.414 371.414C314.789 371.039 315 370.53 315 370C315 370 315 370 315 370C315 367.217 315 364.433 315 361.65C315 335.698 315 309.745 315 283.793C315 259.645 315 235.498 315 211.35C315 208.567 315 205.783 315 203Z" fill="#A4CBF9"/>
<g opacity="0.5">
<circle cx="549.493" cy="336.5" r="1.5" fill="#11027A"/>
<circle cx="549.493" cy="342.5" r="1.5" fill="#2B51FF"/>
<circle opacity="0.6" cx="549.493" cy="348.5" r="1.5" fill="#2B51FF"/>
<circle opacity="0.5" cx="549.493" cy="354.5" r="1.5" fill="#2B51FF"/>
<circle opacity="0.4" cx="549.493" cy="360.5" r="1.5" fill="#2B51FF"/>
<circle opacity="0.3" cx="549.493" cy="366.5" r="1.5" fill="#2B51FF"/>
<circle opacity="0.2" cx="549.493" cy="372.5" r="1.5" fill="#2B51FF"/>
<circle opacity="0.1" cx="549.493" cy="378.5" r="1.5" fill="#2B51FF"/>
</g>
<g opacity="0.5">
<circle cx="520.493" cy="274.5" r="1.5" fill="#11027A"/>
<circle cx="520.493" cy="280.5" r="1.5" fill="#2B51FF"/>
<circle opacity="0.6" cx="520.493" cy="286.5" r="1.5" fill="#2B51FF"/>
<circle opacity="0.5" cx="520.493" cy="292.5" r="1.5" fill="#2B51FF"/>
<circle opacity="0.4" cx="520.493" cy="298.5" r="1.5" fill="#2B51FF"/>
<circle opacity="0.3" cx="520.493" cy="304.5" r="1.5" fill="#2B51FF"/>
<circle opacity="0.2" cx="520.493" cy="310.5" r="1.5" fill="#2B51FF"/>
<circle opacity="0.1" cx="520.493" cy="316.5" r="1.5" fill="#2B51FF"/>
</g>
<g filter="url(#filter0_d_12927_77986)">
<rect x="120.821" y="325" width="61.8963" height="62" rx="8" fill="white" shape-rendering="crispEdges"/>
<path d="M165.465 355.201H153.37V372H167.769V357.437L165.465 355.201ZM162.586 369.572H156.185C155.994 369.572 155.801 369.381 155.801 369.189C155.801 368.998 155.994 368.806 156.185 368.806H162.586C162.777 368.806 162.97 368.998 162.97 369.189C162.97 369.381 162.777 369.572 162.586 369.572ZM162.586 367.145H156.185C155.994 367.145 155.801 366.954 155.801 366.762C155.801 366.571 155.994 366.379 156.185 366.379H162.586C162.777 366.379 162.97 366.571 162.97 366.762C162.97 366.954 162.777 367.145 162.586 367.145ZM162.586 364.782H156.185C155.994 364.782 155.801 364.591 155.801 364.399C155.801 364.207 155.929 363.952 156.185 363.952H162.586C162.777 363.952 162.97 364.143 162.97 364.335C162.97 364.527 162.777 364.782 162.586 364.782ZM162.586 362.355H156.185C155.994 362.355 155.801 362.163 155.801 361.972C155.801 361.78 155.994 361.588 156.185 361.588H162.586C162.777 361.588 162.97 361.78 162.97 361.972C162.97 362.163 162.777 362.355 162.586 362.355ZM165.274 369.445C165.21 369.509 165.081 369.572 165.018 369.572C164.89 369.572 164.826 369.509 164.761 369.445C164.697 369.381 164.633 369.253 164.633 369.189C164.633 369.062 164.697 368.998 164.761 368.934C164.826 368.87 164.954 368.806 165.018 368.806C165.145 368.806 165.21 368.87 165.274 368.934C165.338 368.998 165.402 369.125 165.402 369.189C165.402 369.253 165.338 369.317 165.274 369.445ZM165.274 367.018C165.21 367.081 165.081 367.145 165.018 367.145C164.89 367.145 164.826 367.081 164.761 367.018C164.697 366.954 164.633 366.826 164.633 366.762C164.633 366.635 164.697 366.571 164.761 366.507C164.826 366.443 164.954 366.379 165.018 366.379C165.145 366.379 165.21 366.443 165.274 366.507C165.338 366.571 165.402 366.698 165.402 366.762C165.402 366.826 165.338 366.954 165.274 367.018ZM165.274 364.654C165.21 364.718 165.081 364.782 165.018 364.782C164.89 364.782 164.826 364.718 164.761 364.654C164.697 364.591 164.633 364.463 164.633 364.399C164.633 364.271 164.697 364.207 164.761 364.143C164.826 364.08 164.954 364.016 165.018 364.016C165.145 364.016 165.21 364.08 165.274 364.143C165.338 364.207 165.402 364.335 165.402 364.399C165.402 364.463 165.338 364.591 165.274 364.654ZM165.274 362.227C165.21 362.291 165.081 362.355 165.018 362.355C164.89 362.355 164.826 362.291 164.761 362.227C164.697 362.163 164.633 362.036 164.633 361.972C164.633 361.844 164.697 361.78 164.761 361.716C164.826 361.652 164.954 361.588 165.018 361.588C165.145 361.588 165.21 361.652 165.274 361.716C165.338 361.78 165.402 361.908 165.402 361.972C165.402 362.036 165.338 362.163 165.274 362.227Z" fill="#2B51FF"/>
<path d="M135.769 340V356.798H150.169V342.299L147.865 340H135.769ZM144.985 354.371H138.585C138.394 354.371 138.201 354.18 138.201 353.988C138.201 353.796 138.394 353.605 138.585 353.605H144.985C145.177 353.605 145.369 353.796 145.369 353.988C145.369 354.18 145.177 354.371 144.985 354.371ZM144.985 352.008H138.585C138.394 352.008 138.201 351.816 138.201 351.625C138.201 351.433 138.394 351.242 138.585 351.242H144.985C145.177 351.242 145.369 351.433 145.369 351.625C145.369 351.816 145.177 352.008 144.985 352.008ZM144.985 349.581H138.585C138.394 349.581 138.201 349.389 138.201 349.198C138.201 349.006 138.394 348.814 138.585 348.814H144.985C145.177 348.814 145.369 349.006 145.369 349.198C145.369 349.389 145.177 349.581 144.985 349.581ZM144.985 347.217H138.585C138.394 347.217 138.201 347.026 138.201 346.834C138.201 346.643 138.394 346.451 138.585 346.451H144.985C145.177 346.451 145.369 346.643 145.369 346.834C145.369 347.026 145.177 347.217 144.985 347.217ZM147.673 354.243C147.61 354.307 147.481 354.371 147.417 354.371C147.289 354.371 147.226 354.307 147.161 354.243C147.097 354.18 147.033 354.052 147.033 353.988C147.033 353.924 147.097 353.796 147.161 353.733C147.226 353.669 147.353 353.605 147.417 353.605C147.481 353.605 147.61 353.669 147.673 353.733C147.737 353.796 147.801 353.924 147.801 353.988C147.801 354.052 147.737 354.18 147.673 354.243ZM147.673 351.88C147.61 351.944 147.481 352.008 147.417 352.008C147.353 352.008 147.226 351.944 147.161 351.88C147.033 351.816 146.969 351.688 146.969 351.561C146.969 351.433 147.033 351.369 147.097 351.305C147.161 351.242 147.289 351.178 147.353 351.178C147.417 351.178 147.545 351.242 147.61 351.305C147.673 351.369 147.737 351.497 147.737 351.561C147.737 351.625 147.737 351.816 147.673 351.88ZM147.673 349.453C147.61 349.517 147.481 349.581 147.417 349.581C147.353 349.581 147.226 349.517 147.161 349.453C147.033 349.389 146.969 349.261 146.969 349.198C146.969 349.134 147.033 349.006 147.097 348.942C147.161 348.878 147.289 348.814 147.353 348.814C147.417 348.814 147.545 348.878 147.61 348.942C147.673 349.006 147.737 349.134 147.737 349.198C147.737 349.261 147.737 349.389 147.673 349.453ZM147.673 347.09C147.61 347.154 147.481 347.217 147.417 347.217C147.353 347.217 147.226 347.154 147.161 347.09C147.097 347.026 147.033 346.898 147.033 346.834C147.033 346.771 147.097 346.643 147.161 346.579C147.226 346.515 147.353 346.451 147.417 346.451C147.481 346.451 147.61 346.515 147.673 346.579C147.737 346.643 147.801 346.771 147.801 346.834C147.801 346.898 147.737 347.026 147.673 347.09Z" fill="#2B51FF"/>
<path d="M153.37 343.705V343.769L154.201 345.365C154.265 345.493 154.394 345.557 154.586 345.557C154.649 345.557 154.713 345.557 154.777 345.493C154.969 345.365 155.033 345.174 154.969 344.982L154.458 343.96H160.602V351.561C160.602 351.753 160.793 351.944 160.986 351.944C161.177 351.944 161.37 351.753 161.37 351.561V343.577C161.37 343.385 161.177 343.194 160.986 343.194H154.394L154.906 342.172C155.033 341.98 154.906 341.725 154.713 341.661C154.522 341.533 154.265 341.661 154.201 341.852L153.37 343.449V343.513V343.577V343.705C153.37 343.662 153.37 343.662 153.37 343.705Z" fill="#2B51FF"/>
<path d="M149.785 367.145H142.169V361.013L143.193 361.524C143.257 361.524 143.321 361.588 143.385 361.588C143.513 361.588 143.705 361.524 143.769 361.396C143.897 361.205 143.769 360.949 143.577 360.885L141.977 360.055H141.657L140.057 360.885C139.865 361.013 139.801 361.205 139.865 361.396C139.993 361.588 140.185 361.651 140.377 361.588L141.401 361.077V367.592C141.401 367.783 141.593 367.975 141.785 367.975H149.785C149.977 367.975 150.169 367.783 150.169 367.592C150.169 367.4 149.977 367.145 149.785 367.145Z" fill="#2B51FF"/>
</g>
<g filter="url(#filter1_d_12927_77986)">
<rect x="282.55" y="349" width="61.8963" height="62" rx="8" fill="white" shape-rendering="crispEdges"/>
<path d="M322.608 374.988H322.5C322.392 374.988 322.285 374.934 322.231 374.88C322.177 374.826 322.123 374.718 322.177 374.61C322.231 374.233 322.285 373.856 322.285 373.532C322.285 369.92 319.374 367.01 315.762 367.01C313.283 367.01 311.019 368.411 309.941 370.621C309.887 370.783 309.671 370.837 309.51 370.783C308.97 370.567 308.378 370.406 307.785 370.406C305.467 370.406 303.581 372.292 303.581 374.664V374.772C303.581 374.934 303.473 375.095 303.311 375.095C300.831 375.58 298.999 377.844 298.999 380.378C298.999 382.911 300.562 385.229 302.772 385.822H309.133V380.917C309.133 380.755 309.294 380.593 309.456 380.593H316.895C317.056 380.593 317.218 380.755 317.218 380.917V385.822H322.931C325.789 385.714 327.999 383.342 327.999 380.378C327.999 377.413 325.573 374.988 322.608 374.988ZM302.718 382.264H301.371V380.917H302.718V382.264ZM304.766 384.259H303.419V382.911H304.766V384.259ZM304.766 382.264H303.419V380.917H304.766V382.264ZM308.108 384.259H305.413V382.911H308.108V384.259ZM308.108 382.264H305.413V380.917H308.108V382.264ZM312.151 379.569H310.804V378.222H312.151V379.569ZM312.151 377.521H310.804V375.473H312.151V377.521ZM314.199 379.569H312.851V378.222H314.199V379.569ZM314.199 377.521H312.851V376.173H314.199V377.521ZM314.199 375.527H312.851V374.179H314.199V375.527ZM316.194 379.569H314.846V378.222H316.194V379.569ZM316.194 377.521H314.846V375.473H316.194V377.521ZM317.11 370.459C316.248 369.813 315.439 369.651 315.439 369.651C315.277 369.597 315.116 369.435 315.169 369.274C315.224 369.112 315.385 368.95 315.547 369.004C315.601 369.004 316.463 369.22 317.433 369.92C318.35 370.567 319.482 371.807 319.859 374.017C319.913 374.179 319.751 374.395 319.59 374.395H319.536C319.374 374.395 319.212 374.287 319.212 374.125C318.943 372.508 318.242 371.268 317.11 370.459ZM320.937 384.259H318.242V382.911H320.937V384.259ZM320.937 382.264H318.242V380.917H320.937V382.264ZM322.931 384.259H321.584V382.911H322.931V384.259ZM322.931 382.264H321.584V380.917H322.931V382.264ZM324.98 382.264H323.632V380.917H324.98V382.264Z" fill="#2B51FF"/>
<path d="M314.522 383.289H311.827V385.984H314.522V383.289Z" fill="#2B51FF"/>
<path d="M325.034 392.344H315.277V387.978H316.571V381.24H309.779V387.978H311.181V392.344H301.424C301.263 392.344 301.101 392.506 301.101 392.668C301.101 392.829 301.263 392.991 301.424 392.991H311.558C311.72 392.991 311.881 392.829 311.881 392.668V387.924H314.577V392.668C314.577 392.829 314.738 392.991 314.9 392.991H325.034C325.195 392.991 325.357 392.829 325.357 392.668C325.357 392.506 325.195 392.344 325.034 392.344ZM315.169 386.307C315.169 386.469 315.008 386.631 314.846 386.631H311.45C311.288 386.631 311.127 386.469 311.127 386.307V382.911C311.127 382.75 311.288 382.588 311.45 382.588H314.846C315.008 382.588 315.169 382.75 315.169 382.911V386.307Z" fill="#2B51FF"/>
</g>
<rect x="262" y="123" width="100" height="100" rx="8" fill="url(#paint1_linear_12927_77986)"/>
<path d="M304.145 172.281C304.145 166.401 304.931 160.913 306.24 156.731C306.895 154.641 307.68 152.942 308.466 151.766C302.312 154.117 297.731 162.351 297.469 172.281H304.145Z" fill="#2B51FF"/>
<path d="M281.76 148.499C284.901 148.499 287.52 145.885 287.52 142.75C287.52 139.615 284.901 137 281.76 137C278.619 137 276 139.613 276 142.75C276 145.887 278.618 148.499 281.76 148.499Z" fill="#2B51FF"/>
<path d="M300.611 156.471C301.658 154.903 302.836 153.596 304.014 152.551C296.16 155.686 290.4 163.265 290.138 172.282H296.029C296.16 166.271 297.731 160.783 300.611 156.471Z" fill="#2B51FF"/>
<path d="M281.76 197.502C278.618 197.502 276 200.115 276 203.252C276 206.389 278.618 209.001 281.76 209.001C284.903 209.001 287.52 206.387 287.52 203.252C287.52 200.117 284.901 197.502 281.76 197.502Z" fill="#2B51FF"/>
<path d="M300.611 189.66C297.731 185.348 296.16 179.86 296.029 173.85H290.138C290.531 182.735 296.16 190.314 304.014 193.58C302.836 192.535 301.658 191.229 300.611 189.66Z" fill="#2B51FF"/>
<path d="M305.847 173.98C305.978 186.526 309.251 195.28 312.262 195.28C315.272 195.28 318.545 186.656 318.676 173.98H305.847Z" fill="#2B51FF"/>
<path d="M318.545 172.284C318.415 159.74 315.141 150.984 312.131 150.984C309.12 150.984 305.847 159.608 305.716 172.284H318.545Z" fill="#2B51FF"/>
<path d="M320.116 172.281H326.662C326.4 162.351 321.817 154.117 315.666 151.766C316.451 152.942 317.236 154.641 317.891 156.731C319.33 160.913 320.116 166.401 320.116 172.281Z" fill="#2B51FF"/>
<path d="M304.145 173.98H297.6C297.862 183.912 302.443 192.144 308.596 194.496C307.81 193.32 307.026 191.621 306.371 189.531C304.931 185.349 304.276 179.861 304.145 173.98Z" fill="#2B51FF"/>
<path d="M342.239 148.499C345.381 148.499 348 145.885 348 142.75C348 139.615 345.381 137 342.239 137C339.097 137 336.48 139.613 336.48 142.75C336.48 145.887 339.097 148.499 342.239 148.499Z" fill="#2B51FF"/>
<path d="M342.239 197.5C339.097 197.5 336.48 200.113 336.48 203.25C336.48 206.387 339.097 208.999 342.239 208.999C345.381 208.999 348 206.385 348 203.25C348 200.115 345.381 197.5 342.239 197.5Z" fill="#2B51FF"/>
<path d="M336.742 198.283C336.872 198.151 337.004 198.021 337.004 198.021C337.091 197.934 337.178 197.89 337.266 197.89L337.396 197.76L337.526 197.63C337.526 197.63 337.658 197.63 337.658 197.498L337.788 197.368C337.788 197.368 337.92 197.368 337.92 197.237L338.051 197.106C338.051 197.106 338.182 197.106 338.182 196.976L338.312 196.845C338.312 196.845 338.443 196.845 338.443 196.715C338.575 196.715 338.575 196.583 338.705 196.583H338.837C338.967 196.583 338.967 196.453 339.097 196.453H339.229C339.316 196.453 339.403 196.41 339.491 196.323H339.621C339.621 196.323 339.753 196.323 339.753 196.191H341.716V150.065H340.145C340.145 150.065 340.014 150.065 340.014 149.935H339.883C339.883 149.935 339.753 149.935 339.753 149.803H339.621C339.534 149.803 339.447 149.76 339.359 149.673H339.229C339.097 149.673 338.967 149.541 338.967 149.541H338.837C338.705 149.541 338.705 149.411 338.575 149.411C338.575 149.411 338.443 149.411 338.443 149.281L338.312 149.15C338.312 149.15 338.182 149.15 338.182 149.02L338.051 148.888C338.051 148.888 337.92 148.888 337.92 148.758L337.788 148.628C337.788 148.628 337.658 148.628 337.658 148.496L337.526 148.366L337.396 148.235C337.309 148.148 337.222 148.061 337.134 147.974C337.047 147.887 336.96 147.8 336.872 147.713L336.742 147.581L336.611 147.451C336.611 147.451 336.611 147.321 336.48 147.321L336.349 147.19C336.349 147.19 336.349 147.06 336.218 147.06L336.087 146.928C336.087 146.928 336.087 146.798 335.956 146.798L335.825 146.668C335.825 146.668 335.825 146.536 335.695 146.536C335.695 146.406 335.563 146.406 335.563 146.275V146.145C335.563 146.014 335.433 146.014 335.433 145.883V145.753C335.433 145.665 335.389 145.578 335.301 145.491V145.361C335.301 145.361 335.301 145.23 335.171 145.23V143.27H289.091V143.531V144.838C289.091 144.925 289.047 144.968 288.96 144.968V145.099C288.96 145.186 288.916 145.23 288.828 145.23V145.361C288.828 145.448 288.785 145.535 288.698 145.621V145.753C288.698 145.883 288.567 146.014 288.567 146.014V146.145C288.567 146.275 288.436 146.275 288.436 146.406C288.436 146.406 288.436 146.536 288.305 146.536L288.174 146.668C288.174 146.668 288.174 146.798 288.043 146.798L287.913 146.928C287.913 146.928 287.913 147.06 287.782 147.06L287.651 147.19C287.651 147.19 287.651 147.321 287.52 147.321L287.389 147.451L287.258 147.581C287.171 147.669 287.084 147.756 286.996 147.843C286.909 147.931 286.822 148.018 286.734 148.105L286.603 148.235L286.472 148.366C286.472 148.366 286.342 148.366 286.342 148.496L286.211 148.628C286.211 148.628 286.08 148.628 286.08 148.758L285.949 148.888C285.949 148.888 285.818 148.888 285.818 149.02L285.687 149.15C285.687 149.15 285.556 149.15 285.556 149.281C285.425 149.281 285.425 149.411 285.294 149.411H285.163C285.032 149.411 285.032 149.541 284.901 149.541H284.771C284.64 149.541 284.64 149.673 284.509 149.673H284.378C284.378 149.673 284.247 149.673 284.247 149.803H284.116C284.116 149.803 283.985 149.803 283.985 149.935H282.415V195.8H284.378C284.378 195.8 284.509 195.8 284.509 195.93H284.64C284.727 195.93 284.814 195.974 284.901 196.061H285.032C285.163 196.061 285.294 196.191 285.294 196.191H285.425C285.556 196.191 285.556 196.323 285.687 196.323C285.687 196.323 285.818 196.323 285.818 196.453L285.949 196.583C285.949 196.583 286.08 196.583 286.08 196.715L286.211 196.845C286.211 196.845 286.342 196.845 286.342 196.976L286.472 197.106C286.472 197.106 286.603 197.106 286.603 197.237L286.734 197.368L286.865 197.498C286.953 197.586 287.04 197.673 287.127 197.76C287.215 197.846 287.302 197.934 287.389 198.021L287.52 198.151L287.651 198.283C287.651 198.283 287.651 198.413 287.782 198.413L287.913 198.543C287.913 198.543 287.913 198.675 288.043 198.675L288.174 198.805C288.174 198.805 288.174 198.936 288.305 198.936L288.436 199.066C288.436 199.066 288.436 199.197 288.567 199.197C288.567 199.328 288.698 199.328 288.698 199.458V199.59C288.698 199.72 288.828 199.72 288.828 199.85V199.981C288.828 200.068 288.872 200.155 288.96 200.243V200.373C288.96 200.373 288.96 200.503 289.091 200.503V200.635C289.091 200.635 289.091 200.765 289.222 200.765V202.072V202.333H334.909V200.373C334.909 200.373 334.909 200.243 335.04 200.243V200.112C335.04 200.025 335.084 199.938 335.171 199.85V199.72C335.171 199.59 335.301 199.458 335.301 199.458V199.328C335.301 199.197 335.433 199.197 335.433 199.066C335.433 199.066 335.433 198.936 335.563 198.936L335.695 198.805C335.695 198.805 335.695 198.675 335.825 198.675L335.956 198.543C335.956 198.543 335.956 198.413 336.087 198.413L336.218 198.283C336.218 198.283 336.218 198.151 336.349 198.151C336.611 198.413 336.742 198.283 336.742 198.283ZM332.421 149.281H335.695V152.548H332.421V149.281ZM288.305 149.281H291.578V152.548H288.305V149.281ZM291.578 196.583H288.305V193.316H291.578V196.583ZM335.695 196.583H332.421V193.316H335.695V196.583ZM312.131 196.845C299.04 196.845 288.436 186.261 288.436 173.194C288.436 160.127 299.04 149.541 312.131 149.541C325.221 149.541 335.825 160.127 335.825 173.194C335.825 186.261 325.221 196.845 312.131 196.845Z" fill="#2B51FF"/>
<path d="M320.116 173.98C320.116 179.861 319.33 185.349 318.021 189.531C317.367 191.621 316.581 193.32 315.796 194.496C321.949 192.144 326.53 183.912 326.792 173.98H320.116Z" fill="#2B51FF"/>
<path d="M320.378 152.551C321.557 153.596 322.734 154.903 323.782 156.471C326.662 160.783 328.233 166.271 328.363 172.282H334.254C333.862 163.396 328.233 155.818 320.378 152.551Z" fill="#2B51FF"/>
<path d="M323.782 189.66C322.734 191.229 321.557 192.535 320.378 193.58C328.233 190.445 333.992 182.865 334.254 173.85H328.363C328.233 179.86 326.53 185.479 323.782 189.66Z" fill="#2B51FF"/>
<g filter="url(#filter2_d_12927_77986)">
<rect x="450.269" y="299" width="61.8963" height="62" rx="8" fill="white" shape-rendering="crispEdges"/>
<path d="M482.847 330.002H479.594C478.215 330.002 477.113 331.105 477.113 332.483V335.516H479.208V333.807C479.208 333.641 479.374 333.476 479.539 333.476C479.704 333.476 479.815 333.586 479.815 333.807V335.516H482.572V333.807C482.572 333.641 482.737 333.476 482.903 333.476C483.068 333.476 483.233 333.641 483.233 333.807V335.516H485.329V332.483C485.329 331.105 484.226 330.002 482.847 330.002Z" fill="#2B51FF"/>
<path d="M481.193 327.245C482.351 327.245 483.289 326.308 483.289 325.15C483.289 323.992 482.351 323.109 481.193 323.109C480.035 323.109 479.098 324.047 479.098 325.205C479.098 326.362 480.035 327.245 481.193 327.245Z" fill="#2B51FF"/>
<path d="M496.302 342.573C496.192 342.408 495.971 342.353 495.806 342.463C495.696 342.519 494.869 343.07 494.262 343.511V330.056C494.262 324.321 490.512 319.414 485.384 317.649H493.269L492.222 319.193C492.112 319.359 492.167 319.579 492.332 319.689C492.387 319.744 492.442 319.744 492.498 319.744C492.608 319.744 492.718 319.689 492.773 319.579L494.152 317.484V317.429V317.373V317.318V317.263V317.208C493.656 316.436 492.828 315.223 492.773 315.168C492.663 315.002 492.442 314.947 492.277 315.057C492.112 315.168 492.056 315.388 492.167 315.554C492.222 315.664 492.773 316.491 493.214 317.098H480.421C475.017 317.208 470.441 320.847 468.786 325.81V316.491L470.33 317.539C470.385 317.594 470.441 317.594 470.496 317.594C470.606 317.594 470.716 317.539 470.771 317.429C470.882 317.263 470.827 317.043 470.661 316.932L468.566 315.554H468.29C467.518 316.05 466.305 316.877 466.25 316.932C466.084 317.043 466.029 317.263 466.139 317.429C466.25 317.594 466.47 317.649 466.636 317.539C466.746 317.484 467.573 316.932 468.18 316.491V329.946C468.18 335.681 471.929 340.589 477.058 342.353H469.503L470.551 340.809C470.661 340.643 470.606 340.423 470.441 340.313C470.275 340.202 470.055 340.258 469.944 340.423L468.566 342.519V342.573V342.629V342.684V342.739V342.794C469.062 343.566 469.889 344.779 469.944 344.834C469.999 344.945 470.11 345 470.22 345C470.275 345 470.33 345 470.385 344.945C470.551 344.834 470.606 344.614 470.496 344.449C470.441 344.338 469.889 343.511 469.448 342.904H482.131C482.186 342.904 482.241 342.904 482.296 342.849C487.535 342.353 491.836 338.824 493.49 334.026V343.511L491.946 342.463C491.781 342.353 491.56 342.408 491.45 342.573C491.34 342.739 491.395 342.96 491.56 343.07L493.656 344.449H493.931C494.703 343.952 495.861 343.125 495.971 343.07C496.358 342.96 496.413 342.739 496.302 342.573ZM472.205 327.189C472.15 327.354 472.04 327.409 471.874 327.409H471.764C471.598 327.354 471.488 327.134 471.543 326.968C472.536 323.77 475.072 321.233 478.326 320.296C478.491 320.241 478.712 320.351 478.767 320.516C478.822 320.682 478.712 320.903 478.546 320.958C475.459 321.895 473.143 324.211 472.205 327.189ZM478.491 339.044C478.657 339.1 478.767 339.265 478.712 339.486C478.657 339.651 478.546 339.706 478.381 339.706H478.271C475.017 338.769 472.536 336.232 471.488 333.034C471.433 332.869 471.543 332.648 471.709 332.593C471.874 332.538 472.095 332.648 472.15 332.813C473.143 335.791 475.459 338.107 478.491 339.044ZM481.193 322.446C482.737 322.446 483.95 323.66 483.95 325.204C483.95 326.747 482.737 327.961 481.193 327.961C479.649 327.961 478.436 326.748 478.436 325.204C478.436 323.659 479.649 322.446 481.193 322.446ZM476.727 336.232C476.561 336.232 476.396 336.067 476.396 335.901V332.482C476.396 330.718 477.829 329.284 479.594 329.284H482.847C484.612 329.284 486.046 330.718 486.046 332.482V335.846C486.046 336.012 485.88 336.177 485.715 336.177H476.727V336.232ZM490.843 332.979C489.851 336.177 487.369 338.659 484.171 339.651H484.061C483.895 339.651 483.785 339.541 483.73 339.431C483.675 339.265 483.785 339.044 483.95 338.989C486.928 338.052 489.244 335.736 490.126 332.813C490.181 332.648 490.402 332.538 490.567 332.593C490.788 332.648 490.898 332.813 490.843 332.979ZM490.623 327.409H490.512C490.347 327.409 490.237 327.299 490.181 327.189C489.244 324.211 486.928 321.895 484.006 321.013C483.84 320.958 483.73 320.737 483.785 320.572C483.84 320.406 484.061 320.296 484.226 320.351C487.424 321.344 489.906 323.825 490.898 327.023C490.898 327.189 490.788 327.354 490.623 327.409Z" fill="#2B51FF"/>
</g>
<defs>
<filter id="filter0_d_12927_77986" x="110.821" y="321" width="81.8962" height="82" filterUnits="userSpaceOnUse" color-interpolation-filters="sRGB">
<feFlood flood-opacity="0" result="BackgroundImageFix"/>
<feColorMatrix in="SourceAlpha" type="matrix" values="0 0 0 0 0 0 0 0 0 0 0 0 0 0 0 0 0 0 127 0" result="hardAlpha"/>
<feOffset dy="6"/>
<feGaussianBlur stdDeviation="5"/>
<feComposite in2="hardAlpha" operator="out"/>
<feColorMatrix type="matrix" values="0 0 0 0 0.580392 0 0 0 0 0.713726 0 0 0 0 0.980392 0 0 0 0.5 0"/>
<feBlend mode="normal" in2="BackgroundImageFix" result="effect1_dropShadow_12927_77986"/>
<feBlend mode="normal" in="SourceGraphic" in2="effect1_dropShadow_12927_77986" result="shape"/>
</filter>
<filter id="filter1_d_12927_77986" x="272.55" y="345" width="81.8962" height="82" filterUnits="userSpaceOnUse" color-interpolation-filters="sRGB">
<feFlood flood-opacity="0" result="BackgroundImageFix"/>
<feColorMatrix in="SourceAlpha" type="matrix" values="0 0 0 0 0 0 0 0 0 0 0 0 0 0 0 0 0 0 127 0" result="hardAlpha"/>
<feOffset dy="6"/>
<feGaussianBlur stdDeviation="5"/>
<feComposite in2="hardAlpha" operator="out"/>
<feColorMatrix type="matrix" values="0 0 0 0 0.580392 0 0 0 0 0.713726 0 0 0 0 0.980392 0 0 0 0.5 0"/>
<feBlend mode="normal" in2="BackgroundImageFix" result="effect1_dropShadow_12927_77986"/>
<feBlend mode="normal" in="SourceGraphic" in2="effect1_dropShadow_12927_77986" result="shape"/>
</filter>
<filter id="filter2_d_12927_77986" x="440.269" y="295" width="81.8962" height="82" filterUnits="userSpaceOnUse" color-interpolation-filters="sRGB">
<feFlood flood-opacity="0" result="BackgroundImageFix"/>
<feColorMatrix in="SourceAlpha" type="matrix" values="0 0 0 0 0 0 0 0 0 0 0 0 0 0 0 0 0 0 127 0" result="hardAlpha"/>
<feOffset dy="6"/>
<feGaussianBlur stdDeviation="5"/>
<feComposite in2="hardAlpha" operator="out"/>
<feColorMatrix type="matrix" values="0 0 0 0 0.580392 0 0 0 0 0.713726 0 0 0 0 0.980392 0 0 0 0.5 0"/>
<feBlend mode="normal" in2="BackgroundImageFix" result="effect1_dropShadow_12927_77986"/>
<feBlend mode="normal" in="SourceGraphic" in2="effect1_dropShadow_12927_77986" result="shape"/>
</filter>
<linearGradient id="paint0_linear_12927_77986" x1="258.068" y1="631" x2="231.023" y2="267.507" gradientUnits="userSpaceOnUse">
<stop stop-color="#D5DCFF"/>
<stop offset="0.176444" stop-color="#E2E8FF" stop-opacity="0.4"/>
<stop offset="1" stop-color="#F4FAFF" stop-opacity="0"/>
</linearGradient>
<linearGradient id="paint1_linear_12927_77986" x1="341" y1="248" x2="301" y2="130.5" gradientUnits="userSpaceOnUse">
<stop stop-color="#7CB1FF"/>
<stop offset="1" stop-color="white"/>
</linearGradient>
</defs>
</svg>
