<svg width="307" height="286" viewBox="0 0 307 286" fill="none" xmlns="http://www.w3.org/2000/svg">
<g filter="url(#filter0_d_12927_77966)">
<path d="M155.5 42C155.5 41.4696 155.289 40.9609 154.914 40.5858C154.539 40.2107 154.03 40 153.5 40C152.97 40 152.461 40.2107 152.086 40.5858C151.711 40.9609 151.5 41.4696 151.5 42C151.5 46.6545 151.5 51.3089 151.5 55.9634C151.5 88.7535 151.5 121.544 151.5 154.334C151.635 161.055 146.215 167.321 139.561 168.183C138.88 168.284 138.193 168.334 137.5 168.334C101.833 168.334 66.1667 168.334 30.5 168.334C22.6156 168.21 15.1303 173.929 13.1412 181.557C12.7133 183.114 12.4997 184.723 12.5 186.334C12.5 189.556 12.5 192.778 12.5 196C12.5 196.53 12.7107 197.039 13.0858 197.414C13.4609 197.789 13.9696 198 14.5 198C15.0304 198 15.5391 197.789 15.9142 197.414C16.2893 197.039 16.5 196.53 16.5 196C16.5 192.778 16.5 189.556 16.5 186.334C16.4999 185.074 16.6663 183.825 16.9984 182.616C18.5412 176.696 24.3676 172.233 30.5 172.334C66.1667 172.334 101.833 172.334 137.5 172.334C138.386 172.334 139.268 172.27 140.144 172.141C148.721 171.025 155.665 162.978 155.5 154.334C155.5 121.544 155.5 88.7535 155.5 55.9634C155.5 51.3089 155.5 46.6545 155.5 42Z" fill="#95A8FF"/>
<path d="M151.5 42C151.5 41.4696 151.711 40.9609 152.086 40.5858C152.461 40.2107 152.97 40 153.5 40C154.03 40 154.539 40.2107 154.914 40.5858C155.289 40.9609 155.5 41.4696 155.5 42C155.5 46.6545 155.5 51.3089 155.5 55.9634C155.5 88.7535 155.5 121.544 155.5 154.334C155.365 161.055 160.785 167.321 167.439 168.183C168.12 168.284 168.807 168.334 169.5 168.334C205.167 168.334 240.833 168.334 276.5 168.334C284.384 168.21 291.87 173.929 293.859 181.557C294.287 183.114 294.5 184.723 294.5 186.334C294.5 189.556 294.5 192.778 294.5 196C294.5 196.53 294.289 197.039 293.914 197.414C293.539 197.789 293.03 198 292.5 198C291.97 198 291.461 197.789 291.086 197.414C290.711 197.039 290.5 196.53 290.5 196C290.5 192.778 290.5 189.556 290.5 186.334C290.5 185.074 290.334 183.825 290.002 182.616C288.459 176.696 282.632 172.233 276.5 172.334C240.833 172.334 205.167 172.334 169.5 172.334C168.614 172.334 167.732 172.27 166.856 172.141C158.279 171.025 151.335 162.978 151.5 154.334C151.5 121.544 151.5 88.7535 151.5 55.9634C151.5 51.3089 151.5 46.6545 151.5 42Z" fill="#95A8FF"/>
</g>
<g filter="url(#filter1_d_12927_77966)">
<rect x="36.5" y="211" width="234" height="59" rx="8" fill="#F9FAFF" shape-rendering="crispEdges"/>
<rect x="37" y="211.5" width="233" height="58" rx="7.5" stroke="#FBFBFB" shape-rendering="crispEdges"/>
<path d="M111.091 238.04C110.981 237.695 110.833 237.386 110.648 237.114C110.466 236.837 110.248 236.602 109.994 236.409C109.741 236.212 109.451 236.062 109.125 235.96C108.803 235.858 108.449 235.807 108.062 235.807C107.407 235.807 106.816 235.975 106.29 236.312C105.763 236.65 105.347 237.144 105.04 237.795C104.737 238.443 104.585 239.237 104.585 240.176C104.585 241.119 104.739 241.917 105.045 242.568C105.352 243.22 105.773 243.714 106.307 244.051C106.841 244.388 107.449 244.557 108.131 244.557C108.763 244.557 109.314 244.428 109.784 244.17C110.258 243.913 110.623 243.549 110.881 243.08C111.142 242.606 111.273 242.049 111.273 241.409L111.727 241.494H108.398V240.045H112.972V241.369C112.972 242.347 112.763 243.195 112.347 243.915C111.934 244.631 111.362 245.184 110.631 245.574C109.903 245.964 109.07 246.159 108.131 246.159C107.078 246.159 106.153 245.917 105.358 245.432C104.566 244.947 103.949 244.259 103.506 243.369C103.063 242.475 102.841 241.415 102.841 240.188C102.841 239.259 102.97 238.426 103.227 237.688C103.485 236.949 103.847 236.322 104.312 235.807C104.782 235.288 105.333 234.892 105.966 234.619C106.602 234.343 107.297 234.205 108.051 234.205C108.68 234.205 109.265 234.297 109.807 234.483C110.352 234.669 110.837 234.932 111.261 235.273C111.689 235.614 112.044 236.019 112.324 236.489C112.604 236.955 112.794 237.472 112.892 238.04H111.091ZM114.564 246V237.273H116.206V238.659H116.297C116.456 238.189 116.736 237.82 117.138 237.551C117.543 237.278 118.001 237.142 118.513 237.142C118.619 237.142 118.744 237.146 118.888 237.153C119.036 237.161 119.151 237.17 119.234 237.182V238.807C119.166 238.788 119.045 238.767 118.871 238.744C118.696 238.718 118.522 238.705 118.348 238.705C117.946 238.705 117.589 238.79 117.274 238.96C116.964 239.127 116.717 239.36 116.536 239.659C116.354 239.955 116.263 240.292 116.263 240.67V246H114.564ZM123.653 246.176C122.794 246.176 122.053 245.992 121.432 245.625C120.814 245.254 120.337 244.733 120 244.062C119.667 243.388 119.5 242.598 119.5 241.693C119.5 240.799 119.667 240.011 120 239.33C120.337 238.648 120.807 238.116 121.409 237.733C122.015 237.35 122.723 237.159 123.534 237.159C124.027 237.159 124.504 237.241 124.966 237.403C125.428 237.566 125.843 237.822 126.21 238.17C126.578 238.519 126.867 238.972 127.08 239.528C127.292 240.081 127.398 240.754 127.398 241.545V242.148H120.46V240.875H125.733C125.733 240.428 125.642 240.032 125.46 239.688C125.278 239.339 125.023 239.064 124.693 238.864C124.367 238.663 123.985 238.562 123.545 238.562C123.068 238.562 122.652 238.68 122.295 238.915C121.943 239.146 121.67 239.449 121.477 239.824C121.288 240.195 121.193 240.598 121.193 241.034V242.028C121.193 242.612 121.295 243.108 121.5 243.517C121.708 243.926 121.998 244.239 122.369 244.455C122.741 244.667 123.174 244.773 123.67 244.773C123.992 244.773 124.286 244.727 124.551 244.636C124.816 244.542 125.045 244.402 125.239 244.216C125.432 244.03 125.58 243.801 125.682 243.528L127.29 243.818C127.161 244.292 126.93 244.706 126.597 245.062C126.267 245.415 125.852 245.689 125.352 245.886C124.856 246.08 124.29 246.176 123.653 246.176ZM132.544 246.176C131.684 246.176 130.944 245.992 130.322 245.625C129.705 245.254 129.228 244.733 128.891 244.062C128.557 243.388 128.391 242.598 128.391 241.693C128.391 240.799 128.557 240.011 128.891 239.33C129.228 238.648 129.697 238.116 130.3 237.733C130.906 237.35 131.614 237.159 132.425 237.159C132.917 237.159 133.394 237.241 133.857 237.403C134.319 237.566 134.733 237.822 135.101 238.17C135.468 238.519 135.758 238.972 135.97 239.528C136.182 240.081 136.288 240.754 136.288 241.545V242.148H129.351V240.875H134.624C134.624 240.428 134.533 240.032 134.351 239.688C134.169 239.339 133.913 239.064 133.584 238.864C133.258 238.663 132.875 238.562 132.436 238.562C131.959 238.562 131.542 238.68 131.186 238.915C130.834 239.146 130.561 239.449 130.368 239.824C130.179 240.195 130.084 240.598 130.084 241.034V242.028C130.084 242.612 130.186 243.108 130.391 243.517C130.599 243.926 130.889 244.239 131.26 244.455C131.631 244.667 132.065 244.773 132.561 244.773C132.883 244.773 133.177 244.727 133.442 244.636C133.707 244.542 133.936 244.402 134.129 244.216C134.322 244.03 134.47 243.801 134.572 243.528L136.18 243.818C136.052 244.292 135.821 244.706 135.487 245.062C135.158 245.415 134.743 245.689 134.243 245.886C133.747 246.08 133.18 246.176 132.544 246.176ZM139.372 240.818V246H137.673V237.273H139.304V238.693H139.412C139.613 238.231 139.927 237.86 140.355 237.58C140.787 237.299 141.33 237.159 141.986 237.159C142.58 237.159 143.101 237.284 143.548 237.534C143.995 237.78 144.342 238.148 144.588 238.636C144.834 239.125 144.957 239.729 144.957 240.449V246H143.259V240.653C143.259 240.021 143.094 239.527 142.764 239.17C142.435 238.811 141.982 238.631 141.406 238.631C141.012 238.631 140.662 238.716 140.355 238.886C140.052 239.057 139.812 239.307 139.634 239.636C139.459 239.962 139.372 240.356 139.372 240.818ZM150.607 246V234.364H154.754C155.656 234.364 156.404 234.519 156.999 234.83C157.597 235.14 158.044 235.57 158.339 236.119C158.635 236.665 158.783 237.295 158.783 238.011C158.783 238.723 158.633 239.35 158.334 239.892C158.038 240.43 157.591 240.848 156.993 241.148C156.398 241.447 155.65 241.597 154.749 241.597H151.607V240.085H154.589C155.158 240.085 155.62 240.004 155.976 239.841C156.336 239.678 156.599 239.441 156.766 239.131C156.932 238.82 157.016 238.447 157.016 238.011C157.016 237.572 156.93 237.191 156.76 236.869C156.593 236.547 156.33 236.301 155.97 236.131C155.614 235.956 155.146 235.869 154.567 235.869H152.362V246H150.607ZM156.351 240.75L159.226 246H157.226L154.408 240.75H156.351ZM163.849 246.176C163.031 246.176 162.317 245.989 161.707 245.614C161.098 245.239 160.624 244.714 160.287 244.04C159.95 243.366 159.781 242.578 159.781 241.676C159.781 240.771 159.95 239.979 160.287 239.301C160.624 238.623 161.098 238.097 161.707 237.722C162.317 237.347 163.031 237.159 163.849 237.159C164.668 237.159 165.382 237.347 165.991 237.722C166.601 238.097 167.075 238.623 167.412 239.301C167.749 239.979 167.918 240.771 167.918 241.676C167.918 242.578 167.749 243.366 167.412 244.04C167.075 244.714 166.601 245.239 165.991 245.614C165.382 245.989 164.668 246.176 163.849 246.176ZM163.855 244.75C164.385 244.75 164.825 244.61 165.173 244.33C165.522 244.049 165.779 243.676 165.946 243.21C166.116 242.744 166.202 242.231 166.202 241.67C166.202 241.114 166.116 240.602 165.946 240.136C165.779 239.667 165.522 239.29 165.173 239.006C164.825 238.722 164.385 238.58 163.855 238.58C163.321 238.58 162.878 238.722 162.526 239.006C162.177 239.29 161.918 239.667 161.747 240.136C161.58 240.602 161.497 241.114 161.497 241.67C161.497 242.231 161.58 242.744 161.747 243.21C161.918 243.676 162.177 244.049 162.526 244.33C162.878 244.61 163.321 244.75 163.855 244.75ZM174.842 242.381V237.273H176.547V246H174.876V244.489H174.786C174.585 244.955 174.263 245.343 173.82 245.653C173.38 245.96 172.833 246.114 172.178 246.114C171.617 246.114 171.121 245.991 170.689 245.744C170.261 245.494 169.924 245.125 169.678 244.636C169.435 244.148 169.314 243.544 169.314 242.824V237.273H171.013V242.619C171.013 243.214 171.178 243.687 171.507 244.04C171.837 244.392 172.265 244.568 172.791 244.568C173.109 244.568 173.426 244.489 173.74 244.33C174.058 244.17 174.321 243.93 174.53 243.608C174.742 243.286 174.846 242.877 174.842 242.381ZM182.403 237.273V238.636H177.636V237.273H182.403ZM178.915 235.182H180.614V243.438C180.614 243.767 180.663 244.015 180.761 244.182C180.86 244.345 180.987 244.456 181.142 244.517C181.301 244.574 181.473 244.602 181.659 244.602C181.795 244.602 181.915 244.593 182.017 244.574C182.119 244.555 182.199 244.54 182.256 244.528L182.562 245.932C182.464 245.97 182.324 246.008 182.142 246.045C181.96 246.087 181.733 246.11 181.46 246.114C181.013 246.121 180.597 246.042 180.21 245.875C179.824 245.708 179.511 245.451 179.273 245.102C179.034 244.754 178.915 244.316 178.915 243.79V235.182ZM183.783 246V237.273H185.482V246H183.783ZM184.641 235.926C184.345 235.926 184.091 235.828 183.879 235.631C183.671 235.43 183.567 235.191 183.567 234.915C183.567 234.634 183.671 234.396 183.879 234.199C184.091 233.998 184.345 233.898 184.641 233.898C184.936 233.898 185.188 233.998 185.396 234.199C185.608 234.396 185.714 234.634 185.714 234.915C185.714 235.191 185.608 235.43 185.396 235.631C185.188 235.828 184.936 235.926 184.641 235.926ZM188.966 240.818V246H187.267V237.273H188.898V238.693H189.006C189.206 238.231 189.521 237.86 189.949 237.58C190.381 237.299 190.924 237.159 191.58 237.159C192.174 237.159 192.695 237.284 193.142 237.534C193.589 237.78 193.936 238.148 194.182 238.636C194.428 239.125 194.551 239.729 194.551 240.449V246H192.852V240.653C192.852 240.021 192.688 239.527 192.358 239.17C192.028 238.811 191.576 238.631 191 238.631C190.606 238.631 190.256 238.716 189.949 238.886C189.646 239.057 189.405 239.307 189.227 239.636C189.053 239.962 188.966 240.356 188.966 240.818ZM199.989 249.455C199.295 249.455 198.699 249.364 198.199 249.182C197.703 249 197.297 248.759 196.983 248.46C196.669 248.161 196.434 247.833 196.278 247.477L197.739 246.875C197.841 247.042 197.977 247.218 198.148 247.403C198.322 247.593 198.557 247.754 198.852 247.886C199.152 248.019 199.536 248.085 200.006 248.085C200.65 248.085 201.182 247.928 201.602 247.614C202.023 247.303 202.233 246.807 202.233 246.125V244.409H202.125C202.023 244.595 201.875 244.801 201.682 245.028C201.492 245.256 201.231 245.453 200.898 245.619C200.564 245.786 200.131 245.869 199.597 245.869C198.907 245.869 198.286 245.708 197.733 245.386C197.184 245.061 196.748 244.581 196.426 243.949C196.108 243.312 195.949 242.53 195.949 241.602C195.949 240.674 196.106 239.879 196.42 239.216C196.739 238.553 197.174 238.045 197.727 237.693C198.28 237.337 198.907 237.159 199.608 237.159C200.15 237.159 200.587 237.25 200.92 237.432C201.254 237.61 201.513 237.818 201.699 238.057C201.888 238.295 202.034 238.506 202.136 238.688H202.261V237.273H203.926V246.193C203.926 246.943 203.752 247.559 203.403 248.04C203.055 248.521 202.583 248.877 201.989 249.108C201.398 249.339 200.731 249.455 199.989 249.455ZM199.972 244.46C200.46 244.46 200.873 244.347 201.21 244.119C201.551 243.888 201.809 243.559 201.983 243.131C202.161 242.699 202.25 242.182 202.25 241.58C202.25 240.992 202.163 240.475 201.989 240.028C201.814 239.581 201.559 239.233 201.222 238.983C200.884 238.729 200.468 238.602 199.972 238.602C199.46 238.602 199.034 238.735 198.693 239C198.352 239.261 198.095 239.617 197.92 240.068C197.75 240.519 197.665 241.023 197.665 241.58C197.665 242.152 197.752 242.653 197.926 243.085C198.1 243.517 198.358 243.854 198.699 244.097C199.044 244.339 199.468 244.46 199.972 244.46Z" fill="#0D0F16"/>
</g>
<g filter="url(#filter2_d_12927_77966)">
<rect x="20" y="185" width="267" height="59" rx="8" fill="white" shape-rendering="crispEdges"/>
<path d="M95.1719 211.42C95.1113 210.883 94.8613 210.466 94.4219 210.17C93.9825 209.871 93.4295 209.722 92.7628 209.722C92.2855 209.722 91.8726 209.797 91.5241 209.949C91.1757 210.097 90.9048 210.301 90.7116 210.562C90.5223 210.82 90.4276 211.114 90.4276 211.443C90.4276 211.72 90.492 211.958 90.6207 212.159C90.7533 212.36 90.9257 212.528 91.1378 212.665C91.3537 212.797 91.5848 212.909 91.831 213C92.0772 213.087 92.3139 213.159 92.5412 213.216L93.6776 213.511C94.0488 213.602 94.4295 213.725 94.8196 213.881C95.2098 214.036 95.5715 214.241 95.9048 214.494C96.2382 214.748 96.5071 215.062 96.7116 215.438C96.92 215.812 97.0241 216.261 97.0241 216.784C97.0241 217.443 96.8537 218.028 96.5128 218.54C96.1757 219.051 95.6851 219.455 95.0412 219.75C94.401 220.045 93.6264 220.193 92.7173 220.193C91.8461 220.193 91.0923 220.055 90.456 219.778C89.8196 219.502 89.3215 219.11 88.9616 218.602C88.6018 218.091 88.4029 217.485 88.3651 216.784H90.1264C90.1605 217.205 90.2969 217.555 90.5355 217.835C90.7779 218.112 91.0866 218.318 91.4616 218.455C91.8404 218.587 92.2552 218.653 92.706 218.653C93.2022 218.653 93.6435 218.576 94.0298 218.42C94.42 218.261 94.7268 218.042 94.9503 217.761C95.1738 217.477 95.2855 217.146 95.2855 216.767C95.2855 216.422 95.187 216.14 94.9901 215.92C94.7969 215.701 94.5336 215.519 94.2003 215.375C93.8707 215.231 93.4976 215.104 93.081 214.994L91.706 214.619C90.7741 214.366 90.0355 213.992 89.4901 213.5C88.9484 213.008 88.6776 212.356 88.6776 211.545C88.6776 210.875 88.8594 210.29 89.223 209.79C89.5866 209.29 90.0791 208.902 90.7003 208.625C91.3215 208.345 92.0223 208.205 92.8026 208.205C93.5904 208.205 94.2855 208.343 94.8878 208.619C95.4938 208.896 95.9711 209.277 96.3196 209.761C96.6681 210.242 96.8499 210.795 96.8651 211.42H95.1719ZM98.4858 220V211.273H100.116V212.693H100.224C100.406 212.212 100.704 211.837 101.116 211.568C101.529 211.295 102.024 211.159 102.599 211.159C103.183 211.159 103.671 211.295 104.065 211.568C104.463 211.841 104.757 212.216 104.946 212.693H105.037C105.245 212.227 105.577 211.856 106.031 211.58C106.486 211.299 107.027 211.159 107.656 211.159C108.448 211.159 109.094 211.407 109.594 211.903C110.098 212.4 110.349 213.148 110.349 214.148V220H108.651V214.307C108.651 213.716 108.49 213.288 108.168 213.023C107.846 212.758 107.461 212.625 107.014 212.625C106.461 212.625 106.031 212.795 105.724 213.136C105.418 213.473 105.264 213.907 105.264 214.438V220H103.571V214.199C103.571 213.725 103.423 213.345 103.128 213.057C102.832 212.769 102.448 212.625 101.974 212.625C101.652 212.625 101.355 212.71 101.082 212.881C100.813 213.047 100.596 213.28 100.429 213.58C100.266 213.879 100.185 214.225 100.185 214.619V220H98.4858ZM114.666 220.193C114.113 220.193 113.613 220.091 113.166 219.886C112.719 219.678 112.365 219.377 112.104 218.983C111.846 218.589 111.717 218.106 111.717 217.534C111.717 217.042 111.812 216.636 112.001 216.318C112.191 216 112.446 215.748 112.768 215.562C113.09 215.377 113.45 215.237 113.848 215.142C114.246 215.047 114.651 214.975 115.064 214.926C115.587 214.866 116.011 214.816 116.337 214.778C116.662 214.737 116.899 214.67 117.047 214.58C117.195 214.489 117.268 214.341 117.268 214.136V214.097C117.268 213.6 117.128 213.216 116.848 212.943C116.571 212.67 116.159 212.534 115.609 212.534C115.037 212.534 114.587 212.661 114.257 212.915C113.931 213.165 113.706 213.443 113.581 213.75L111.984 213.386C112.174 212.856 112.45 212.428 112.814 212.102C113.181 211.773 113.604 211.534 114.081 211.386C114.558 211.235 115.06 211.159 115.587 211.159C115.935 211.159 116.304 211.201 116.695 211.284C117.089 211.364 117.456 211.511 117.797 211.727C118.142 211.943 118.424 212.252 118.643 212.653C118.863 213.051 118.973 213.568 118.973 214.205V220H117.314V218.807H117.246C117.136 219.027 116.971 219.242 116.751 219.455C116.532 219.667 116.25 219.843 115.905 219.983C115.56 220.123 115.147 220.193 114.666 220.193ZM115.036 218.83C115.505 218.83 115.907 218.737 116.24 218.551C116.577 218.366 116.833 218.123 117.007 217.824C117.185 217.521 117.274 217.197 117.274 216.852V215.727C117.214 215.788 117.096 215.845 116.922 215.898C116.751 215.947 116.556 215.991 116.337 216.028C116.117 216.062 115.903 216.095 115.695 216.125C115.486 216.152 115.312 216.174 115.172 216.193C114.842 216.235 114.541 216.305 114.268 216.403C114 216.502 113.784 216.644 113.621 216.83C113.462 217.011 113.382 217.254 113.382 217.557C113.382 217.977 113.537 218.295 113.848 218.511C114.159 218.723 114.554 218.83 115.036 218.83ZM120.736 220V211.273H122.378V212.659H122.469C122.628 212.189 122.908 211.82 123.31 211.551C123.715 211.278 124.173 211.142 124.685 211.142C124.791 211.142 124.916 211.146 125.06 211.153C125.207 211.161 125.323 211.17 125.406 211.182V212.807C125.338 212.788 125.217 212.767 125.043 212.744C124.868 212.718 124.694 212.705 124.52 212.705C124.118 212.705 123.76 212.79 123.446 212.96C123.135 213.127 122.889 213.36 122.707 213.659C122.526 213.955 122.435 214.292 122.435 214.67V220H120.736ZM130.966 211.273V212.636H126.199V211.273H130.966ZM127.477 209.182H129.176V217.438C129.176 217.767 129.225 218.015 129.324 218.182C129.422 218.345 129.549 218.456 129.705 218.517C129.864 218.574 130.036 218.602 130.222 218.602C130.358 218.602 130.477 218.593 130.58 218.574C130.682 218.555 130.761 218.54 130.818 218.528L131.125 219.932C131.027 219.97 130.886 220.008 130.705 220.045C130.523 220.087 130.295 220.11 130.023 220.114C129.576 220.121 129.159 220.042 128.773 219.875C128.386 219.708 128.074 219.451 127.835 219.102C127.597 218.754 127.477 218.316 127.477 217.79V209.182ZM135.642 209.875V208.364H144.648V209.875H141.017V220H139.267V209.875H135.642ZM148.497 220.176C147.637 220.176 146.897 219.992 146.276 219.625C145.658 219.254 145.181 218.733 144.844 218.062C144.51 217.388 144.344 216.598 144.344 215.693C144.344 214.799 144.51 214.011 144.844 213.33C145.181 212.648 145.651 212.116 146.253 211.733C146.859 211.35 147.567 211.159 148.378 211.159C148.87 211.159 149.348 211.241 149.81 211.403C150.272 211.566 150.687 211.822 151.054 212.17C151.421 212.519 151.711 212.972 151.923 213.528C152.135 214.081 152.241 214.754 152.241 215.545V216.148H145.304V214.875H150.577C150.577 214.428 150.486 214.032 150.304 213.688C150.122 213.339 149.866 213.064 149.537 212.864C149.211 212.663 148.829 212.562 148.389 212.562C147.912 212.562 147.495 212.68 147.139 212.915C146.787 213.146 146.514 213.449 146.321 213.824C146.132 214.195 146.037 214.598 146.037 215.034V216.028C146.037 216.612 146.139 217.108 146.344 217.517C146.552 217.926 146.842 218.239 147.213 218.455C147.584 218.667 148.018 218.773 148.514 218.773C148.836 218.773 149.13 218.727 149.395 218.636C149.66 218.542 149.889 218.402 150.082 218.216C150.276 218.03 150.423 217.801 150.526 217.528L152.134 217.818C152.005 218.292 151.774 218.706 151.44 219.062C151.111 219.415 150.696 219.689 150.196 219.886C149.7 220.08 149.134 220.176 148.497 220.176ZM157.303 220.176C156.458 220.176 155.731 219.985 155.121 219.602C154.515 219.216 154.049 218.684 153.723 218.006C153.397 217.328 153.234 216.551 153.234 215.676C153.234 214.79 153.401 214.008 153.734 213.33C154.068 212.648 154.537 212.116 155.143 211.733C155.75 211.35 156.464 211.159 157.286 211.159C157.948 211.159 158.539 211.282 159.058 211.528C159.577 211.771 159.996 212.112 160.314 212.551C160.636 212.991 160.827 213.504 160.888 214.091H159.234C159.143 213.682 158.935 213.33 158.609 213.034C158.287 212.739 157.856 212.591 157.314 212.591C156.84 212.591 156.426 212.716 156.07 212.966C155.717 213.212 155.443 213.564 155.246 214.023C155.049 214.477 154.95 215.015 154.95 215.636C154.95 216.273 155.047 216.822 155.24 217.284C155.433 217.746 155.706 218.104 156.058 218.358C156.414 218.612 156.833 218.739 157.314 218.739C157.636 218.739 157.928 218.68 158.189 218.562C158.454 218.441 158.676 218.269 158.854 218.045C159.036 217.822 159.162 217.553 159.234 217.239H160.888C160.827 217.803 160.643 218.307 160.337 218.75C160.03 219.193 159.619 219.542 159.104 219.795C158.592 220.049 157.992 220.176 157.303 220.176ZM163.903 214.818V220H162.205V208.364H163.881V212.693H163.989C164.193 212.223 164.506 211.85 164.926 211.574C165.347 211.297 165.896 211.159 166.574 211.159C167.172 211.159 167.695 211.282 168.142 211.528C168.593 211.775 168.941 212.142 169.188 212.631C169.438 213.116 169.562 213.722 169.562 214.449V220H167.864V214.653C167.864 214.013 167.699 213.517 167.369 213.165C167.04 212.809 166.581 212.631 165.994 212.631C165.593 212.631 165.233 212.716 164.915 212.886C164.6 213.057 164.352 213.307 164.17 213.636C163.992 213.962 163.903 214.356 163.903 214.818ZM173.028 214.818V220H171.33V211.273H172.96V212.693H173.068C173.269 212.231 173.583 211.86 174.011 211.58C174.443 211.299 174.987 211.159 175.642 211.159C176.237 211.159 176.758 211.284 177.205 211.534C177.652 211.78 177.998 212.148 178.244 212.636C178.491 213.125 178.614 213.729 178.614 214.449V220H176.915V214.653C176.915 214.021 176.75 213.527 176.42 213.17C176.091 212.811 175.638 212.631 175.062 212.631C174.669 212.631 174.318 212.716 174.011 212.886C173.708 213.057 173.468 213.307 173.29 213.636C173.116 213.962 173.028 214.356 173.028 214.818ZM184.068 220.176C183.25 220.176 182.536 219.989 181.926 219.614C181.316 219.239 180.843 218.714 180.506 218.04C180.169 217.366 180 216.578 180 215.676C180 214.771 180.169 213.979 180.506 213.301C180.843 212.623 181.316 212.097 181.926 211.722C182.536 211.347 183.25 211.159 184.068 211.159C184.886 211.159 185.6 211.347 186.21 211.722C186.82 212.097 187.294 212.623 187.631 213.301C187.968 213.979 188.136 214.771 188.136 215.676C188.136 216.578 187.968 217.366 187.631 218.04C187.294 218.714 186.82 219.239 186.21 219.614C185.6 219.989 184.886 220.176 184.068 220.176ZM184.074 218.75C184.604 218.75 185.044 218.61 185.392 218.33C185.741 218.049 185.998 217.676 186.165 217.21C186.335 216.744 186.42 216.231 186.42 215.67C186.42 215.114 186.335 214.602 186.165 214.136C185.998 213.667 185.741 213.29 185.392 213.006C185.044 212.722 184.604 212.58 184.074 212.58C183.54 212.58 183.097 212.722 182.744 213.006C182.396 213.29 182.136 213.667 181.966 214.136C181.799 214.602 181.716 215.114 181.716 215.67C181.716 216.231 181.799 216.744 181.966 217.21C182.136 217.676 182.396 218.049 182.744 218.33C183.097 218.61 183.54 218.75 184.074 218.75ZM191.232 208.364V220H189.533V208.364H191.232ZM196.693 220.176C195.875 220.176 195.161 219.989 194.551 219.614C193.941 219.239 193.468 218.714 193.131 218.04C192.794 217.366 192.625 216.578 192.625 215.676C192.625 214.771 192.794 213.979 193.131 213.301C193.468 212.623 193.941 212.097 194.551 211.722C195.161 211.347 195.875 211.159 196.693 211.159C197.511 211.159 198.225 211.347 198.835 211.722C199.445 212.097 199.919 212.623 200.256 213.301C200.593 213.979 200.761 214.771 200.761 215.676C200.761 216.578 200.593 217.366 200.256 218.04C199.919 218.714 199.445 219.239 198.835 219.614C198.225 219.989 197.511 220.176 196.693 220.176ZM196.699 218.75C197.229 218.75 197.669 218.61 198.017 218.33C198.366 218.049 198.623 217.676 198.79 217.21C198.96 216.744 199.045 216.231 199.045 215.67C199.045 215.114 198.96 214.602 198.79 214.136C198.623 213.667 198.366 213.29 198.017 213.006C197.669 212.722 197.229 212.58 196.699 212.58C196.165 212.58 195.722 212.722 195.369 213.006C195.021 213.29 194.761 213.667 194.591 214.136C194.424 214.602 194.341 215.114 194.341 215.67C194.341 216.231 194.424 216.744 194.591 217.21C194.761 217.676 195.021 218.049 195.369 218.33C195.722 218.61 196.165 218.75 196.699 218.75ZM205.817 223.455C205.124 223.455 204.527 223.364 204.027 223.182C203.531 223 203.125 222.759 202.811 222.46C202.497 222.161 202.262 221.833 202.107 221.477L203.567 220.875C203.669 221.042 203.805 221.218 203.976 221.403C204.15 221.593 204.385 221.754 204.68 221.886C204.98 222.019 205.364 222.085 205.834 222.085C206.478 222.085 207.01 221.928 207.43 221.614C207.851 221.303 208.061 220.807 208.061 220.125V218.409H207.953C207.851 218.595 207.703 218.801 207.51 219.028C207.321 219.256 207.059 219.453 206.726 219.619C206.393 219.786 205.959 219.869 205.425 219.869C204.735 219.869 204.114 219.708 203.561 219.386C203.012 219.061 202.576 218.581 202.254 217.949C201.936 217.312 201.777 216.53 201.777 215.602C201.777 214.674 201.934 213.879 202.249 213.216C202.567 212.553 203.002 212.045 203.555 211.693C204.108 211.337 204.735 211.159 205.436 211.159C205.978 211.159 206.415 211.25 206.749 211.432C207.082 211.61 207.341 211.818 207.527 212.057C207.716 212.295 207.862 212.506 207.964 212.688H208.089V211.273H209.754V220.193C209.754 220.943 209.58 221.559 209.232 222.04C208.883 222.521 208.411 222.877 207.817 223.108C207.226 223.339 206.559 223.455 205.817 223.455ZM205.8 218.46C206.288 218.46 206.701 218.347 207.038 218.119C207.379 217.888 207.637 217.559 207.811 217.131C207.989 216.699 208.078 216.182 208.078 215.58C208.078 214.992 207.991 214.475 207.817 214.028C207.643 213.581 207.387 213.233 207.05 212.983C206.713 212.729 206.296 212.602 205.8 212.602C205.288 212.602 204.862 212.735 204.521 213C204.18 213.261 203.923 213.617 203.749 214.068C203.578 214.519 203.493 215.023 203.493 215.58C203.493 216.152 203.58 216.653 203.754 217.085C203.929 217.517 204.186 217.854 204.527 218.097C204.872 218.339 205.296 218.46 205.8 218.46ZM212.607 223.273C212.353 223.273 212.122 223.252 211.913 223.21C211.705 223.172 211.55 223.131 211.447 223.085L211.857 221.693C212.167 221.777 212.444 221.813 212.686 221.801C212.929 221.79 213.143 221.699 213.328 221.528C213.518 221.358 213.684 221.08 213.828 220.693L214.038 220.114L210.845 211.273H212.663L214.874 218.045H214.964L217.175 211.273H218.999L215.402 221.165C215.235 221.619 215.023 222.004 214.766 222.318C214.508 222.636 214.201 222.875 213.845 223.034C213.489 223.193 213.076 223.273 212.607 223.273Z" fill="#0D0F16"/>
</g>
<rect x="88.5" width="130" height="130" rx="65" fill="#EEF1FF"/>
<g filter="url(#filter3_di_12927_77966)">
<rect x="104" y="15.5" width="99" height="99" rx="49.5" fill="url(#paint0_linear_12927_77966)" shape-rendering="crispEdges"/>
<path d="M157.378 68.9263C160.904 68.3314 163.6 66.984 165.464 64.881C167.328 62.778 168.26 60.0831 168.26 56.7904C168.26 52.9443 167.006 49.8509 164.502 47.5099C161.998 45.169 158.319 44 153.47 44H138.5V49.83H152.929C155.776 49.83 157.868 50.4755 159.211 51.7635C160.555 53.0514 161.225 54.848 161.225 57.1473C161.225 61.9868 158.46 64.4051 152.929 64.4051H138.5V86H145.354V69.2238H150.223L160.805 86H168.5L157.378 68.9263Z" fill="white"/>
</g>
<defs>
<filter id="filter0_d_12927_77966" x="0.5" y="33" width="306" height="182" filterUnits="userSpaceOnUse" color-interpolation-filters="sRGB">
<feFlood flood-opacity="0" result="BackgroundImageFix"/>
<feColorMatrix in="SourceAlpha" type="matrix" values="0 0 0 0 0 0 0 0 0 0 0 0 0 0 0 0 0 0 127 0" result="hardAlpha"/>
<feOffset dy="5"/>
<feGaussianBlur stdDeviation="6"/>
<feComposite in2="hardAlpha" operator="out"/>
<feColorMatrix type="matrix" values="0 0 0 0 0.0736298 0 0 0 0 0.19643 0 0 0 0 0.80788 0 0 0 0.49 0"/>
<feBlend mode="normal" in2="BackgroundImageFix" result="effect1_dropShadow_12927_77966"/>
<feBlend mode="normal" in="SourceGraphic" in2="effect1_dropShadow_12927_77966" result="shape"/>
</filter>
<filter id="filter1_d_12927_77966" x="26.5" y="207" width="254" height="79" filterUnits="userSpaceOnUse" color-interpolation-filters="sRGB">
<feFlood flood-opacity="0" result="BackgroundImageFix"/>
<feColorMatrix in="SourceAlpha" type="matrix" values="0 0 0 0 0 0 0 0 0 0 0 0 0 0 0 0 0 0 127 0" result="hardAlpha"/>
<feOffset dy="6"/>
<feGaussianBlur stdDeviation="5"/>
<feComposite in2="hardAlpha" operator="out"/>
<feColorMatrix type="matrix" values="0 0 0 0 0.823885 0 0 0 0 0.862721 0 0 0 0 0.940392 0 0 0 0.8 0"/>
<feBlend mode="normal" in2="BackgroundImageFix" result="effect1_dropShadow_12927_77966"/>
<feBlend mode="normal" in="SourceGraphic" in2="effect1_dropShadow_12927_77966" result="shape"/>
</filter>
<filter id="filter2_d_12927_77966" x="0" y="173" width="307" height="99" filterUnits="userSpaceOnUse" color-interpolation-filters="sRGB">
<feFlood flood-opacity="0" result="BackgroundImageFix"/>
<feColorMatrix in="SourceAlpha" type="matrix" values="0 0 0 0 0 0 0 0 0 0 0 0 0 0 0 0 0 0 127 0" result="hardAlpha"/>
<feOffset dy="8"/>
<feGaussianBlur stdDeviation="10"/>
<feComposite in2="hardAlpha" operator="out"/>
<feColorMatrix type="matrix" values="0 0 0 0 0.581991 0 0 0 0 0.71483 0 0 0 0 0.980506 0 0 0 0.8 0"/>
<feBlend mode="normal" in2="BackgroundImageFix" result="effect1_dropShadow_12927_77966"/>
<feBlend mode="normal" in="SourceGraphic" in2="effect1_dropShadow_12927_77966" result="shape"/>
</filter>
<filter id="filter3_di_12927_77966" x="92" y="8.5" width="123" height="123" filterUnits="userSpaceOnUse" color-interpolation-filters="sRGB">
<feFlood flood-opacity="0" result="BackgroundImageFix"/>
<feColorMatrix in="SourceAlpha" type="matrix" values="0 0 0 0 0 0 0 0 0 0 0 0 0 0 0 0 0 0 127 0" result="hardAlpha"/>
<feOffset dy="5"/>
<feGaussianBlur stdDeviation="6"/>
<feComposite in2="hardAlpha" operator="out"/>
<feColorMatrix type="matrix" values="0 0 0 0 0.0736298 0 0 0 0 0.19643 0 0 0 0 0.80788 0 0 0 0.49 0"/>
<feBlend mode="normal" in2="BackgroundImageFix" result="effect1_dropShadow_12927_77966"/>
<feBlend mode="normal" in="SourceGraphic" in2="effect1_dropShadow_12927_77966" result="shape"/>
<feColorMatrix in="SourceAlpha" type="matrix" values="0 0 0 0 0 0 0 0 0 0 0 0 0 0 0 0 0 0 127 0" result="hardAlpha"/>
<feOffset dy="7"/>
<feGaussianBlur stdDeviation="6"/>
<feComposite in2="hardAlpha" operator="arithmetic" k2="-1" k3="1"/>
<feColorMatrix type="matrix" values="0 0 0 0 1 0 0 0 0 1 0 0 0 0 1 0 0 0 1 0"/>
<feBlend mode="normal" in2="shape" result="effect2_innerShadow_12927_77966"/>
</filter>
<linearGradient id="paint0_linear_12927_77966" x1="153.5" y1="135.5" x2="153.5" y2="15.5" gradientUnits="userSpaceOnUse">
<stop stop-color="#5F05FF"/>
<stop offset="0.185205" stop-color="#3D31FF"/>
<stop offset="0.396344" stop-color="#3F4AFF"/>
<stop offset="0.826923" stop-color="#4685FF"/>
<stop offset="1" stop-color="#499DFF"/>
</linearGradient>
</defs>
</svg>
