<svg width="60" height="60" viewBox="0 0 60 60" fill="none" xmlns="http://www.w3.org/2000/svg">
<path fill-rule="evenodd" clip-rule="evenodd" d="M48.6863 33.3136C44.7478 33.3136 42.7717 38.0851 45.5564 40.8699C46.0694 41.3829 46.0694 42.215 45.5564 42.7279L42.728 45.5563C42.215 46.0693 41.3829 46.0693 40.8699 45.5563C38.0851 42.7715 33.3136 44.7477 33.3136 48.6862C33.3136 49.4121 32.7253 50 31.9999 50H28C27.2746 50 26.6863 49.4121 26.6863 48.6862C26.6863 44.7428 21.9184 42.7681 19.1301 45.5563C18.6171 46.0693 17.7851 46.0693 17.2721 45.5563L14.4437 42.7279C13.9307 42.2149 13.9307 41.3829 14.4437 40.8699C17.2285 38.0851 15.2523 33.3136 11.3137 33.3136C10.5879 33.3136 10 32.7253 10 31.9998V30.4167C10 30.1872 10.1872 30 10.4167 30H19.8182C20.0418 30 20.2255 30.1765 20.2344 30.3999C20.4442 35.6123 24.7361 39.7737 30 39.7737C35.2639 39.7737 39.5559 35.6123 39.7657 30.3999C39.7747 30.1765 39.9584 30 40.1819 30H49.5833C49.8128 30 50 30.1872 50 30.4167V31.9999C50 32.7253 49.4121 33.3136 48.6863 33.3136ZM36.2784 23.7534C36.2784 27.2208 23.7217 27.2208 23.7217 23.7534C23.7217 20.2862 26.533 17.4753 30.0003 17.4753C33.4675 17.4753 36.2784 20.2862 36.2784 23.7534ZM27.0985 12.9013C27.0985 14.504 28.3975 15.8031 30.0002 15.8031C31.6029 15.8031 32.902 14.504 32.902 12.9013C32.902 11.2992 31.6029 10 30.0002 10C28.3976 10 27.0985 11.2991 27.0985 12.9013ZM16.8507 13.9539C16.8507 15.4312 18.0482 16.6286 19.5254 16.6286C21.0026 16.6286 22.2001 15.4312 22.2001 13.9539C22.2001 12.4771 21.0026 11.2796 19.5254 11.2796C18.0482 11.2796 16.8507 12.4771 16.8507 13.9539ZM37.8004 13.9539C37.8004 15.4312 38.9979 16.6286 40.4751 16.6286C41.9523 16.6286 43.1498 15.4312 43.1498 13.9539C43.1498 12.4771 41.9523 11.2796 40.4751 11.2796C38.9979 11.2796 37.8004 12.4771 37.8004 13.9539ZM22.8498 25.9602C19.4514 26.8701 13.7382 26.2024 13.7382 23.9569C13.7382 20.761 16.3294 18.1701 19.5255 18.1701C21.0114 18.1701 22.3664 18.7303 23.3911 19.6509C23.5371 19.7821 23.5722 19.9904 23.4774 20.1622C22.8896 21.2271 22.5551 22.4513 22.5551 23.7535C22.5551 24.3625 22.7544 24.8772 23.0761 25.3087C23.2528 25.5457 23.1355 25.8836 22.8498 25.9602ZM46.2619 23.9569C46.2619 26.2024 40.5486 26.8701 37.1503 25.9602C36.8646 25.8837 36.7473 25.5457 36.924 25.3087C37.2457 24.8772 37.445 24.3625 37.445 23.7535C37.445 22.4513 37.1105 21.2272 36.5229 20.1623C36.428 19.9905 36.4632 19.7822 36.6092 19.651C37.634 18.7304 38.9891 18.1702 40.4751 18.1702C43.671 18.17 46.2619 20.7609 46.2619 23.9569ZM35.624 30.4494C35.6433 30.2057 35.4531 30 35.2086 30H24.7915C24.547 30 24.3568 30.2057 24.3761 30.4494C24.6051 33.3551 27.0355 35.6417 30 35.6417C32.9645 35.6417 35.395 33.3551 35.624 30.4494Z" fill="#2B51FF"/>
</svg>
